<?xml version="1.0" encoding="UTF-8" standalone="no"?>
<!-- Created with Inkscape (http://www.inkscape.org/) -->

<svg
   xmlns:dc="http://purl.org/dc/elements/1.1/"
   xmlns:cc="http://creativecommons.org/ns#"
   xmlns:rdf="http://www.w3.org/1999/02/22-rdf-syntax-ns#"
   xmlns:svg="http://www.w3.org/2000/svg"
   xmlns="http://www.w3.org/2000/svg"
   xmlns:sodipodi="http://sodipodi.sourceforge.net/DTD/sodipodi-0.dtd"
   xmlns:inkscape="http://www.inkscape.org/namespaces/inkscape"
   id="svg3336"
   version="1.1"
   inkscape:version="0.91 r13725"
   xml:space="preserve"
   width="2659.4778"
   height="1330.191"
   viewBox="0 0 2659.4778 1330.191"
   sodipodi:docname="Logo TITOEUF - Copie.svg"><metadata
     id="metadata3342"><rdf:RDF><cc:Work
         rdf:about=""><dc:format>image/svg+xml</dc:format><dc:type
           rdf:resource="http://purl.org/dc/dcmitype/StillImage" /><dc:title></dc:title></cc:Work></rdf:RDF></metadata><defs
     id="defs3340"><clipPath
       clipPathUnits="userSpaceOnUse"
       id="clipPath3382"><path
         d="m 0,2448 3264,0 L 3264,0 0,0 0,2448 Z"
         id="path3384"
         inkscape:connector-curvature="0" /></clipPath></defs><sodipodi:namedview
     pagecolor="#ffffff"
     bordercolor="#666666"
     borderopacity="1"
     objecttolerance="10"
     gridtolerance="10"
     guidetolerance="10"
     inkscape:pageopacity="0"
     inkscape:pageshadow="2"
     inkscape:window-width="1920"
     inkscape:window-height="1028"
     id="namedview3338"
     showgrid="false"
     inkscape:zoom="0.28137255"
     inkscape:cx="1330.3036"
     inkscape:cy="952.71181"
     inkscape:window-x="-8"
     inkscape:window-y="-8"
     inkscape:window-maximized="1"
     inkscape:current-layer="g3344"
     fit-margin-top="10"
     fit-margin-left="10"
     fit-margin-right="10"
     fit-margin-bottom="10" /><g
     id="g3344"
     inkscape:groupmode="layer"
     inkscape:label="Logo TITOEUF - Copie"
     transform="matrix(1.25,0,0,-1.25,-709.69635,1907.4791)"><g
       id="g3346"
       transform="translate(1103.1984,1269.1449)"><path
         d="m 0,0 -143.967,16.819 7.778,67.43 L 7.778,67.43 0,0 Z"
         style="fill:#c93c40;fill-opacity:1;fill-rule:nonzero;stroke:none"
         id="path3348"
         inkscape:connector-curvature="0" /></g><g
       id="g3350"
       transform="translate(1103.1984,1269.1449)"><path
         d="m 0,0 -143.967,16.819 7.778,67.43 L 7.778,67.43 0,0 Z"
         style="fill:none;stroke:#181210;stroke-width:19;stroke-linecap:butt;stroke-linejoin:miter;stroke-miterlimit:10;stroke-dasharray:none;stroke-opacity:1"
         id="path3352"
         inkscape:connector-curvature="0" /></g><g
       id="g3354"
       transform="translate(586.5,1197)"><path
         d="m 0,0 267,44 20,-163 -67,-7 21,-254 L 133,-402 90,-148 24,-165 0,0 Z"
         style="fill:#c93c40;fill-opacity:1;fill-rule:nonzero;stroke:none"
         id="path3356"
         inkscape:connector-curvature="0" /></g><g
       id="g3358"
       transform="translate(586.5,1197)"><path
         d="m 0,0 267,44 20,-163 -67,-7 21,-254 L 133,-402 90,-148 24,-165 0,0 Z"
         style="fill:none;stroke:#181210;stroke-width:19;stroke-linecap:butt;stroke-linejoin:miter;stroke-miterlimit:10;stroke-dasharray:none;stroke-opacity:1"
         id="path3360"
         inkscape:connector-curvature="0" /></g><g
       id="g3362"
       transform="translate(1395.5,1203)"><path
         d="M 0,0 -255.931,47.419 -280.523,-117 l 61.88,-8.687 L -257,-378 -151.993,-394 -93,-146 -32.377,-157.797 0,0 Z"
         style="fill:#c93c40;fill-opacity:1;fill-rule:nonzero;stroke:none"
         id="path3364"
         inkscape:connector-curvature="0" /></g><g
       id="g3366"
       transform="translate(1395.5,1203)"><path
         d="M 0,0 -255.931,47.419 -280.523,-117 l 61.88,-8.687 L -257,-378 -151.993,-394 -93,-146 -32.377,-157.797 0,0 Z"
         style="fill:none;stroke:#181210;stroke-width:19;stroke-linecap:butt;stroke-linejoin:miter;stroke-miterlimit:10;stroke-dasharray:none;stroke-opacity:1"
         id="path3368"
         inkscape:connector-curvature="0" /></g><g
       id="g3370"
       transform="translate(950.5,1236)"><path
         d="M 0,0 143,-17 71.5,-427 -52,-416 0,0 Z"
         style="fill:#c93c40;fill-opacity:1;fill-rule:nonzero;stroke:none"
         id="path3372"
         inkscape:connector-curvature="0" /></g><g
       id="g3374"
       transform="translate(950.5,1236)"><path
         d="M 0,0 143,-17 71.5,-427 -52,-416 0,0 Z"
         style="fill:none;stroke:#181210;stroke-width:19;stroke-linecap:butt;stroke-linejoin:miter;stroke-miterlimit:10;stroke-dasharray:none;stroke-opacity:1"
         id="path3376"
         inkscape:connector-curvature="0" /></g><g
       id="g3378"><g
         id="g3380"
         clip-path="url(#clipPath3382)"><g
           id="g3386"
           transform="translate(1836.5,1224)"><path
             d="m 0,0 200,41 34,-156 -66,-7 11,-51 69,16 8,-71 c 0,0 -47,-3 -58,-7 l 12,-60 c 0,0 63,15 74,24 l 9,-79 L 119,-388 0,0 Z"
             style="fill:#c93c40;fill-opacity:1;fill-rule:nonzero;stroke:none"
             id="path3388"
             inkscape:connector-curvature="0" /></g><g
           id="g3390"
           transform="translate(1836.5,1224)"><path
             d="m 0,0 200,41 34,-156 -66,-7 11,-51 69,16 8,-71 c 0,0 -47,-3 -58,-7 l 12,-60 c 0,0 63,15 74,24 l 9,-79 L 119,-388 0,0 Z"
             style="fill:none;stroke:#181210;stroke-width:19;stroke-linecap:butt;stroke-linejoin:miter;stroke-miterlimit:10;stroke-dasharray:none;stroke-opacity:1"
             id="path3392"
             inkscape:connector-curvature="0" /></g><g
           id="g3394"
           transform="translate(2176.5,1283)"><path
             d="m 0,0 124,-29 c 0,0 -36,-238 -35,-276 1,-38 8,-57 47,-57 l 34,325 95,-22 -50,-373 c 0,0 -126,-35 -208,58 C -44.928,-315.106 0,0 0,0"
             style="fill:#c93c40;fill-opacity:1;fill-rule:nonzero;stroke:none"
             id="path3396"
             inkscape:connector-curvature="0" /></g><g
           id="g3398"
           transform="translate(2176.5,1283)"><path
             d="m 0,0 124,-29 c 0,0 -36,-238 -35,-276 1,-38 8,-57 47,-57 l 34,325 95,-22 -50,-373 c 0,0 -126,-35 -208,58 C -44.928,-315.106 0,0 0,0 Z"
             style="fill:none;stroke:#181210;stroke-width:19;stroke-linecap:butt;stroke-linejoin:miter;stroke-miterlimit:10;stroke-dasharray:none;stroke-opacity:1"
             id="path3400"
             inkscape:connector-curvature="0" /></g><g
           id="g3402"
           transform="translate(2488.5,876.0001)"><path
             d="m 0,0 -12,389 201,-21 -6,-154 c 0,0 -45,14 -62,11 l -4,-82 63,-4 -10,-75 c 0,0 -41,14 -55,12 L 112,-15 0,0 Z"
             style="fill:#c93c40;fill-opacity:1;fill-rule:nonzero;stroke:none"
             id="path3404"
             inkscape:connector-curvature="0" /></g><g
           id="g3406"
           transform="translate(2488.5,876.0001)"><path
             d="m 0,0 -12,389 201,-21 -6,-154 c 0,0 -45,14 -62,11 l -4,-82 63,-4 -10,-75 c 0,0 -41,14 -55,12 L 112,-15 0,0 Z"
             style="fill:none;stroke:#181210;stroke-width:19;stroke-linecap:butt;stroke-linejoin:miter;stroke-miterlimit:10;stroke-dasharray:none;stroke-opacity:1"
             id="path3408"
             inkscape:connector-curvature="0" /></g><g
           id="g3410"
           transform="translate(1814.9697,1064.674)"><path
             d="m 0,0 c -8.724,144.385 -99.585,256.371 -202.945,250.126 -103.36,-6.245 -180.077,-128.355 -171.354,-272.741 8.724,-144.385 99.585,-256.37 202.945,-250.126 C -67.994,-266.496 8.724,-144.386 0,0"
             style="fill:#ffffff;fill-opacity:1;fill-rule:nonzero;stroke:none"
             id="path3412"
             inkscape:connector-curvature="0" /></g><g
           id="g3414"
           transform="translate(1814.9697,1064.674)"><path
             d="m 0,0 c -8.724,144.385 -99.585,256.371 -202.945,250.126 -103.36,-6.245 -180.077,-128.355 -171.354,-272.741 8.724,-144.385 99.585,-256.37 202.945,-250.126 C -67.994,-266.496 8.724,-144.386 0,0 Z"
             style="fill:none;stroke:#181210;stroke-width:8;stroke-linecap:butt;stroke-linejoin:miter;stroke-miterlimit:10;stroke-dasharray:none;stroke-opacity:1"
             id="path3416"
             inkscape:connector-curvature="0" /></g><g
           id="g3418"
           transform="translate(1683,1187)"><path
             d="M 0,0 C 0,0 30,83.097 74,128.049 118,173 174,208 186,217 c 12,9 17,35 -28,23 0,0 53.59,66 36.295,83 C 177,340 117,332 74,278 c 0,0 -6,46 -35,15 -29,-31 -24,-91 -24,-91 0,0 -20,42 -40,30 -20,-12 -8,-65 8,-99 0,0 -63,54.29 -30,-50.855 C -45,63.419 -41,9 -45,0 L 0,0 Z"
             style="fill:#f36437;fill-opacity:1;fill-rule:nonzero;stroke:none"
             id="path3420"
             inkscape:connector-curvature="0" /></g><g
           id="g3422"
           transform="translate(1731.4338,1114.6671)"><path
             d="m 0,0 c 2.017,-52.978 -34.599,-97.382 -81.782,-99.178 -47.184,-1.796 -87.069,39.696 -89.086,92.674 -2.016,52.978 34.599,97.382 81.783,99.178 C -41.901,94.47 -2.016,52.978 0,0"
             style="fill:#f36437;fill-opacity:1;fill-rule:nonzero;stroke:none"
             id="path3424"
             inkscape:connector-curvature="0" /></g><g
           id="g3426"
           transform="translate(938.1782,529.8028)"><path
             d="m 0,0 c 28.451,4.203 44.616,17.135 44.454,26.511 0,3.394 -3.718,6.789 -11.477,6.789 C 22.792,33.3 12.447,29.905 0,22.146 L 0,0 Z m -15.519,13.902 c -2.586,0.324 -4.526,2.586 -4.526,6.952 0,4.364 1.94,7.112 4.526,8.567 l 0,5.819 c -0.485,0.97 -0.808,2.748 -0.808,4.364 0,4.042 5.011,6.952 8.244,6.952 6.143,0 9.214,-3.072 7.921,-8.244 l 0,-1.94 c 9.214,4.688 20.045,10.83 38.15,10.83 15.033,0 22.631,-6.628 22.631,-17.135 C 60.619,12.285 36.048,-7.76 0,-13.417 l 0,-32.977 c 0.808,-1.131 1.778,-2.586 1.778,-4.203 0,-5.819 -1.778,-7.113 -10.992,-7.113 -5.335,0 -8.244,3.233 -8.244,6.79 0,2.263 0.484,3.556 1.939,5.334 l 0,59.488 z"
             style="fill:#181210;fill-opacity:1;fill-rule:nonzero;stroke:none"
             id="path3428"
             inkscape:connector-curvature="0" /></g><g
           id="g3430"
           transform="translate(1022.0781,567.1446)"><path
             d="m 0,0 c 0,-9.538 -4.526,-15.034 -9.699,-15.034 -5.173,0 -7.274,3.233 -7.274,7.921 0,8.083 3.556,14.549 9.699,14.549 C -2.586,7.436 0,4.687 0,0 m -16.973,-37.019 c -0.97,0.97 -1.455,2.748 -1.455,4.204 0,4.526 0.323,9.376 10.184,9.376 3.718,0 8.082,-4.204 8.082,-7.437 0,-2.909 -1.454,-4.526 -1.777,-5.496 l 0,-46.233 c 0.808,-0.646 2.101,-2.585 2.101,-4.526 0,-5.496 -6.789,-7.921 -11.801,-7.921 -4.203,0 -7.274,2.91 -7.274,7.598 0,2.91 1.293,4.688 1.94,5.496 l 0,44.939 z"
             style="fill:#181210;fill-opacity:1;fill-rule:nonzero;stroke:none"
             id="path3432"
             inkscape:connector-curvature="0" /></g><g
           id="g3434"
           transform="translate(1077.5249,529.3174)"><path
             d="m 0,0 -29.42,0 c 0,-5.819 -2.91,-8.405 -6.628,-8.405 -3.072,0 -6.143,1.778 -6.143,7.435 0,9.699 2.748,13.256 9.376,13.256 l 41.221,0 c 1.94,1.616 3.718,2.425 7.274,2.425 3.88,0 6.79,-2.587 6.79,-5.658 0,-2.909 -0.647,-5.657 -3.395,-7.759 l -41.221,-45.425 31.037,0 c 0.808,4.042 3.071,7.76 7.113,7.76 3.556,0 6.304,-1.941 6.304,-9.376 0,-8.891 -3.718,-12.124 -8.406,-12.124 -2.101,0 -4.041,0.808 -5.011,1.455 l -41.544,0 c -1.617,-0.97 -3.395,-1.293 -5.982,-1.293 -4.364,0 -6.95,2.102 -6.95,5.496 0,2.909 1.777,6.305 4.526,6.789 L 0,0 Z"
             style="fill:#181210;fill-opacity:1;fill-rule:nonzero;stroke:none"
             id="path3436"
             inkscape:connector-curvature="0" /></g><g
           id="g3438"
           transform="translate(1151.3999,529.3174)"><path
             d="m 0,0 -29.42,0 c 0,-5.819 -2.91,-8.405 -6.628,-8.405 -3.072,0 -6.143,1.778 -6.143,7.435 0,9.699 2.748,13.256 9.376,13.256 l 41.221,0 c 1.94,1.616 3.718,2.425 7.274,2.425 3.88,0 6.79,-2.587 6.79,-5.658 0,-2.909 -0.647,-5.657 -3.395,-7.759 l -41.221,-45.425 31.037,0 c 0.808,4.042 3.071,7.76 7.113,7.76 3.556,0 6.304,-1.941 6.304,-9.376 0,-8.891 -3.718,-12.124 -8.406,-12.124 -2.101,0 -4.041,0.808 -5.011,1.455 l -41.544,0 c -1.617,-0.97 -3.395,-1.293 -5.982,-1.293 -4.364,0 -6.95,2.102 -6.95,5.496 0,2.909 1.777,6.305 4.526,6.789 L 0,0 Z"
             style="fill:#181210;fill-opacity:1;fill-rule:nonzero;stroke:none"
             id="path3440"
             inkscape:connector-curvature="0" /></g><g
           id="g3442"
           transform="translate(1231.0942,509.2735)"><path
             d="m 0,0 c -21.338,-2.425 -36.21,-15.357 -36.21,-22.632 0,-2.909 2.263,-3.718 5.496,-3.718 11.8,0 30.714,14.064 30.714,21.338 L 0,0 Z m 0.323,18.428 c 0,4.203 -1.455,6.304 -5.657,6.304 -8.892,0 -16.328,-3.071 -22.309,-6.789 0.324,-1.294 -2.101,-4.526 -6.789,-4.526 -3.88,0 -6.789,4.364 -6.789,7.598 0,3.071 4.041,7.274 7.436,6.627 8.244,5.335 19.398,8.891 34.108,8.891 8.244,0 14.71,-5.335 14.71,-14.549 l 0,-49.627 c 0.647,-0.485 1.294,-2.263 1.294,-3.718 0,-4.849 -5.82,-5.981 -10.669,-5.981 -5.335,0 -6.951,2.425 -6.951,5.011 0,1.455 0.646,2.748 1.293,3.88 l 0,7.274 -0.162,0 c -11.477,-12.608 -22.631,-18.266 -36.048,-18.266 -8.245,0 -14.872,4.687 -14.872,13.093 0,14.226 17.62,32.493 51.405,36.534 l 0,8.244 z"
             style="fill:#181210;fill-opacity:1;fill-rule:nonzero;stroke:none"
             id="path3444"
             inkscape:connector-curvature="0" /></g><g
           id="g3446"
           transform="translate(1334.875,566.6592)"><path
             d="m 0,0 -29.097,-85.675 c 0.485,-1.132 1.131,-2.91 1.131,-5.012 0,-3.394 -4.365,-5.819 -9.052,-5.819 -5.173,0 -10.184,2.586 -10.184,8.567 0,3.234 2.263,4.689 5.496,5.659 l 29.097,85.837 c -0.323,4.687 0.808,8.082 8.567,8.082 5.982,0 7.598,-2.263 7.598,-5.658 C 3.556,3.233 2.102,0.485 0,0"
             style="fill:#181210;fill-opacity:1;fill-rule:nonzero;stroke:none"
             id="path3448"
             inkscape:connector-curvature="0" /></g><g
           id="g3450"
           transform="translate(1455.3057,561.4864)"><path
             d="m 0,0 c 0,-3.557 -1.939,-6.789 -7.273,-6.789 -6.467,0 -9.053,2.586 -9.215,5.657 -1.779,2.587 -6.628,4.527 -13.255,4.527 -17.459,0 -32.978,-13.579 -32.978,-25.218 0,-5.82 2.91,-7.921 7.114,-7.921 4.526,0 10.669,1.455 19.236,3.88 8.244,2.425 15.356,3.88 23.6,3.88 13.742,0 24.249,-6.952 24.249,-21.5 0,-9.7 -3.072,-17.621 -9.053,-24.572 -11.962,-14.71 -34.109,-22.954 -52.698,-22.954 -20.853,0 -28.451,15.033 -28.451,20.368 0,5.335 3.557,9.537 9.053,9.537 5.334,0 6.466,-6.626 8.405,-10.345 2.264,-4.364 5.982,-6.627 12.124,-6.627 12.771,0 29.098,6.789 37.827,16.488 5.172,4.85 6.628,10.507 6.628,17.135 0,6.951 -3.557,9.214 -10.184,9.214 -7.113,0 -13.256,-1.293 -21.662,-3.879 -8.405,-2.425 -15.519,-3.719 -22.469,-3.719 -11.477,0 -20.045,5.173 -20.045,19.561 0,17.943 23.277,39.604 51.243,39.604 C -12.932,16.327 0,6.789 0,0"
             style="fill:#181210;fill-opacity:1;fill-rule:nonzero;stroke:none"
             id="path3452"
             inkscape:connector-curvature="0" /></g><g
           id="g3454"
           transform="translate(1497.3389,481.792)"><path
             d="m 0,0 c 0.809,-1.132 1.132,-2.102 1.132,-3.88 0,-4.202 -5.819,-5.819 -10.023,-5.819 -4.041,0 -8.082,1.617 -8.082,5.496 0,2.101 0.485,3.233 1.94,4.526 l 0,25.218 c -1.293,0.809 -2.425,2.91 -2.425,5.335 0,2.748 0.809,5.496 2.425,9.537 l 0,12.933 c -0.809,1.454 -1.293,2.748 -1.293,4.848 0,3.234 5.011,6.628 9.86,6.628 6.305,0 8.083,-2.262 8.083,-5.657 0,-2.264 -0.97,-4.042 -1.617,-5.012 l 0,-6.304 c 16.489,13.741 23.925,16.973 29.744,16.973 5.819,0 11.962,-5.496 11.962,-10.669 l 0,-52.86 c 0.485,-0.97 1.132,-1.939 1.132,-4.202 0,-5.012 -3.233,-6.79 -9.376,-6.79 -5.496,0 -8.082,2.263 -8.082,6.143 0,1.778 0.484,2.91 1.293,4.202 l 0,45.425 c 0,1.131 -2.425,3.072 -3.718,3.072 C 21.339,49.143 15.357,47.041 0,34.108 L 0,0 Z"
             style="fill:#181210;fill-opacity:1;fill-rule:nonzero;stroke:none"
             id="path3456"
             inkscape:connector-curvature="0" /></g><g
           id="g3458"
           transform="translate(1601.9297,509.2735)"><path
             d="m 0,0 c -21.338,-2.425 -36.21,-15.357 -36.21,-22.632 0,-2.909 2.264,-3.718 5.496,-3.718 C -18.913,-26.35 0,-12.286 0,-5.012 L 0,0 Z m 0.323,18.428 c 0,4.203 -1.454,6.304 -5.657,6.304 -8.891,0 -16.327,-3.071 -22.309,-6.789 0.325,-1.294 -2.1,-4.526 -6.789,-4.526 -3.88,0 -6.789,4.364 -6.789,7.598 0,3.071 4.041,7.274 7.436,6.627 8.244,5.335 19.398,8.891 34.108,8.891 8.244,0 14.711,-5.335 14.711,-14.549 l 0,-49.627 c 0.647,-0.485 1.293,-2.263 1.293,-3.718 0,-4.849 -5.819,-5.981 -10.669,-5.981 -5.335,0 -6.951,2.425 -6.951,5.011 0,1.455 0.647,2.748 1.293,3.88 l 0,7.274 -0.161,0 c -11.478,-12.608 -22.632,-18.266 -36.049,-18.266 -8.244,0 -14.872,4.687 -14.872,13.093 0,14.226 17.62,32.493 51.405,36.534 l 0,8.244 z"
             style="fill:#181210;fill-opacity:1;fill-rule:nonzero;stroke:none"
             id="path3460"
             inkscape:connector-curvature="0" /></g><g
           id="g3462"
           transform="translate(1695.6904,532.0655)"><path
             d="m 0,0 c 0,-4.687 -2.748,-8.082 -9.214,-8.082 -3.719,0 -4.526,2.263 -5.335,4.203 -0.808,1.94 -1.939,4.041 -7.597,4.041 -5.497,0 -10.508,-2.91 -15.196,-8.083 -5.496,-5.657 -11.315,-14.71 -11.315,-25.702 0,-10.023 5.173,-15.842 14.872,-15.842 3.718,0 7.112,1.455 10.346,3.557 3.394,2.1 7.435,5.496 9.376,9.698 1.13,4.365 2.1,7.437 7.112,7.437 6.142,0 7.921,-4.365 7.921,-6.79 0,-1.778 -4.688,-11.8 -13.903,-18.59 -7.112,-5.334 -14.548,-8.082 -24.57,-8.082 -16.004,0 -26.026,10.992 -26.026,26.025 0,18.591 7.274,27.319 16.65,37.342 4.688,5.012 15.68,11.477 24.409,11.477 C -9.861,12.609 0,6.951 0,0"
             style="fill:#181210;fill-opacity:1;fill-rule:nonzero;stroke:none"
             id="path3464"
             inkscape:connector-curvature="0" /></g><g
           id="g3466"
           transform="translate(1726.7285,518.002)"><path
             d="m 0,0 0.323,-0.323 c 4.689,5.819 7.921,9.214 10.669,12.286 l 14.872,14.224 c 0.162,2.749 2.587,5.173 5.982,5.173 5.658,0 8.406,-3.879 8.406,-7.921 0,-3.717 -3.072,-6.142 -5.335,-5.98 L 11.801,-6.305 36.856,-32.977 c 2.911,0.162 5.821,-2.101 5.821,-5.335 0,-4.687 -3.88,-8.244 -10.185,-8.244 -2.748,0 -4.687,1.779 -5.496,4.689 l -16.811,17.943 c -2.425,2.909 -5.497,5.981 -9.862,11.639 L 0,-12.447 0,-32.492 c 0.646,-1.616 1.778,-3.556 1.778,-5.334 0,-5.658 -3.071,-8.083 -9.537,-8.083 -3.88,0 -8.89,1.455 -8.89,8.406 0,1.132 0.161,3.395 1.616,4.688 l 0,81.795 c -0.809,0.647 -1.94,2.911 -1.94,4.527 0,3.718 1.454,7.597 9.537,7.597 6.143,0 8.891,-2.101 8.891,-7.274 C 1.455,52.698 0.97,50.759 0,49.627 L 0,0 Z"
             style="fill:#181210;fill-opacity:1;fill-rule:nonzero;stroke:none"
             id="path3468"
             inkscape:connector-curvature="0" /></g><g
           id="g3470"
           transform="translate(1851.3613,566.6592)"><path
             d="m 0,0 -29.097,-85.675 c 0.485,-1.132 1.132,-2.91 1.132,-5.012 0,-3.394 -4.365,-5.819 -9.053,-5.819 -5.172,0 -10.184,2.586 -10.184,8.567 0,3.234 2.264,4.689 5.496,5.659 l 29.098,85.837 c -0.324,4.687 0.808,8.082 8.567,8.082 5.981,0 7.598,-2.263 7.598,-5.658 C 3.557,3.233 2.102,0.485 0,0"
             style="fill:#181210;fill-opacity:1;fill-rule:nonzero;stroke:none"
             id="path3472"
             inkscape:connector-curvature="0" /></g><g
           id="g3474"
           transform="translate(1913.2754,485.9951)"><path
             d="m 0,0 c 20.853,1.778 53.506,14.063 53.506,33.139 0,5.173 -5.496,11.962 -19.236,11.962 -9.052,0 -21.985,-2.425 -28.451,-4.688 C 1.454,38.797 0,37.665 0,35.401 L 0,0 Z m 0,52.698 c 17.943,0.97 41.221,11.316 41.221,20.854 0,3.232 -2.263,5.819 -11.639,5.819 -8.083,0 -22.793,-3.88 -29.582,-7.76 L 0,52.698 Z m -15.519,24.409 c -0.97,1.456 -1.455,3.396 -1.455,5.012 0,5.657 5.496,7.759 10.507,7.759 3.719,0 6.467,-2.102 6.305,-4.85 9.214,3.719 25.218,7.114 35.725,7.114 12.286,0 21.338,-5.496 21.338,-13.741 0,-9.538 -5.981,-17.62 -17.943,-22.793 l 0,-0.323 c 1.939,0.161 3.556,0.323 5.496,0.323 15.033,0 25.218,-10.022 25.218,-20.368 0,-34.917 -57.71,-49.95 -78.725,-49.95 -6.466,0 -9.537,2.586 -9.537,7.274 0,2.91 1.454,5.334 3.071,5.981 l 0,78.562 z"
             style="fill:#181210;fill-opacity:1;fill-rule:nonzero;stroke:none"
             id="path3476"
             inkscape:connector-curvature="0" /></g><g
           id="g3478"
           transform="translate(1997.1748,534.0059)"><path
             d="m 0,0 -1.293,4.203 c 0,3.071 4.203,5.981 9.376,5.981 4.85,0 7.921,-2.263 7.921,-5.497 0,-1.13 0.162,-2.424 -0.97,-3.555 l 0,-5.82 0.161,0 c 8.892,8.083 17.944,14.387 25.865,14.387 5.011,0 10.022,-4.849 10.022,-19.721 0,-4.365 -2.586,-7.437 -8.082,-7.437 -4.688,0 -7.437,1.778 -7.437,4.365 0,1.455 0.324,3.072 0.647,4.203 0,1.94 -0.647,3.718 -1.939,3.718 -2.586,0 -10.993,-5.496 -19.237,-15.357 l 0,-29.582 c 0.97,-0.97 1.94,-2.91 1.94,-4.527 0,-4.849 -2.748,-7.274 -11.478,-7.274 -5.173,0 -7.597,2.101 -7.597,6.305 0,1.616 0.97,3.233 2.101,4.041 L 0,0 Z"
             style="fill:#181210;fill-opacity:1;fill-rule:nonzero;stroke:none"
             id="path3480"
             inkscape:connector-curvature="0" /></g><g
           id="g3482"
           transform="translate(2073.3145,489.875)"><path
             d="m 0,0 c 0.162,-2.102 2.748,-5.173 5.173,-5.173 5.496,0 15.518,6.789 21.823,14.549 l 0,35.078 c -0.485,1.132 -1.132,2.102 -1.132,3.557 0,4.041 1.941,5.657 7.437,5.657 5.173,0 9.699,-0.809 8.567,-9.053 l 0,-52.213 c 0.809,-0.969 1.455,-2.587 1.455,-4.203 0,-3.718 -3.556,-5.981 -10.345,-5.981 -5.012,0 -7.275,1.778 -7.275,5.011 0,1.293 0.97,2.586 1.455,3.718 l 0,3.718 c -7.113,-7.598 -16.65,-14.549 -27.804,-14.387 -6.79,0 -14.226,6.789 -14.226,14.226 l 0,48.818 c -0.161,1.132 -0.97,2.264 -0.97,3.88 0,5.334 4.527,6.789 9.538,6.789 3.233,0 7.598,-1.616 7.598,-6.466 0,-1.616 -0.485,-2.91 -1.294,-3.879 L 0,0 Z"
             style="fill:#181210;fill-opacity:1;fill-rule:nonzero;stroke:none"
             id="path3484"
             inkscape:connector-curvature="0" /></g><g
           id="g3486"
           transform="translate(2150.4229,481.792)"><path
             d="m 0,0 c 0.809,-1.132 1.132,-2.102 1.132,-3.88 0,-4.202 -5.819,-5.819 -10.023,-5.819 -4.041,0 -8.082,1.617 -8.082,5.496 0,2.101 0.485,3.233 1.94,4.526 l 0,25.218 c -1.293,0.809 -2.425,2.91 -2.425,5.335 0,2.748 0.809,5.496 2.425,9.537 l 0,12.933 c -0.809,1.454 -1.293,2.748 -1.293,4.848 0,3.234 5.011,6.628 9.86,6.628 6.305,0 8.083,-2.262 8.083,-5.657 0,-2.264 -0.97,-4.042 -1.617,-5.012 l 0,-6.304 c 16.489,13.741 23.925,16.973 29.744,16.973 5.819,0 11.962,-5.496 11.962,-10.669 l 0,-52.86 c 0.485,-0.97 1.132,-1.939 1.132,-4.202 0,-5.012 -3.233,-6.79 -9.376,-6.79 -5.496,0 -8.082,2.263 -8.082,6.143 0,1.778 0.484,2.91 1.293,4.202 l 0,45.425 c 0,1.131 -2.425,3.072 -3.718,3.072 C 21.339,49.143 15.357,47.041 0,34.108 L 0,0 Z"
             style="fill:#181210;fill-opacity:1;fill-rule:nonzero;stroke:none"
             id="path3488"
             inkscape:connector-curvature="0" /></g><g
           id="g3490"
           transform="translate(2269.8877,532.0655)"><path
             d="m 0,0 c 0,-4.687 -2.748,-8.082 -9.214,-8.082 -3.719,0 -4.526,2.263 -5.335,4.203 -0.808,1.94 -1.939,4.041 -7.597,4.041 -5.497,0 -10.508,-2.91 -15.196,-8.083 -5.496,-5.657 -11.315,-14.71 -11.315,-25.702 0,-10.023 5.173,-15.842 14.872,-15.842 3.718,0 7.112,1.455 10.346,3.557 3.394,2.1 7.435,5.496 9.376,9.698 1.13,4.365 2.1,7.437 7.112,7.437 6.142,0 7.921,-4.365 7.921,-6.79 0,-1.778 -4.688,-11.8 -13.903,-18.59 -7.112,-5.334 -14.548,-8.082 -24.57,-8.082 -16.004,0 -26.026,10.992 -26.026,26.025 0,18.591 7.274,27.319 16.65,37.342 4.688,5.012 15.68,11.477 24.409,11.477 C -9.861,12.609 0,6.951 0,0"
             style="fill:#181210;fill-opacity:1;fill-rule:nonzero;stroke:none"
             id="path3492"
             inkscape:connector-curvature="0" /></g><g
           id="g3494"
           transform="translate(2328.2441,520.5889)"><path
             d="m 0,0 c 0,5.496 -0.809,6.951 -3.557,6.951 -4.525,0 -14.386,-3.072 -23.277,-14.549 l 0,-29.744 c 0.809,-1.132 1.293,-2.587 1.293,-4.526 0,-4.041 -5.657,-6.628 -10.83,-6.628 -4.85,0 -6.628,1.778 -6.628,5.173 0,2.587 0.323,4.365 1.131,5.335 l 0,83.735 c -0.161,1.455 -1.454,3.233 -1.454,4.688 0,5.335 4.364,8.245 10.183,8.245 2.587,0 7.76,-3.234 7.76,-7.275 0,-1.617 -0.808,-3.394 -1.455,-4.849 l 0,-38.151 0.323,0 c 10.184,9.376 21.5,14.388 30.229,14.388 8.406,0 11.315,-5.173 11.315,-16.004 l 0,-44.616 c 0.162,-0.97 1.294,-2.263 1.294,-3.556 0,-3.88 -5.173,-7.113 -9.699,-7.113 -4.85,0 -8.406,2.101 -8.406,5.496 0,1.778 0.485,4.042 1.778,5.335 L 0,0 Z"
             style="fill:#181210;fill-opacity:1;fill-rule:nonzero;stroke:none"
             id="path3496"
             inkscape:connector-curvature="0" /></g></g></g></g></svg>