<?xml version="1.0" encoding="UTF-8" standalone="no"?>
<!-- Created with Inkscape (http://www.inkscape.org/) -->

<svg
   xmlns:dc="http://purl.org/dc/elements/1.1/"
   xmlns:cc="http://creativecommons.org/ns#"
   xmlns:rdf="http://www.w3.org/1999/02/22-rdf-syntax-ns#"
   xmlns:svg="http://www.w3.org/2000/svg"
   xmlns="http://www.w3.org/2000/svg"
   xmlns:xlink="http://www.w3.org/1999/xlink"
   xmlns:sodipodi="http://sodipodi.sourceforge.net/DTD/sodipodi-0.dtd"
   xmlns:inkscape="http://www.inkscape.org/namespaces/inkscape"
   width="600"
   height="200"
   viewBox="0 0 600.00005 199.99999"
   id="svg4193"
   version="1.1"
   inkscape:version="0.91 r13725"
   sodipodi:docname="logoE1.svg">
  <defs
     id="defs4195">
    <linearGradient
       inkscape:collect="always"
       id="linearGradient4812">
      <stop
         style="stop-color:#cccccc;stop-opacity:1;"
         offset="0"
         id="stop4814" />
      <stop
         style="stop-color:#cccccc;stop-opacity:0;"
         offset="1"
         id="stop4816" />
    </linearGradient>
    <linearGradient
       inkscape:collect="always"
       id="linearGradient4804">
      <stop
         style="stop-color:#e6e6e6;stop-opacity:1;"
         offset="0"
         id="stop4806" />
      <stop
         style="stop-color:#e6e6e6;stop-opacity:0;"
         offset="1"
         id="stop4808" />
    </linearGradient>
    <linearGradient
       inkscape:collect="always"
       xlink:href="#linearGradient4804"
       id="linearGradient4810"
       x1="40.714287"
       y1="987.7195"
       x2="120"
       y2="987.7195"
       gradientUnits="userSpaceOnUse" />
    <linearGradient
       inkscape:collect="always"
       xlink:href="#linearGradient4812"
       id="linearGradient4818"
       x1="490.71432"
       y1="987.7195"
       x2="560.00005"
       y2="987.7195"
       gradientUnits="userSpaceOnUse"
       gradientTransform="matrix(1.0002125,0,0,1,-1050.9377,10.832107)" />
  </defs>
  <sodipodi:namedview
     id="base"
     pagecolor="#ffffff"
     bordercolor="#666666"
     borderopacity="1.0"
     inkscape:pageopacity="0.0"
     inkscape:pageshadow="2"
     inkscape:zoom="1.4"
     inkscape:cx="301.57282"
     inkscape:cy="147.32867"
     inkscape:document-units="px"
     inkscape:current-layer="layer1"
     showgrid="false"
     units="px"
     inkscape:window-width="1920"
     inkscape:window-height="1028"
     inkscape:window-x="-8"
     inkscape:window-y="-8"
     inkscape:window-maximized="1">
    <inkscape:grid
       type="xygrid"
       id="grid4759" />
  </sodipodi:namedview>
  <metadata
     id="metadata4198">
    <rdf:RDF>
      <cc:Work
         rdf:about="">
        <dc:format>image/svg+xml</dc:format>
        <dc:type
           rdf:resource="http://purl.org/dc/dcmitype/StillImage" />
        <dc:title></dc:title>
      </cc:Work>
    </rdf:RDF>
  </metadata>
  <g
     inkscape:label="Calque 1"
     inkscape:groupmode="layer"
     id="layer1"
     transform="translate(0,-852.36238)">
    <rect
       style="opacity:0.98999999;fill:url(#linearGradient4810);fill-opacity:1;stroke:none;stroke-width:15;stroke-linecap:butt;stroke-linejoin:miter;stroke-miterlimit:4;stroke-dasharray:none;stroke-opacity:1"
       id="rect4761"
       width="79.285713"
       height="12.142855"
       x="40.714287"
       y="981.64807" />
    <rect
       style="opacity:0.98999999;fill:url(#linearGradient4818);fill-opacity:1;stroke:none;stroke-width:15;stroke-linecap:butt;stroke-linejoin:miter;stroke-miterlimit:4;stroke-dasharray:none;stroke-opacity:1"
       id="rect4761-7"
       width="69.300446"
       height="12.142856"
       x="-560.11908"
       y="992.48016"
       transform="matrix(-0.99978751,0.02061417,0,1,0,0)" />
  </g>
  <g
     inkscape:groupmode="layer"
     id="layer5"
     inkscape:label="Calque 2">
    <path
       style="font-style:normal;font-weight:normal;font-size:40px;line-height:125%;font-family:sans-serif;letter-spacing:0px;word-spacing:0px;fill:#e6e6e6;fill-opacity:1;stroke:none;stroke-width:1px;stroke-linecap:butt;stroke-linejoin:miter;stroke-opacity:1;"
       d="M 336.06641 25.958984 C 315.96641 25.958984 311.66602 39.958203 311.66602 63.158203 C 311.66602 84.658203 317.56641 100.55859 336.06641 100.55859 C 341.26641 100.55859 352.36523 99.657422 359.36523 98.357422 L 359.36523 94.058594 C 359.36523 94.058594 346.56641 94.857422 336.06641 94.857422 C 322.16641 94.857422 317.36523 81.957422 317.36523 63.357422 C 317.36523 37.857421 322.76641 31.658203 336.06641 31.658203 C 345.26641 31.658203 359.26523 32.857422 359.36523 32.857422 L 359.36523 28.458984 C 352.36523 27.158984 341.26641 25.958984 336.06641 25.958984 z M 54.214844 26.757812 C 47.614844 26.557812 41.613281 29.957812 41.613281 39.757812 L 41.613281 87.658203 C 41.613281 98.958203 48.614844 100.65781 55.214844 100.25781 L 85.214844 98.857422 L 85.214844 94.558594 L 55.214844 94.558594 C 51.414844 94.558594 47.414453 94.358203 47.314453 87.658203 L 47.314453 66.757812 L 81.214844 65.958984 L 81.214844 61.558594 L 47.314453 60.757812 L 47.314453 39.757812 C 47.314453 35.457812 48.714844 32.458984 54.214844 32.458984 L 85.214844 32.458984 L 85.214844 28.158203 L 54.214844 26.757812 z M 98.839844 26.757812 L 98.839844 99.958984 L 125.44141 99.958984 C 144.44141 99.958984 151.33984 80.258203 151.33984 63.658203 C 151.33984 48.658203 147.94141 26.757812 125.44141 26.757812 L 98.839844 26.757812 z M 164.85547 26.757812 L 164.85547 99.958984 L 191.45703 99.958984 C 210.45703 99.958984 217.35547 80.258203 217.35547 63.658203 C 217.35547 48.658203 213.95703 26.757812 191.45703 26.757812 L 164.85547 26.757812 z M 221.89453 26.757812 L 245.49414 73.958984 L 245.49414 99.958984 L 251.19336 99.958984 L 251.19336 73.958984 L 276.89453 26.757812 L 270.59375 26.757812 L 248.39453 67.158203 L 228.19336 26.757812 L 221.89453 26.757812 z M 395.08789 26.757812 L 367.98828 99.958984 L 374.88672 99.958984 L 382.38672 77.958984 L 412.98828 77.958984 L 420.28711 99.958984 L 426.98828 99.958984 L 401.08789 26.757812 L 395.08789 26.757812 z M 436.28906 26.757812 L 436.28906 99.958984 L 441.98828 99.958984 L 441.98828 68.058594 C 442.08828 68.158594 461.58867 69.257812 463.38867 69.257812 L 479.08984 99.958984 L 485.18945 99.958984 L 469.58984 69.058594 C 473.88984 68.758594 483.38867 67.058203 483.38867 48.158203 C 483.38867 31.058203 475.18945 26.757812 466.18945 26.757812 L 436.28906 26.757812 z M 497.08203 26.757812 L 497.08203 87.357422 C 497.08203 98.657422 504.08359 99.958984 510.68359 99.958984 L 540.2832 99.958984 L 540.2832 94.257812 L 510.68359 94.257812 C 506.98359 94.257812 502.7832 94.057422 502.7832 87.357422 L 502.7832 26.757812 L 497.08203 26.757812 z M 552.74609 26.757812 L 552.74609 99.958984 L 558.44727 99.958984 L 558.44727 26.757812 L 552.74609 26.757812 z M 104.54102 32.458984 L 125.44141 32.458984 C 138.04141 32.458984 145.64062 41.458593 145.64062 63.558594 C 145.64062 78.758594 139.74141 94.158203 125.44141 94.158203 L 104.54102 94.158203 L 104.54102 32.458984 z M 170.55664 32.458984 L 191.45703 32.458984 C 204.05703 32.458984 211.65625 41.458593 211.65625 63.558594 C 211.65625 78.758594 205.75703 94.158203 191.45703 94.158203 L 170.55664 94.158203 L 170.55664 32.458984 z M 441.98828 32.558594 L 466.18945 32.558594 C 471.68945 32.558594 477.58984 34.258203 477.58984 48.158203 C 477.58984 62.458203 471.98945 63.158203 466.18945 63.158203 L 441.98828 63.158203 L 441.98828 32.558594 z M 397.98828 35.058594 L 410.98828 72.257812 L 384.48828 72.257812 L 397.98828 35.058594 z "
       transform="translate(0,-1.525879e-5)"
       id="flowRoot4742" />
  </g>
  <g
     inkscape:groupmode="layer"
     id="layer6"
     inkscape:label="Calque 3">
    <path
       style="font-style:normal;font-weight:normal;font-size:40px;line-height:125%;font-family:sans-serif;letter-spacing:0px;word-spacing:0px;fill:#e6e6e6;fill-opacity:1;stroke:none;stroke-width:1px;stroke-linecap:butt;stroke-linejoin:miter;stroke-opacity:1"
       d="M 441.15625 121.38281 C 433.19625 121.38281 431.5957 127.70359 431.5957 136.18359 C 431.5957 144.54359 432.83524 151.54359 441.11523 151.18359 C 444.51523 151.10359 446.03547 150.22344 447.35547 149.02344 L 448.83594 150.98438 L 452.875 150.98438 L 452.875 134.46289 C 451.915 134.38289 450.99625 134.34375 450.15625 134.34375 C 447.23625 134.34375 444.87625 134.62375 443.15625 135.34375 L 443.15625 138.86328 L 447.27539 138.86328 L 447.27539 144.14258 C 447.27539 144.14258 444.95633 145.98437 442.23633 145.98438 C 438.07633 145.94438 437.19531 143.90367 437.19531 136.26367 C 437.19531 129.06367 438.07656 126.34375 442.47656 126.34375 C 447.07656 126.34375 452.19555 127.02344 452.43555 127.02344 L 452.43555 122.70312 C 448.19555 121.66313 445.59625 121.38281 441.15625 121.38281 z M 137.02344 121.46289 C 132.54344 121.54289 129.10352 123.22344 129.10352 129.02344 L 129.10352 131.58398 C 129.10352 134.10398 129.62406 139.34375 136.66406 139.34375 L 141.18359 139.34375 C 143.30359 139.34375 143.82227 140.38445 143.82227 142.06445 L 143.82227 143.62305 C 143.82227 145.90305 141.90266 146.14258 140.22266 146.14258 C 136.50266 146.14258 131.62344 145.86312 130.02344 145.70312 L 130.02344 150.14258 C 133.02344 151.02258 136.30273 151.30273 141.30273 151.30273 C 145.26273 151.30273 149.42383 150.10383 149.42383 143.42383 L 149.42383 141.50391 C 149.42383 138.26391 148.22391 133.74414 142.50391 133.74414 L 137.86328 133.74414 C 135.58328 133.74414 134.70312 133.2243 134.70312 130.9043 L 134.70312 129.46289 C 134.70312 126.74289 136.10398 126.58305 138.58398 126.62305 C 140.02398 126.62305 145.78375 126.82344 148.34375 127.02344 L 148.34375 122.62305 C 146.02375 121.94305 141.22344 121.38289 137.02344 121.46289 z M 406.47656 121.46289 C 401.99656 121.54289 398.55664 123.22344 398.55664 129.02344 L 398.55664 131.58398 C 398.55664 134.10398 399.07719 139.34375 406.11719 139.34375 L 410.63672 139.34375 C 412.75672 139.34375 413.27539 140.38445 413.27539 142.06445 L 413.27539 143.62305 C 413.27539 145.90305 411.35578 146.14258 409.67578 146.14258 C 405.95578 146.14258 401.07656 145.86312 399.47656 145.70312 L 399.47656 150.14258 C 402.47656 151.02258 405.75586 151.30273 410.75586 151.30273 C 414.71586 151.30273 418.87695 150.10383 418.87695 143.42383 L 418.87695 141.50391 C 418.87695 138.26391 417.67703 133.74414 411.95703 133.74414 L 407.31641 133.74414 C 405.03641 133.74414 404.15625 133.2243 404.15625 130.9043 L 404.15625 129.46289 C 404.15625 126.74289 405.55711 126.58305 408.03711 126.62305 C 409.47711 126.62305 415.23688 126.82344 417.79688 127.02344 L 417.79688 122.62305 C 415.47688 121.94305 410.67656 121.38289 406.47656 121.46289 z M 322.66406 121.52539 C 321.62719 121.53539 320.52008 121.6132 319.33008 121.7832 C 316.13008 122.2632 312.96891 126.58328 316.12891 130.86328 L 318.20898 133.82422 L 315.41016 136.22266 C 311.97016 139.22266 310.80844 143.74313 313.64844 147.70312 C 316.60844 152.10312 322.77023 151.90391 325.49023 149.50391 L 328.12891 147.14258 L 330.92969 150.98438 L 337.5293 150.98438 L 332.04883 143.70312 L 333.57031 141.94336 L 335.96875 137.62305 L 334.00977 135.26367 L 329.12891 139.82422 L 322.41016 130.58398 C 320.41016 127.86398 320.76859 126.66406 323.80859 126.66406 L 330.41016 126.66406 L 330.41016 122.58398 C 328.25016 122.07398 325.77469 121.49539 322.66406 121.52539 z M 153.13672 121.70312 L 153.13672 150.98438 L 158.73633 150.98438 L 158.73633 121.70312 L 153.13672 121.70312 z M 161.74219 121.70312 L 161.74219 126.86328 L 169.62305 126.86328 L 169.62305 150.98438 L 175.22266 150.98438 L 175.22266 126.86328 L 183.38281 126.86328 L 183.38281 121.70312 L 161.74219 121.70312 z M 192.15039 121.70312 C 189.35039 121.66313 185.79102 122.7032 185.79102 127.7832 L 185.79102 145.26367 C 185.79102 150.66367 189.91078 151.22352 192.55078 151.10352 C 192.55078 151.10352 202.75125 150.74383 205.03125 150.42383 L 205.03125 145.86328 L 193.87109 145.86328 C 192.71109 145.86328 191.39062 145.9032 191.39062 143.7832 L 191.39062 139.22266 L 203.19141 138.82422 L 203.19141 134.22266 L 191.39062 133.7832 L 191.39062 129.22266 C 191.39062 128.14266 191.3907 126.98438 193.4707 126.98438 L 205.03125 126.98438 L 205.03125 122.34375 C 202.43125 122.02375 192.15039 121.70312 192.15039 121.70312 z M 217.48828 121.70312 L 226.64844 150.98438 L 233.12695 150.98438 L 236.60742 139.02344 L 240.52734 150.98438 L 247.00781 150.98438 L 255.08789 121.70312 L 249.12695 121.70312 L 243.76758 143.54297 L 239.12695 129.26367 L 241.16797 121.70312 L 235.16797 121.70312 L 229.92773 143.46289 L 223.4082 121.70312 L 217.48828 121.70312 z M 262.93164 121.70312 C 260.13164 121.66313 256.57227 122.7032 256.57227 127.7832 L 256.57227 145.26367 C 256.57227 150.66367 260.69203 151.22352 263.33203 151.10352 C 263.33203 151.10352 273.5325 150.74383 275.8125 150.42383 L 275.8125 145.86328 L 264.65234 145.86328 C 263.49234 145.86328 262.17188 145.9032 262.17188 143.7832 L 262.17188 139.22266 L 273.97266 138.82422 L 273.97266 134.22266 L 262.17188 133.7832 L 262.17188 129.22266 C 262.17188 128.14266 262.17195 126.98438 264.25195 126.98438 L 275.8125 126.98438 L 275.8125 122.34375 C 273.2125 122.02375 262.93164 121.70312 262.93164 121.70312 z M 279.30859 121.70312 L 279.30859 150.98438 L 291.50781 150.98438 C 297.66781 150.98438 300.10937 147.86281 300.10938 142.38281 C 300.10938 138.66281 298.06891 136.2632 295.62891 135.7832 C 298.50891 135.2632 299.66797 132.22297 299.66797 129.54297 C 299.66797 125.34297 297.46867 121.70312 291.38867 121.70312 L 279.30859 121.70312 z M 350.63672 121.70312 L 350.63672 150.98438 L 363.07617 150.98438 C 370.23617 150.98438 373.23633 145.10289 373.23633 136.46289 C 373.23633 129.22289 371.51617 121.70312 363.07617 121.70312 L 350.63672 121.70312 z M 382.61914 121.70312 C 379.81914 121.66313 376.25977 122.7032 376.25977 127.7832 L 376.25977 145.26367 C 376.25977 150.66367 380.37953 151.22352 383.01953 151.10352 C 383.01953 151.10352 393.22 150.74383 395.5 150.42383 L 395.5 145.86328 L 384.33984 145.86328 C 383.17984 145.86328 381.85938 145.9032 381.85938 143.7832 L 381.85938 139.22266 L 393.66016 138.82422 L 393.66016 134.22266 L 381.85938 133.7832 L 381.85938 129.22266 C 381.85938 128.14266 381.85945 126.98438 383.93945 126.98438 L 395.5 126.98438 L 395.5 122.34375 C 392.9 122.02375 382.61914 121.70312 382.61914 121.70312 z M 422.58984 121.70312 L 422.58984 150.98438 L 428.18945 150.98438 L 428.18945 121.70312 L 422.58984 121.70312 z M 456.88672 121.70312 L 456.88672 150.98438 L 462.52734 150.98438 L 462.52734 132.30273 L 474.20703 150.98438 L 479.80664 150.98438 L 479.80664 121.70312 L 474.20703 121.70312 L 474.20703 140.62305 L 462.56641 121.70312 L 456.88672 121.70312 z M 284.94922 126.66406 L 291.06836 126.66406 C 292.46836 126.66406 294.14844 127.30344 294.14844 130.02344 C 294.14844 132.10344 293.06836 133.30273 291.06836 133.30273 L 284.94922 133.30273 L 284.94922 126.66406 z M 356.23633 126.66406 L 362.63672 126.66406 C 365.75672 126.66406 367.63672 128.62383 367.63672 136.42383 C 367.63672 142.30383 366.27672 146.02344 362.63672 146.02344 L 356.23633 146.02344 L 356.23633 126.66406 z M 320.96875 137.82422 L 325.00977 143.18359 L 323.00977 145.10352 C 321.28977 146.78352 319.29 145.86297 318.25 144.54297 C 317.13 143.14297 316.76969 141.46305 318.92969 139.62305 L 320.96875 137.82422 z M 284.94922 138.02344 L 291.26953 138.02344 C 293.66953 138.02344 294.50781 139.98258 294.50781 142.14258 C 294.50781 145.26258 292.98953 146.06445 291.26953 146.06445 L 284.94922 146.06445 L 284.94922 138.02344 z "
       transform="translate(0,-1.525879e-5)"
       id="flowRoot4751" />
  </g>
</svg>
