<?xml version="1.0" encoding="UTF-8" standalone="no"?>
<svg
   xmlns:dc="http://purl.org/dc/elements/1.1/"
   xmlns:cc="http://creativecommons.org/ns#"
   xmlns:rdf="http://www.w3.org/1999/02/22-rdf-syntax-ns#"
   xmlns:svg="http://www.w3.org/2000/svg"
   xmlns="http://www.w3.org/2000/svg"
   version="1.1"
   id="svg2"
   viewBox="0 0 574.8711 135.50339"
   height="135.50339"
   width="574.87109">
  <defs
     id="defs4" />
  <metadata
     id="metadata7">
    <rdf:RDF>
      <cc:Work
         rdf:about="">
        <dc:format>image/svg+xml</dc:format>
        <dc:type
           rdf:resource="http://purl.org/dc/dcmitype/StillImage" />
        <dc:title></dc:title>
      </cc:Work>
    </rdf:RDF>
  </metadata>
  <g
     transform="translate(-17.40625,-783.95591)"
     id="layer1">
    <path
       id="flowRoot4136"
       transform="translate(0,652.36216)"
       d="m 360.24414,141.59375 c -5.20115,0 -9.55797,0.9128 -13.07226,2.74023 -3.5143,1.75715 -6.39539,4.14763 -8.64454,7.16993 -2.24914,2.952 -4.00634,6.39602 -5.27148,10.33203 -1.19486,3.93601 -2.10962,8.04654 -2.74219,12.33398 -0.56228,4.28744 -0.98448,8.64621 -1.26562,13.07422 -0.28115,4.42801 -0.59584,8.60891 -0.94727,12.54492 l 0,0.84375 0,1.16016 0,1.26562 0,0.63086 c -0.21086,0.42172 -0.56269,0.73836 -1.05469,0.94922 -0.492,0.14057 -0.98456,0.31649 -1.47656,0.52735 -0.42171,0.14057 -0.80873,0.35166 -1.16015,0.63281 -0.35143,0.28114 -0.52735,0.73852 -0.52735,1.37109 l 0,0.31641 c 0,0.0703 0.0352,0.17583 0.10547,0.3164 0.14057,0.28115 0.45722,0.77176 0.94922,1.47461 0.492,0.63258 1.01974,1.30105 1.58203,2.00391 0.63257,0.70286 1.19355,1.37133 1.68555,2.00391 0.56228,0.63257 0.9493,1.05281 1.16015,1.26367 -0.28114,2.952 -0.42187,6.04615 -0.42187,9.27929 0.0703,3.16287 0.28138,6.25506 0.63281,9.27735 0.35143,3.02229 0.80881,5.83302 1.37109,8.43359 0.63258,2.53029 1.4066,4.63931 2.32032,6.32617 0.91371,1.61658 1.93206,2.63493 3.05664,3.05665 1.12457,0.42171 2.3892,0.001 3.79492,-1.26368 l 0,-1.37109 c 0,-2.60058 -0.24628,-5.20216 -0.73828,-7.80273 -0.42172,-2.67087 -0.91232,-5.34086 -1.47461,-8.01172 -0.492,-2.67087 -0.94938,-5.378 -1.37109,-8.11914 -0.42172,-2.74115 -0.63282,-5.48151 -0.63282,-8.22266 l 0,-1.05469 c 0.0703,-0.492 0.10547,-0.94742 0.10547,-1.36914 l 0,-1.26562 c 0.0703,-0.35143 0.10547,-0.56253 0.10547,-0.63282 l 1.37109,-1.26562 c 0.35143,-0.35143 1.29942,-0.59771 2.84571,-0.73828 1.61657,-0.21086 3.37376,-0.35159 5.27148,-0.42188 1.96801,-0.14057 3.83075,-0.21093 5.58789,-0.21093 1.82743,-0.0703 3.16243,-0.10547 4.00586,-0.10547 2.81144,0 5.62411,0.21109 8.43555,0.63281 2.81143,0.35143 5.58697,0.73844 8.32812,1.16016 2.81144,0.35142 5.58698,0.5977 8.32813,0.73828 2.74115,0.14057 5.44828,-0.0705 8.11914,-0.63282 0.77314,2.67087 1.2657,5.55196 1.47656,8.64454 0.21086,3.02229 0.31445,5.83497 0.31445,8.43554 0,1.68686 -0.17396,3.37369 -0.52539,5.06055 -0.28114,1.61657 -0.59779,3.26822 -0.94921,4.95508 l -1.05469,4.84961 c -0.28115,1.61657 -0.42188,3.23303 -0.42188,4.84961 0,1.05428 0.17592,1.89672 0.52735,2.52929 0.35143,0.56229 1.1235,0.84375 2.31836,0.84375 1.40571,0 2.6723,-0.42024 3.79687,-1.26367 1.19486,-0.91372 2.17803,-1.89884 2.95117,-2.95312 0.35143,-1.89772 0.59771,-3.58455 0.73828,-5.06055 0.21086,-1.54629 0.35159,-2.98684 0.42188,-4.32227 0.14057,-1.40571 0.21094,-2.81108 0.21094,-4.21679 0.0703,-1.47601 0.10546,-3.09247 0.10546,-4.84961 0,-2.38972 -0.10554,-5.44868 -0.3164,-9.17383 -0.14057,-3.72515 -0.45722,-7.83569 -0.94922,-12.33399 -0.492,-4.49829 -1.19371,-9.24212 -2.10742,-14.23242 -0.84343,-4.99029 -1.9341,-9.91199 -3.26953,-14.76172 -1.33543,-4.84972 -2.95189,-9.45282 -4.84961,-13.81054 -1.89772,-4.42801 -4.14747,-8.29422 -6.74805,-11.59766 -2.60058,-3.37372 -5.55203,-6.04371 -8.85547,-8.01172 -3.30343,-1.968 -7.02891,-2.95117 -11.17578,-2.95117 z m -3.05664,6.74609 c 3.65486,0 6.92297,0.87958 9.80469,2.63672 2.952,1.68686 5.55163,3.93466 7.80078,6.7461 2.31943,2.81143 4.28772,6.01112 5.9043,9.5957 1.61657,3.51429 2.95352,7.13227 4.00781,10.85742 1.05429,3.72515 1.82636,7.38027 2.31836,10.96484 0.492,3.5143 0.73828,6.64167 0.73828,9.38282 -0.14057,1.68686 -0.35167,2.98863 -0.63281,3.90234 -0.28115,0.91372 -0.59779,1.58024 -0.94922,2.00195 -0.28115,0.42172 -0.63297,0.668 -1.05469,0.73829 -0.35143,0.0703 -0.66612,0.10546 -0.94727,0.10546 l -49.44726,-2.8457 0,-8.75195 c 0.0703,-3.58458 0.28138,-7.37847 0.63281,-11.38477 0.35143,-4.00629 0.94954,-8.01324 1.79297,-12.01953 0.91372,-4.07658 2.17835,-7.73169 3.79492,-10.96484 1.68686,-3.23315 3.83107,-5.86796 6.43164,-7.90625 2.67086,-2.03829 5.93897,-3.0586 9.80469,-3.0586 z m 81.39062,12.86328 c -2.60057,0 -4.95587,0.0352 -7.06445,0.10547 -2.10857,0.0703 -4.21564,0.21102 -6.32422,0.42188 -2.03829,0.21086 -4.21767,0.52555 -6.53711,0.94726 -2.31943,0.35143 -4.95424,0.80881 -7.90625,1.3711 -1.05428,0.56228 -2.18014,1.23076 -3.375,2.0039 -1.12457,0.77315 -2.14292,1.65077 -3.05664,2.63477 -0.91371,0.91372 -1.65255,1.9692 -2.21484,3.16406 -0.63257,1.12458 -0.94922,2.35402 -0.94922,3.68946 0,0.63257 0.14073,1.40659 0.42188,2.32031 0.28114,0.91371 0.66815,1.79133 1.16015,2.63476 0.492,0.77315 1.05493,1.44162 1.6875,2.00391 0.70286,0.56229 1.47493,0.8418 2.31836,0.8418 0,-3.79544 0.84439,-6.67653 2.53125,-8.64453 1.68686,-1.96801 3.79588,-3.33819 6.32617,-4.11133 2.60058,-0.77315 5.44649,-1.16016 8.53907,-1.16016 3.09257,-0.0703 6.04403,-0.10547 8.85546,-0.10547 3.86573,0 7.48566,0.14073 10.85938,0.42188 3.37372,0.28114 6.57146,0.87925 9.59375,1.79297 3.02229,0.91371 5.87015,2.28389 8.54102,4.11132 2.74114,1.82744 5.44632,4.2531 8.11718,7.2754 l 0,0.63085 c 0.0703,0.28115 0.10547,0.49225 0.10547,0.63282 0,1.82743 -0.80921,3.47907 -2.42578,4.95507 -1.61657,1.47601 -3.72364,2.81296 -6.32422,4.00782 -2.53029,1.12457 -5.37815,2.10774 -8.54101,2.95117 -3.09258,0.84343 -6.14959,1.58227 -9.17188,2.21484 -2.95201,0.56229 -5.72755,1.01771 -8.32812,1.36914 -2.5303,0.35143 -4.4634,0.59771 -5.79883,0.73829 -0.14057,-0.42172 -0.35167,-1.12342 -0.63281,-2.10743 -0.28115,-1.05428 -0.56261,-2.14495 -0.84376,-3.26953 -0.28114,-1.19486 -0.5626,-2.28357 -0.84374,-3.26758 -0.21086,-1.05428 -0.35159,-1.79312 -0.42188,-2.21484 0.21086,-0.984 0.24604,-2.07272 0.10547,-3.26758 -0.14057,-1.26514 -0.45527,-2.35386 -0.94727,-3.26758 -0.492,-0.984 -1.19566,-1.65247 -2.10937,-2.0039 -0.84343,-0.42172 -1.8266,-0.21062 -2.95117,0.63281 -0.56229,1.968 -0.84375,4.53245 -0.84375,7.69531 0,3.09258 0.17591,6.5366 0.52734,10.33203 0.42172,3.72515 0.94751,7.62655 1.58008,11.70313 0.70286,4.07658 1.4417,8.08352 2.21484,12.01953 0.84343,3.86572 1.68587,7.55602 2.5293,11.07031 0.84343,3.44401 1.61745,6.39547 2.32031,8.85547 0.77315,2.46001 1.40644,4.32275 1.89844,5.58789 0.56229,1.26515 0.94734,1.61698 1.1582,1.05469 1.61658,-0.42172 2.53133,-1.44202 2.74219,-3.05859 0.28114,-1.61658 0.17559,-3.7256 -0.31641,-6.32618 -0.492,-2.60057 -1.19566,-5.65758 -2.10937,-9.17187 -0.84343,-3.51429 -1.58032,-7.38051 -2.21289,-11.59766 2.10857,2.24915 4.67302,4.88591 7.69531,7.90821 3.02229,3.02229 6.22003,6.07929 9.59375,9.17187 3.37372,3.09258 6.78256,6.07922 10.22656,8.96094 3.5143,2.81143 6.7824,5.16673 9.80469,7.06445 3.09258,1.89772 5.79971,3.16235 8.11914,3.79492 2.31943,0.70286 4.00626,0.4214 5.06055,-0.84375 1.33543,-0.91371 1.72244,-1.79133 1.16015,-2.63476 -0.56228,-0.77315 -1.86405,-1.79345 -3.90234,-3.0586 -2.03829,-1.26514 -4.70828,-2.84642 -8.01172,-4.74414 -3.23315,-1.968 -6.88826,-4.49726 -10.96484,-7.58984 -4.0063,-3.09258 -8.32793,-6.88842 -12.9668,-11.38672 -4.56858,-4.56858 -9.20882,-10.08644 -13.91797,-16.55273 1.89772,-0.63258 4.35857,-1.22873 7.38086,-1.79102 3.02229,-0.63257 6.22003,-1.33623 9.59375,-2.10937 3.44401,-0.84343 6.88803,-1.75624 10.33203,-2.74024 3.44401,-1.05429 6.5362,-2.32087 9.27735,-3.79687 2.81143,-1.54629 5.06118,-3.33867 6.74804,-5.37696 1.75715,-2.03829 2.63477,-4.42682 2.63477,-7.16797 0,-3.09257 -0.63134,-5.87007 -1.89649,-8.33007 -1.19486,-2.53029 -2.8465,-4.74291 -4.95507,-6.64063 -2.10858,-1.89772 -4.53425,-3.51418 -7.27539,-4.84961 -2.67087,-1.40572 -5.48159,-2.53157 -8.4336,-3.375 -2.952,-0.84343 -5.90541,-1.47477 -8.85742,-1.89648 -2.95201,-0.42172 -5.72755,-0.63282 -8.32813,-0.63282 z m 48.18165,1.79102 c 0,0.42172 0.0352,0.98464 0.10546,1.6875 0.0703,0.63257 0.2462,1.30105 0.52735,2.00391 0.28114,0.63257 0.63102,1.15836 1.05273,1.58007 0.492,0.42172 1.16048,0.56245 2.00391,0.42188 6.32573,0.984 12.96748,1.93394 19.92578,2.84766 6.9583,0.91371 13.74079,1.36914 20.34766,1.36914 0.42171,5.20115 0.77354,10.26358 1.05468,15.18359 0.35143,4.92001 0.73844,9.80457 1.16016,14.6543 0.42172,4.77944 0.87909,9.59363 1.37109,14.44336 0.56229,4.84972 1.22881,9.83983 2.00196,14.9707 0.21085,1.33543 0.42195,3.09262 0.63281,5.27148 0.21086,2.10858 0.59787,4.18242 1.16016,6.22071 0.56228,2.03829 1.36954,3.79548 2.42382,5.27148 1.05429,1.476 2.53002,2.21289 4.42774,2.21289 l 1.79297,0 c 0.77314,0 1.4768,-0.0704 2.10937,-0.21093 0.70286,-0.14058 1.26383,-0.38686 1.68555,-0.73829 0.492,-0.42171 0.73828,-1.01787 0.73828,-1.79101 0,-1.12458 -0.24628,-2.25043 -0.73828,-3.375 -0.492,-1.12458 -1.05298,-2.21329 -1.68555,-3.26758 l -1.89844,-3.37305 c -0.56228,-1.19486 -0.94929,-2.39107 -1.16015,-3.58593 -0.84343,-4.70916 -1.72105,-9.73445 -2.63477,-15.07618 -0.84343,-5.34172 -1.65263,-10.68366 -2.42578,-16.02539 -0.70286,-5.41201 -1.29901,-10.68163 -1.79101,-15.8125 -0.49201,-5.13086 -0.73829,-9.87665 -0.73829,-14.23437 3.65487,-1.05429 7.23962,-1.40417 10.75391,-1.05274 3.51429,0.28115 6.95831,0.80694 10.33203,1.58008 3.37372,0.77315 6.74737,1.61754 10.1211,2.53125 3.37372,0.84343 6.78255,1.36922 10.22656,1.58008 1.19486,0 1.93175,-0.45542 2.21289,-1.36914 0.28114,-0.984 0.42187,-1.96912 0.42187,-2.95313 0,-1.33543 -1.22944,-2.49451 -3.68945,-3.47851 -2.38972,-1.05429 -5.62264,-1.96904 -9.69922,-2.74219 -4.00629,-0.77314 -8.64457,-1.40448 -13.91601,-1.89648 -5.27144,-0.56229 -10.71893,-1.01967 -16.3418,-1.3711 -5.62287,-0.35143 -11.24627,-0.63289 -16.86914,-0.84375 -5.55258,-0.21085 -10.71861,-0.35159 -15.49805,-0.42187 -4.70915,-0.0703 -8.78646,-0.10547 -12.23047,-0.10547 -3.444,-0.0703 -5.86772,-0.10547 -7.27343,-0.10547 z m -456.507817,0.10547 c -1.897718,0 -2.845703,0.94994 -2.845703,2.84766 0,1.75714 0.351829,3.3736 1.054688,4.84961 0.773144,1.476 1.580397,2.95173 2.423828,4.42773 0.84343,1.40572 1.617454,2.88145 2.320312,4.42773 0.773144,1.47601 1.160156,3.16283 1.160156,5.06055 0,6.18516 -0.281463,12.30112 -0.84375,18.3457 -0.492001,5.9743 -0.738281,12.05313 -0.738281,18.23829 l 0,20.13671 c 0.210858,1.26515 0.562687,2.52978 1.054688,3.79493 0.562286,1.19486 1.580637,1.79296 3.05664,1.79296 0.421715,0 0.879093,-0.0352 1.371094,-0.10546 0.562287,-0.14058 1.054847,-0.31649 1.476563,-0.52735 0.492,-0.21086 0.912242,-0.49232 1.263671,-0.84375 0.35143,-0.42171 0.527344,-0.91232 0.527344,-1.47461 l 0.105469,-47.02148 c 0,-0.56229 -0.03518,-1.26595 -0.105469,-2.10938 0,-0.84343 0.03518,-1.65068 0.105469,-2.42383 0.07029,-0.77314 0.175834,-1.44161 0.316406,-2.0039 0.140572,-0.56229 0.422035,-0.84375 0.84375,-0.84375 5.482297,6.81773 11.000152,10.22656 16.552734,10.22656 3.795436,0 7.345003,-0.45738 10.648438,-1.37109 3.373721,-0.984 6.747373,-2.38937 10.121094,-4.2168 1.054288,0.56229 1.826358,1.47704 2.318359,2.74219 0.562287,1.26514 0.949299,2.67051 1.160156,4.21679 0.210858,1.47601 0.316407,2.95174 0.316407,4.42774 0,1.40572 0.07036,2.5648 0.210937,3.47852 0.07029,0.984 0.211018,2.49686 0.421875,4.53515 0.210858,2.03829 0.457138,4.35646 0.738281,6.95703 0.281144,2.53029 0.562607,5.23742 0.84375,8.11914 0.281144,2.81144 0.560654,5.51661 0.841797,8.11719 0.281144,2.53029 0.527424,4.81523 0.738282,6.85352 0.210857,2.03829 0.386772,3.5492 0.527343,4.5332 0.421715,1.54629 1.125373,2.45909 2.109375,2.74023 0.984002,0.21086 2.072719,0.31641 3.267578,0.31641 0.562287,0 1.090031,-0.0352 1.582032,-0.10547 0.492001,0 0.914195,-0.0704 1.265625,-0.21094 0.351429,-0.21085 0.630939,-0.5275 0.841797,-0.94922 0.210857,-0.42171 0.316406,-1.01787 0.316406,-1.79101 0,-4.70915 -0.351829,-9.4178 -1.054688,-14.12695 -0.702858,-4.70916 -1.510112,-9.41976 -2.423828,-14.12891 -0.84343,-4.70915 -1.617454,-9.4178 -2.320312,-14.12695 -0.702859,-4.70916 -1.052735,-9.45299 -1.052735,-14.23242 0,-3.65487 0.244327,-7.09889 0.736328,-10.33204 0.562287,-3.23315 0.84375,-6.6068 0.84375,-10.12109 0,-0.42172 -0.03518,-1.09019 -0.105468,-2.00391 0,-0.984 -0.140732,-1.93198 -0.421875,-2.8457 -0.281144,-0.984 -0.701385,-1.79321 -1.263672,-2.42578 -0.492001,-0.63257 -1.266025,-0.87885 -2.320313,-0.73828 -1.335431,-0.28115 -2.424148,0.2466 -3.267578,1.58203 -0.84343,1.26514 -1.652637,2.95197 -2.425781,5.06055 -0.773144,2.10857 -1.650764,4.42869 -2.634766,6.95898 -0.913716,2.46001 -2.1803,4.74299 -3.796875,6.85156 -1.546288,2.10858 -3.547807,3.83059 -6.007812,5.16602 -2.460005,1.33543 -5.58933,1.89836 -9.384766,1.6875 -3.022292,0 -5.551554,-0.66848 -7.589844,-2.00391 -1.968003,-1.40571 -3.725195,-3.09254 -5.271484,-5.06054 -1.476003,-2.03829 -2.811,-4.25091 -4.005859,-6.64063 -1.124574,-2.38972 -2.320793,-4.5691 -3.585938,-6.53711 -1.194859,-2.03829 -2.600222,-3.72511 -4.216797,-5.06055 -1.546288,-1.40571 -3.479395,-2.10937 -5.798828,-2.10937 z m 76.646487,1.26562 c -1.05429,0 -1.89673,0.17592 -2.5293,0.52735 -0.63257,0.35143 -0.94922,1.09027 -0.94922,2.21484 0,1.476 0.10555,2.63509 0.31641,3.47852 0.28114,0.84343 0.66815,1.5119 1.16015,2.0039 0.56229,0.42172 1.29918,0.70123 2.2129,0.8418 0.91371,0.14057 2.07475,0.21094 3.48046,0.21094 l 0.73828,0 c 1.47601,-0.21086 2.17771,-0.80702 2.10743,-1.79102 -0.0703,-1.05429 -0.49248,-2.14496 -1.26563,-3.26953 -0.70286,-1.12457 -1.61566,-2.10774 -2.74023,-2.95117 -1.05429,-0.91372 -1.89868,-1.33591 -2.53125,-1.26563 z m 117.44922,0.21094 c -2.81144,0 -5.8704,0.28147 -9.17383,0.84375 -3.30344,0.56229 -6.39563,1.54546 -9.27735,2.95117 -2.88172,1.33543 -5.30543,3.16299 -7.27343,5.48243 -1.89772,2.24914 -2.84766,5.13219 -2.84766,8.64648 0,1.68686 0.28146,3.40887 0.84375,5.16602 0.56229,1.68686 1.33631,3.30332 2.32031,4.8496 0.98401,1.47601 2.14309,2.84619 3.47852,4.11133 1.33543,1.26515 2.77598,2.31868 4.32226,3.16211 l 41.85547,22.87891 c 1.40572,0.77314 2.49444,1.51003 3.26758,2.21289 0.77315,0.70286 1.33607,1.47688 1.6875,2.32031 0.35143,0.77315 0.56253,1.68595 0.63281,2.74024 0.0703,0.984 0.10547,2.14503 0.10547,3.48047 0.14057,2.88171 -0.77418,5.05915 -2.74218,6.53515 -1.96801,1.40572 -4.35654,2.42602 -7.16797,3.05859 -2.81144,0.56229 -5.72967,0.87894 -8.75196,0.94922 -3.02229,0.0703 -5.48119,0.14066 -7.3789,0.21094 -5.55259,-0.35143 -10.82416,-0.84399 -15.81446,-1.47656 -4.92001,-0.63257 -9.27683,-1.86202 -13.07226,-3.68945 -3.72515,-1.89772 -6.67856,-4.60485 -8.85742,-8.11915 -2.17887,-3.51429 -3.26758,-8.32849 -3.26758,-14.44335 -1.05429,0 -2.03941,0.35182 -2.95313,1.05468 -0.91371,0.63258 -1.72097,1.43983 -2.42382,2.42383 -0.63258,0.984 -1.16032,2.03949 -1.58204,3.16406 -0.35143,1.05429 -0.52734,2.03746 -0.52734,2.95118 0.984,3.72515 2.88193,7.06361 5.69336,10.01562 2.81143,2.95201 6.18509,5.5184 10.12109,7.69727 3.93601,2.17886 8.29478,3.93605 13.07422,5.27148 4.77944,1.33543 9.59364,2.21305 14.44336,2.63477 4.84973,0.492 9.59356,0.52718 14.23242,0.10546 4.63887,-0.42171 8.82173,-1.29933 12.54688,-2.63476 3.72515,-1.40572 6.78215,-3.30364 9.17187,-5.69336 2.46001,-2.38972 3.93574,-5.27276 4.42774,-8.64648 0.42171,-3.37373 -0.14121,-6.39555 -1.6875,-9.06641 -1.47601,-2.74115 -3.61826,-5.27041 -6.42969,-7.58984 -2.74115,-2.31944 -5.97407,-4.46364 -9.69922,-6.43165 -3.65486,-1.968 -7.45071,-3.86592 -11.38672,-5.69335 -3.86572,-1.82744 -7.69675,-3.61981 -11.49219,-5.37696 -3.79543,-1.75714 -7.20427,-3.5847 -10.22656,-5.48242 -3.02229,-1.89772 -5.44796,-3.90119 -7.27539,-6.00977 -1.82743,-2.10857 -2.74023,-4.42674 -2.74023,-6.95703 0,-2.60057 0.94798,-4.63923 2.8457,-6.11523 1.968,-1.476 4.28812,-2.56667 6.95898,-3.26953 2.74115,-0.70286 5.5167,-1.1231 8.32813,-1.26367 2.81143,-0.21086 5.09637,-0.31641 6.85352,-0.31641 1.89771,-0.21086 3.72527,-0.0349 5.48242,0.52734 1.82743,0.56229 3.54944,1.29918 5.16601,2.21289 1.61658,0.91372 3.16267,1.86366 4.63868,2.84766 1.476,0.984 2.91654,1.86162 4.32226,2.63477 1.476,0.70285 2.88137,1.19542 4.2168,1.47656 1.33543,0.21086 2.67238,-0.0354 4.00781,-0.73828 0,-2.03829 -0.59811,-3.83067 -1.79297,-5.37696 -1.12457,-1.54628 -2.6003,-2.88128 -4.42773,-4.00585 -1.82744,-1.19486 -3.90127,-2.17999 -6.22071,-2.95313 -2.24914,-0.77314 -4.53408,-1.40448 -6.85351,-1.89648 -2.31943,-0.49201 -4.53205,-0.84383 -6.64063,-1.05469 -2.03829,-0.21086 -3.72511,-0.31641 -5.06054,-0.31641 z m -86.01758,9.20508 c -0.71165,0.0132 -1.38305,0.60005 -2.01563,1.75977 -0.77314,1.54628 -1.4768,3.79604 -2.10937,6.74804 -0.63257,2.88172 -1.19355,6.29056 -1.68555,10.22656 -0.492,3.86573 -0.91419,7.9059 -1.26562,12.12305 -0.35143,4.14687 -0.66808,8.29454 -0.94922,12.44141 -0.21086,4.14686 -0.42196,7.87234 -0.63281,11.17578 0,4.63887 0.70365,8.46794 2.10937,11.49023 1.40572,2.95201 3.37401,5.30731 5.9043,7.06446 2.53029,1.68686 5.58729,2.88112 9.17187,3.58398 3.58458,0.63257 7.55439,0.94922 11.91211,0.94922 0.35143,0 1.01991,-0.0352 2.00391,-0.10547 0.984,0 2.00235,-0.0352 3.05664,-0.10547 1.05429,0 2.07459,-0.0352 3.05859,-0.10547 l 2.00195,0 c 1.68687,-0.35143 3.02382,-0.80685 4.00782,-1.36914 1.05429,-0.56228 1.58008,-1.68814 1.58008,-3.375 0,-0.492 -0.0704,-1.15852 -0.21094,-2.00195 -0.0703,-0.84343 -0.52571,-1.30081 -1.36914,-1.37109 l -28.25586,-2.63672 c -1.05429,-0.0703 -2.03746,-0.45535 -2.95117,-1.15821 -0.84343,-0.70285 -1.54709,-1.51206 -2.10938,-2.42578 -0.56229,-0.984 -1.01966,-2.00235 -1.37109,-3.05664 -0.28115,-1.05429 -0.42188,-2.03941 -0.42188,-2.95312 -0.21086,-3.37372 -0.14049,-7.0992 0.21094,-11.17578 0.35143,-4.07658 0.77362,-8.18712 1.26562,-12.33399 0.56229,-4.14686 1.12522,-8.18899 1.6875,-12.125 0.56229,-3.93601 0.91412,-7.45039 1.05469,-10.54297 0.14057,-3.09257 -1.6e-4,-5.58665 -0.42187,-7.48437 -0.35143,-1.89772 -1.19582,-2.91802 -2.53125,-3.0586 -0.246,-0.123 -0.4874,-0.18212 -0.72461,-0.17773 z m -25,13.56836 c -2.17886,0 -3.05648,1.44055 -2.63477,4.32227 l 0,2.21289 c 0,0.984 -0.0352,2.03948 -0.10547,3.16406 l 0,3.26758 0,2.10937 c 0,1.05429 0.0352,3.02258 0.10547,5.9043 0.14057,2.81143 0.31649,6.00917 0.52735,9.59375 0.28114,3.58458 0.63102,7.34524 1.05273,11.28125 0.492,3.93601 1.05493,7.5188 1.6875,10.75195 0.63257,3.23315 1.4066,5.9051 2.32031,8.01367 0.91372,2.10858 1.96725,3.16211 3.16211,3.16211 1.61658,0 2.81084,-0.66652 3.58399,-2.00195 0.84343,-1.33543 1.26562,-2.6372 1.26562,-3.90234 0,-4.84973 -0.42219,-9.52319 -1.26562,-14.02149 -0.77315,-4.49829 -1.61558,-8.96066 -2.5293,-13.38867 -0.91372,-4.42801 -1.72292,-8.89233 -2.42578,-13.39063 -0.63257,-4.56858 -0.80849,-9.31241 -0.52734,-14.23242 -0.56229,-0.984 -1.15845,-1.6857 -1.79102,-2.10742 -0.63257,-0.492 -1.44178,-0.73828 -2.42578,-0.73828 z m 188.92969,17.71094 c -0.35143,0 -0.70326,0.0352 -1.05469,0.10547 l -0.94922,0 -0.42188,0 c -1.68686,0.21085 -3.61996,0.35158 -5.79882,0.42187 -2.10858,0 -4.28797,0.0352 -6.53711,0.10547 -2.24915,0.0703 -4.46177,0.2462 -6.64063,0.52734 -2.10857,0.28115 -4.0065,0.80889 -5.69336,1.58203 -1.68686,0.77315 -3.05704,1.82668 -4.11133,3.16211 -0.984,1.33543 -1.47656,3.12781 -1.47656,5.37696 2.74115,0 5.44633,-0.14073 8.11719,-0.42188 2.67086,-0.35143 5.34281,-0.73844 8.01367,-1.16015 2.74115,-0.42172 5.44633,-0.7716 8.11719,-1.05274 2.67086,-0.35143 5.37799,-0.52734 8.11914,-0.52734 2.17886,0 4.11197,0.27951 5.79883,0.84179 1.75714,0.49201 3.65311,0.73829 5.6914,0.73829 1.82744,0 2.74219,-0.98317 2.74219,-2.95118 0,-1.68686 -0.45738,-2.98667 -1.37109,-3.90039 -0.84343,-0.91371 -1.93215,-1.58219 -3.26758,-2.0039 -1.26515,-0.42172 -2.67051,-0.668 -4.2168,-0.73828 -1.476,-0.0703 -2.88332,-0.10547 -4.21875,-0.10547 l -0.84179,0 z"
       style="font-style:normal;font-weight:normal;font-size:107.9590683px;line-height:125%;font-family:sans-serif;letter-spacing:0px;word-spacing:0px;fill:#7bcdc8;fill-opacity:1;stroke:none;stroke-width:1px;stroke-linecap:butt;stroke-linejoin:miter;stroke-opacity:1" />
  </g>
</svg>
