<?xml version="1.0" encoding="UTF-8" standalone="no"?>
<!-- Created with Inkscape (http://www.inkscape.org/) -->

<svg
   xmlns:dc="http://purl.org/dc/elements/1.1/"
   xmlns:cc="http://creativecommons.org/ns#"
   xmlns:rdf="http://www.w3.org/1999/02/22-rdf-syntax-ns#"
   xmlns:svg="http://www.w3.org/2000/svg"
   xmlns="http://www.w3.org/2000/svg"
   xmlns:sodipodi="http://sodipodi.sourceforge.net/DTD/sodipodi-0.dtd"
   xmlns:inkscape="http://www.inkscape.org/namespaces/inkscape"
   width="495.99854"
   height="155.0602"
   viewBox="0 0 495.99858 155.06019"
   id="svg2"
   version="1.1"
   inkscape:version="0.91 r13725"
   sodipodi:docname="dessin - Copie2.svg">
  <defs
     id="defs4" />
  <sodipodi:namedview
     id="base"
     pagecolor="#ffffff"
     bordercolor="#666666"
     borderopacity="1.0"
     inkscape:pageopacity="0.0"
     inkscape:pageshadow="2"
     inkscape:zoom="1.979899"
     inkscape:cx="233.38878"
     inkscape:cy="-10.835404"
     inkscape:document-units="px"
     inkscape:current-layer="layer2"
     showgrid="false"
     units="px"
     inkscape:window-width="1920"
     inkscape:window-height="1028"
     inkscape:window-x="-8"
     inkscape:window-y="-8"
     inkscape:window-maximized="1"
     fit-margin-top="5"
     fit-margin-left="5"
     fit-margin-right="5"
     fit-margin-bottom="5" />
  <metadata
     id="metadata7">
    <rdf:RDF>
      <cc:Work
         rdf:about="">
        <dc:format>image/svg+xml</dc:format>
        <dc:type
           rdf:resource="http://purl.org/dc/dcmitype/StillImage" />
        <dc:title></dc:title>
      </cc:Work>
    </rdf:RDF>
  </metadata>
  <g
     inkscape:groupmode="layer"
     id="layer5"
     inkscape:label="Copie de Calque 3"
     style="opacity:1"
     transform="translate(-54.00494,-130.73045)" />
  <g
     inkscape:groupmode="layer"
     id="layer2"
     inkscape:label="Calque 2"
     style="display:inline"
     transform="translate(-54.00494,-130.73045)">
    <rect
       style="opacity:0.98999999;fill:none;fill-opacity:1;stroke:#587d88;stroke-width:10.18647003;stroke-linecap:butt;stroke-linejoin:bevel;stroke-miterlimit:4;stroke-dasharray:none;stroke-opacity:1"
       id="rect4145"
       width="147.60684"
       height="134.87375"
       x="392.30347"
       y="140.82367"
       ry="3.882345e-015" />
  </g>
  <g
     inkscape:label="Calque 1"
     inkscape:groupmode="layer"
     id="layer1"
     transform="translate(-54.00494,-783.09276)"
     style="display:inline">
    <g
       id="g4156"
       transform="matrix(2.5466174,0,0,2.5466174,-195.32851,-1162.7855)"
       style="fill:#83782d;fill-opacity:1">
      <path
         style="font-style:normal;font-variant:normal;font-weight:bold;font-stretch:normal;font-size:40.00000381px;line-height:125%;font-family:Exo;-inkscape-font-specification:'Exo, Bold';text-align:start;letter-spacing:0px;word-spacing:0px;writing-mode:lr-tb;text-anchor:start;fill:#83782d;fill-opacity:1;stroke:none;stroke-width:1px;stroke-linecap:butt;stroke-linejoin:miter;stroke-opacity:1"
         d="m 100.41602,114 0,37.28711 5.46093,0 1.1875,-2.51758 c 1.5675,1.2825 4.65594,2.80274 7.64844,2.80274 6.175,0 8.2168,-5.08235 8.2168,-12.77735 0,-7.8375 -1.2343,-13.11133 -8.2168,-13.11133 -2.1375,0 -5.36781,0.61907 -7.69531,1.66407 l 0,-13.34766 -6.60156,0 z m 76.5371,0.14258 0,37.14453 6.6504,0 0,-11.68555 1.37695,0 7.69531,11.68555 7.88477,0 -9.45313,-14.20313 9.45313,-11.01953 -8.40625,0 -7.17383,8.45508 -1.37695,0 0,-20.37695 -6.6504,0 z m -38.93554,11.68359 c -8.55,0 -11.54102,2.89758 -11.54102,13.20508 0,9.025 2.80102,12.49219 11.54102,12.49219 8.7875,0 11.49609,-3.13469 11.49609,-12.49219 0,-10.0225 -2.80359,-13.20508 -11.49609,-13.20508 z m 23.39648,0 c -4.845,0 -8.3125,2.47117 -8.3125,12.82617 0,10.45 3.61,12.8711 8.3125,12.8711 3.9425,-0.0475 8.26571,0.28609 11.97071,-1.56641 l 0,-4.17969 c 0,0 -4.7511,0.42774 -9.1211,0.42774 -3.42,0 -4.51172,-0.95016 -4.51172,-7.41016 0,-7.41 1.47172,-7.60156 4.51172,-7.60156 4.2275,0 8.78711,0.28516 8.78711,0.28516 l 0,-4.13086 c -4.18,-1.33 -9.16672,-1.52149 -11.63672,-1.52149 z m 47.35742,0 c -4.8925,0 -6.55468,2.89797 -6.55468,6.79297 l 0,2.18555 c 0,4.8925 2.61312,6.79297 7.07812,6.79297 l 5.89063,0 c 1.33,0 1.66211,0.56961 1.66211,1.66211 l 0,1.13867 c 0,1.5675 -1.23461,1.61523 -1.66211,1.61523 l -11.92383,0 0,4.17969 c 1.7575,1.14 9.26305,1.33008 14.06055,1.33008 3.04,0 6.17578,-1.42406 6.17578,-6.60156 l 0,-2.56446 c 0,-3.6575 -1.89977,-6.50781 -6.69727,-6.50781 l -5.98633,0 c -1.14,0 -1.94726,-0.0471 -1.94726,-1.66211 l 0,-1.14062 c 0,-1.18751 0.23726,-1.71094 1.94726,-1.71094 l 11.40039,0 0,-4.22656 c -1.9475,-1.09251 -8.59836,-1.28321 -13.44336,-1.28321 z m -95.8164,5.08399 c 2.09,0 3.32617,1.18648 3.32617,7.64648 0,5.605 -1.18867,7.36328 -3.32617,7.36328 -2.47,0 -4.46563,-0.66586 -5.89063,-1.56836 l 0,-12.49218 c 1.7575,-0.66501 3.61063,-0.94922 5.89063,-0.94922 z m 25.0625,0.2832 c 3.9425,0 4.8457,0.80789 4.8457,7.83789 0,6.65 -1.0932,7.17383 -4.8457,7.17383 -3.5625,0 -4.89258,-0.61883 -4.89258,-7.17383 0,-7.03 0.95008,-7.83789 4.89258,-7.83789 z"
         transform="translate(0,652.36228)"
         id="flowRoot4136"
         inkscape:connector-curvature="0" />
    </g>
  </g>
  <g
     transform="translate(-54.00494,-783.09276)"
     id="g4169"
     inkscape:groupmode="layer"
     inkscape:label="Copie de Calque 1"
     style="display:inline">
    <path
       style="font-style:normal;font-variant:normal;font-weight:normal;font-stretch:normal;font-size:45.00000381px;line-height:125%;font-family:Exo;-inkscape-font-specification:'Exo, Normal';text-align:start;letter-spacing:0px;word-spacing:0px;writing-mode:lr-tb;text-anchor:start;fill:#83782d;fill-opacity:1;stroke:none;stroke-width:1px;stroke-linecap:butt;stroke-linejoin:miter;stroke-opacity:1"
       d="m 418.98323,819.70876 c -7.67806,-0.3438 -14.43913,3.66613 -14.43913,14.89671 l 0,54.89155 c 0,12.94954 8.01967,14.89751 15.58312,14.43911 l 35.07071,-1.94477 0,-6.53567 -35.07071,0 c -3.32333,0 -6.98807,0.11498 -7.10267,-5.95867 l 0,-22.91955 37.58746,-1.14399 0,-6.7595 -37.58746,-1.14896 0,-22.91955 c 0,-3.09413 -4.1e-4,-6.41629 5.95868,-6.41629 l 36.2147,0 0,-6.64508 -36.2147,-1.83534 z m 50.46977,0 0,83.88417 31.17121,0 c 22.11738,0 29.79345,-22.57318 29.79345,-41.5964 0,-17.18967 -4.00894,-42.28777 -29.79345,-42.28777 l -31.17121,0 z m 8.48044,8.48042 22.69077,0 c 13.29334,0 21.313,9.16903 21.313,33.69295 0,17.64806 -6.18609,32.88718 -21.313,32.88718 l -22.69077,0 0,-66.58013 z"
       id="flowRoot4171"
       inkscape:connector-curvature="0" />
  </g>
  <g
     style="display:inline"
     inkscape:label="Copie de Copie de Calque 1"
     inkscape:groupmode="layer"
     id="g4191"
     transform="translate(-54.00494,-783.09276)">
    <path
       style="font-style:normal;font-variant:normal;font-weight:normal;font-stretch:normal;font-size:45.00000381px;line-height:125%;font-family:Exo;-inkscape-font-specification:'Exo, Normal';text-align:start;letter-spacing:0px;word-spacing:0px;writing-mode:lr-tb;text-anchor:start;fill:#587d88;fill-opacity:1;stroke:none;stroke-width:1px;stroke-linecap:butt;stroke-linejoin:miter;stroke-opacity:1"
       d="m 481.81306,834.0285 0,54.6727 17.91088,0 c 12.70845,0 17.12003,-14.71336 17.12003,-27.11255 0,-11.20406 -2.30448,-27.56015 -17.12003,-27.56015 l -17.91088,0 z m 4.87439,5.52596 13.03649,0 c 7.63824,0 12.25063,5.97514 12.25063,21.95962 0,11.50283 -3.55885,21.43731 -12.25063,21.43731 l -13.03649,0 0,-43.39693 z"
       id="flowRoot4193"
       inkscape:connector-curvature="0" />
  </g>
  <g
     inkscape:groupmode="layer"
     id="layer4"
     inkscape:label="Copie de Calque 2"
     style="display:inline"
     transform="translate(-54.00494,-130.73045)">
    <path
       style="font-style:italic;font-variant:normal;font-weight:normal;font-stretch:normal;font-size:15.00000095px;line-height:125%;font-family:Exo;-inkscape-font-specification:'Exo, Italic';text-align:start;letter-spacing:0px;word-spacing:0px;writing-mode:lr-tb;text-anchor:start;fill:#d0c78a;fill-opacity:1;stroke:none;stroke-width:1px;stroke-linecap:butt;stroke-linejoin:miter;stroke-opacity:1"
       d="m 337.58597,241.39731 c -7.12252,0 -9.41232,5.27168 -10.80819,14.21031 -1.00217,6.49387 0.0724,14.24674 6.72964,14.28493 2.72017,0 5.76334,-1.33935 6.90869,-2.44713 l 0.35313,2.17855 2.04427,0 2.18353,-14.74252 c -0.859,-0.0764 -1.65075,-0.11438 -2.40237,-0.11438 -2.89912,0 -4.90308,0.53479 -6.40636,0.95497 l -0.28347,1.90998 6.04821,0 -1.21862,7.33144 c 0,0 -4.15173,2.10394 -6.94351,2.10394 -4.18763,0.0382 -5.18822,-5.15869 -4.25763,-11.38516 1.61063,-11.65077 5.61768,-11.49798 7.72939,-11.45977 1.64642,0.0382 6.15886,0.1884 8.30636,0.53219 l 0.28351,-2.25315 c -2.43385,-0.49659 -6.51278,-1.14238 -8.26658,-1.10419 z m -268.235402,0.0348 c -3.865487,-0.15278 -7.192687,0.84018 -8.087502,6.79927 l -0.358101,2.52174 c -0.42951,2.86495 -0.252501,6.57047 5.366798,6.57047 l 4.973841,0 c 2.720173,0 2.759339,1.56796 2.437226,3.74535 l -0.392946,2.59635 c -0.465305,3.24693 -3.655623,3.43694 -5.123084,3.43694 -3.328636,0 -7.29953,-0.15379 -8.838548,-0.38302 l -0.323311,2.29297 c 1.2527,0.26741 6.01393,0.92015 8.734102,0.92015 2.934922,0 7.337927,-0.46076 8.196924,-6.26704 l 0.392945,-2.59635 c 0.465283,-3.13237 -0.248203,-6.5705 -4.650552,-6.5705 l -4.97884,0 c -1.896982,0 -3.756925,0.34199 -3.148461,-3.74532 l 0.358123,-2.52174 c 0.53685,-3.66713 2.293479,-4.12194 5.013629,-3.96913 0,0 7.083797,0.34318 8.873381,0.34318 l 0.3233,-2.25314 c -1.932754,-0.3056 -6.871942,-0.84377 -8.768924,-0.92018 z m 237.959512,0 c -3.8655,-0.15278 -7.19271,0.84018 -8.08749,6.79927 l -0.35812,2.52174 c -0.4295,2.86495 -0.25252,6.57047 5.3668,6.57047 l 4.97386,0 c 2.72017,0 2.7593,1.56796 2.43719,3.74535 l -0.39791,2.59635 c -0.46531,3.24693 -3.65063,3.43694 -5.11809,3.43694 -3.32864,0 -7.29953,-0.15379 -8.83858,-0.38302 l -0.32329,2.29297 c 1.2527,0.26741 6.01393,0.92015 8.73412,0.92015 2.93491,0 7.33792,-0.46076 8.19691,-6.26704 l 0.39292,-2.59635 c 0.4653,-3.13237 -0.24817,-6.5705 -4.65055,-6.5705 l -4.97884,0 c -1.89696,0 -3.7569,0.34199 -3.14843,-3.74532 l 0.35809,-2.52174 c 0.53687,-3.66713 2.28851,-4.12194 5.00869,-3.96913 0,0 7.08877,0.34318 8.87836,0.34318 l 0.3233,-2.25314 c -1.93277,-0.3056 -6.87198,-0.84377 -8.76894,-0.92018 z m -223.346281,0.2288 -4.153184,27.96305 2.651058,0 4.153173,-27.96305 -2.651047,0 z m 6.073068,0 -0.432722,2.83012 7.659734,0 -3.720451,25.13293 2.646117,0 3.725427,-25.13293 7.873598,0 0.42776,-2.83012 -18.179463,0 z m 26.077983,0 c -2.72018,-0.1528 -4.68971,1.22535 -5.26237,4.96887 l -2.7207,18.29885 c -0.53688,3.59074 1.79091,4.96251 4.15317,4.80972 l 11.09172,-0.64658 0.35811,-2.17855 -10.98726,0 c -1.03795,0 -2.22019,0.0399 -1.96966,-1.98459 l 1.14897,-7.63985 11.80795,-0.38298 0.35813,-2.25317 -11.73834,-0.38299 1.14401,-7.63986 c 0.14312,-1.03136 0.46552,-2.13875 2.18351,-2.13875 l 11.34538,0 0.32329,-2.21832 -11.23591,-0.6118 z m 23.09861,0 5.04846,27.96305 2.64608,0 7.05293,-14.28492 2.18352,14.28492 2.64611,0 13.78259,-27.96305 -2.89979,0 -11.56421,23.57113 -2.10894,-13.94174 4.65059,-9.62939 -3.00423,0 -11.55925,23.34233 -4.18797,-23.34233 -2.68589,0 z m 40.93487,0 c -2.72017,-0.1528 -4.68969,1.22535 -5.26235,4.96887 l -2.7207,18.29885 c -0.53689,3.59074 1.79093,4.96251 4.15318,4.80972 l 11.09171,-0.64658 0.3581,-2.17855 -10.98725,0 c -1.03795,0 -2.22019,0.0399 -1.96966,-1.98459 l 1.14899,-7.63985 11.80792,-0.38298 0.35813,-2.25317 -11.73832,-0.38299 1.144,-7.63986 c 0.14312,-1.03136 0.4655,-2.13875 2.18351,-2.13875 l 11.34538,0 0.32332,-2.21832 -11.23596,-0.6118 z m 15.79698,0 -4.15317,27.96305 10.13176,0 c 5.51192,0 7.62123,-3.32492 8.12231,-7.67965 0.5011,-4.39293 -1.42909,-6.64309 -2.46704,-6.83408 2.04012,-0.61119 3.82813,-2.25316 4.25764,-6.07308 0.35791,-3.20873 -0.53912,-7.37624 -5.76473,-7.37624 l -10.12677,0 z m 71.49927,0 c -2.14749,0 -9.77365,0.001 -9.77365,0.0398 l -4.15317,27.92325 9.77364,0 c 6.76463,0 10.0559,-5.73069 11.38019,-13.86713 0.78743,-4.6603 0.82612,-14.09592 -7.22701,-14.09592 z m 17.91089,0 c -2.72017,-0.1528 -4.68969,1.22535 -5.26236,4.96887 l -2.72071,18.29885 c -0.53687,3.59074 1.79093,4.96251 4.15318,4.80972 l 11.09668,-0.64658 0.35813,-2.17855 -10.99223,0 c -1.03796,0 -2.21524,0.0399 -1.96467,-1.98459 l 1.14399,-7.63985 11.81291,-0.38298 0.35314,-2.25317 -11.73833,-0.38299 1.14399,-7.63986 c 0.14313,-1.03136 0.46553,-2.13875 2.18353,-2.13875 l 11.35037,0 0.31833,-2.21832 -11.23595,-0.6118 z m 36.56782,0 -4.15319,27.96305 2.6511,0 4.15317,-27.96305 -2.65108,0 z m 29.49003,0 -4.14822,27.96305 2.68093,0 3.3673,-22.69077 10.02233,22.69077 2.50185,0 4.15318,-27.96305 -2.64609,0 -3.36731,22.69077 -9.98751,-22.69077 -2.57646,0 z m -118.12427,0.0299 c -0.7874,0.0208 -1.62698,0.0781 -2.56649,0.16412 -2.97071,0.26741 -6.04692,3.47594 -3.72046,7.75429 l 1.7508,3.24791 -3.39714,2.78538 c -3.68653,3.01773 -4.97558,7.25704 -2.72069,10.96237 2.43381,4.04911 7.54987,3.97371 10.30585,1.33797 l 2.65104,-2.55655 2.32281,4.23772 2.72069,0 -3.21808,-5.8045 1.71599,-1.75577 2.54162,-4.51129 -0.86046,-0.76101 -4.76,4.58093 -6.69482,-12.37498 c -1.93273,-3.59072 0.14501,-4.6605 3.22307,-4.6605 l 7.26683,0 0.28348,-1.83536 c -2.60384,-0.63028 -4.48176,-0.8734 -6.84404,-0.81073 z m -35.05575,2.80028 7.48067,0 c 2.29066,0 3.97382,0.72639 3.43695,4.4317 -0.46528,3.13234 -2.14525,4.62073 -4.82963,4.62073 l -7.44586,0 1.35787,-9.05243 z m 61.65599,0 7.12256,0 c 4.50976,0 6.15899,3.51474 5.01366,11.23099 -0.85901,5.6917 -3.65344,10.96238 -8.30636,10.96238 l -7.12255,0 3.29269,-22.19337 z m -29.88298,10.84801 4.29743,7.71444 -3.00918,2.86494 c -2.04013,1.94817 -5.00852,1.52759 -6.47598,-0.72617 -1.39588,-2.13915 -1.11235,-4.77213 2.10893,-7.33148 l 3.0788,-2.52173 z m -33.55863,1.02957 7.44089,0 c 3.00651,0 3.90126,2.55996 3.47175,5.38671 -0.68003,4.54571 -3.29066,5.04349 -5.00867,5.04349 l -7.44587,0 1.5419,-10.4302 z"
       id="flowRoot4180"
       inkscape:connector-curvature="0" />
  </g>
</svg>
