<?xml version="1.0" encoding="UTF-8" standalone="no"?>
<svg
   xmlns:dc="http://purl.org/dc/elements/1.1/"
   xmlns:cc="http://creativecommons.org/ns#"
   xmlns:rdf="http://www.w3.org/1999/02/22-rdf-syntax-ns#"
   xmlns:svg="http://www.w3.org/2000/svg"
   xmlns="http://www.w3.org/2000/svg"
   version="1.1"
   id="svg2"
   viewBox="0 0 274.8738 98.311854"
   height="98.311859"
   width="274.87378">
  <defs
     id="defs4" />
  <metadata
     id="metadata7">
    <rdf:RDF>
      <cc:Work
         rdf:about="">
        <dc:format>image/svg+xml</dc:format>
        <dc:type
           rdf:resource="http://purl.org/dc/dcmitype/StillImage" />
        <dc:title></dc:title>
      </cc:Work>
    </rdf:RDF>
  </metadata>
  <g
     transform="translate(-155.7832,-787.39086)"
     id="layer1">
    <path
       id="flowRoot5686"
       transform="translate(0,652.36228)"
       d="m 219.85938,151.12109 c -7.48085,0.0282 -14.65971,0.4802 -20.3379,2.48047 l 0,8.68946 22.97071,0 c 4.47372,0 8.51758,1.03166 8.51758,5.93554 l 0,3.09766 c 0,4.55975 -2.5813,5.93721 -8.51758,6.19531 l -17.11914,0.85938 0,9.72265 17.11914,0.60156 c 5.16198,0.2581 8.3457,1.29105 8.3457,6.53907 l 0,2.66601 c 0,5.50612 -3.09711,5.85157 -8.86133,5.85157 l -21.85156,0 -0.0859,8.77539 c 7.57091,2.66702 16.94809,2.4082 26.75586,2.4082 10.49604,0 16.17383,-5.42055 16.17383,-15.40039 l 0,-3.61328 c 0,-6.53852 -1.97931,-10.92554 -6.53906,-12.9043 4.38768,-1.63463 6.53906,-5.85044 6.53906,-12.13086 l 0,-4.56055 c 0,-9.1195 -6.10863,-14.96855 -15.57227,-15.14062 -2.51646,-0.043 -5.04349,-0.0817 -7.5371,-0.0723 z m -39.44532,0.24414 -12.13086,7.14063 0,7.91406 12.04492,-3.0957 0,51.01758 12.04493,0 0,-62.97657 -11.95899,0 z"
       style="font-style:normal;font-weight:normal;font-size:40px;line-height:125%;font-family:sans-serif;letter-spacing:0px;word-spacing:0px;fill:none;fill-opacity:1;stroke:#3771c8;stroke-width:5;stroke-linecap:butt;stroke-linejoin:miter;stroke-miterlimit:4;stroke-dasharray:none;stroke-opacity:1" />
    <flowRoot
       transform="translate(0,652.36228)"
       style="font-style:normal;font-weight:normal;font-size:40px;line-height:125%;font-family:sans-serif;letter-spacing:0px;word-spacing:0px;fill:#000000;fill-opacity:1;stroke:none;stroke-width:1px;stroke-linecap:butt;stroke-linejoin:miter;stroke-opacity:1"
       id="flowRoot5694"
       xml:space="preserve"><flowRegion
         id="flowRegion5696"><rect
           y="332.14285"
           x="93.571426"
           height="42.142857"
           width="188.57143"
           id="rect5698" /></flowRegion><flowPara
         id="flowPara5700"></flowPara></flowRoot>    <text
       id="text5702"
       y="828.79083"
       x="269.99997"
       style="font-style:italic;font-variant:normal;font-weight:normal;font-stretch:normal;font-size:40.00000381px;line-height:89.99999762%;font-family:Exo;-inkscape-font-specification:'Exo, Italic';text-align:start;letter-spacing:0px;word-spacing:0px;writing-mode:lr-tb;text-anchor:start;fill:#3771c8;fill-opacity:1;stroke:none;stroke-width:1px;stroke-linecap:butt;stroke-linejoin:miter;stroke-opacity:1"
       xml:space="preserve"><tspan
         style="font-style:italic;font-variant:normal;font-weight:normal;font-stretch:normal;font-size:40.00000381px;line-height:89.99999762%;font-family:Exo;-inkscape-font-specification:'Exo, Italic';text-align:start;writing-mode:lr-tb;text-anchor:start;fill:#3771c8"
         y="828.79083"
         x="269.99997"
         id="tspan5704">site web </tspan><tspan
         id="tspan5787"
         style="font-style:italic;font-variant:normal;font-weight:normal;font-stretch:normal;font-size:40.00000381px;line-height:89.99999762%;font-family:Exo;-inkscape-font-specification:'Exo, Italic';text-align:start;writing-mode:lr-tb;text-anchor:start;fill:#3771c8"
         y="864.79083"
         x="269.99997">&amp; design</tspan></text>
    <rect
       y="804.05365"
       x="256.69135"
       height="64.474419"
       width="3.7601328"
       id="rect5825"
       style="fill:#3771c8;fill-opacity:1;stroke:none;stroke-width:1.09700942;stroke-linejoin:miter;stroke-miterlimit:4;stroke-dasharray:none;stroke-opacity:1" />
  </g>
</svg>
