<?xml version="1.0" encoding="UTF-8" standalone="no"?>
<!-- Generator: Adobe Illustrator 16.0.0, SVG Export Plug-In . SVG Version: 6.00 Build 0)  -->

<svg
   xmlns:dc="http://purl.org/dc/elements/1.1/"
   xmlns:cc="http://creativecommons.org/ns#"
   xmlns:rdf="http://www.w3.org/1999/02/22-rdf-syntax-ns#"
   xmlns:svg="http://www.w3.org/2000/svg"
   xmlns="http://www.w3.org/2000/svg"
   xmlns:sodipodi="http://sodipodi.sourceforge.net/DTD/sodipodi-0.dtd"
   xmlns:inkscape="http://www.inkscape.org/namespaces/inkscape"
   version="1.1"
   id="Layer_1"
   x="0px"
   y="0px"
   width="432"
   height="267.73001"
   viewBox="0 0 432 267.73001"
   enable-background="new 0 0 512 512"
   xml:space="preserve"
   inkscape:version="0.91 r13725"
   sodipodi:docname="rwd.svg"><metadata
     id="metadata23"><rdf:RDF><cc:Work
         rdf:about=""><dc:format>image/svg+xml</dc:format><dc:type
           rdf:resource="http://purl.org/dc/dcmitype/StillImage" /><dc:title></dc:title></cc:Work></rdf:RDF></metadata><defs
     id="defs21" /><sodipodi:namedview
     pagecolor="#ffffff"
     bordercolor="#666666"
     borderopacity="1"
     objecttolerance="10"
     gridtolerance="10"
     guidetolerance="10"
     inkscape:pageopacity="0"
     inkscape:pageshadow="2"
     inkscape:window-width="1920"
     inkscape:window-height="1028"
     id="namedview19"
     showgrid="false"
     fit-margin-top="10"
     fit-margin-right="10"
     fit-margin-bottom="10"
     fit-margin-left="10"
     inkscape:zoom="0.921875"
     inkscape:cx="141.08202"
     inkscape:cy="143.35825"
     inkscape:window-x="-8"
     inkscape:window-y="-8"
     inkscape:window-maximized="1"
     inkscape:current-layer="g7" /><g
     id="g7"
     transform="translate(-40,-122.135)"><path
       d="m 265.229,364.383 c -5.207,-3.826 -5.758,-9.575 -5.758,-9.575 l -1.951,-12.473 -62.204,0 -1.957,12.473 c 0,0 -0.544,5.749 -5.748,9.575 -5.198,3.83 -9.306,7.113 -5.198,7.669 3.955,0.531 41.256,0.048 44.008,0 2.759,0.048 40.052,0.531 44.011,0 4.099,-0.556 -0.01,-3.831 -5.203,-7.669 z"
       id="path9"
       inkscape:connector-curvature="0" /><path
       d="m 120.538,259.694 c 0,-5.77 -4.681,-10.451 -10.452,-10.451 l -49.633,0 C 54.682,249.243 50,253.924 50,259.694 l 0,109.718 c 0,5.777 4.682,10.453 10.453,10.453 l 49.637,0 c 5.768,0 10.452,-4.676 10.452,-10.453 l 0,-109.718 -0.004,0 z m -40.453,1.308 10.451,0 c 0.722,0 1.306,0.583 1.306,1.3 0,0.724 -0.584,1.312 -1.306,1.312 l -10.451,0 c -0.722,0 -1.308,-0.592 -1.308,-1.312 0.001,-0.725 0.587,-1.3 1.308,-1.3 z m 4.79,112.683 c -2.887,0 -5.229,-2.338 -5.229,-5.227 0,-2.885 2.342,-5.227 5.229,-5.227 2.885,0 5.225,2.334 5.225,5.227 0,2.889 -2.336,5.227 -5.225,5.227 z m 29.134,-14.717 -57.478,0 0,-87.521 57.479,0 0,87.521 z"
       id="path11"
       inkscape:connector-curvature="0" /><path
       d="m 447.343,189.137 -107.497,0 c -8.095,0 -14.657,6.558 -14.657,14.655 l 0,153.854 c 0,8.096 6.563,14.662 14.657,14.662 l 107.497,0 c 8.1,0 14.657,-6.566 14.657,-14.662 l 0,-153.857 c -0.004,-8.097 -6.561,-14.652 -14.657,-14.652 z m -74.795,175.016 c -4.047,0 -7.334,-3.274 -7.334,-7.318 0,-4.048 3.287,-7.33 7.334,-7.33 4.04,0 7.315,3.282 7.315,7.33 10e-4,4.044 -3.275,7.318 -7.315,7.318 z m 21.043,0 c -4.04,0 -7.323,-3.274 -7.323,-7.318 0,-4.048 3.283,-7.33 7.323,-7.33 4.052,0 7.326,3.282 7.326,7.33 0,4.044 -3.27,7.318 -7.326,7.318 z m 21.063,0 c -4.052,0 -7.327,-3.274 -7.327,-7.318 0,-4.048 3.275,-7.33 7.327,-7.33 4.043,0 7.322,3.282 7.322,7.33 0,4.044 -3.279,7.318 -7.322,7.318 z m 38.185,-21.167 -118.489,0 0,-141.032 118.489,0 0,141.032 0,0 z"
       id="path13"
       inkscape:connector-curvature="0" /><path
       d="m 358.547,176.778 18.017,0 0,-32.629 c 0,-6.639 -5.379,-12.014 -12.014,-12.014 l -276.263,0 c -6.633,0 -12.014,5.375 -12.014,12.014 l 0,92.739 18.021,0 0,-86.736 264.253,0 0,26.626 0,0 z"
       id="path15"
       inkscape:connector-curvature="0" /><path
       d="m 132.899,294.287 0,36.034 179.931,0 0,-36.034 -179.931,0 z m 93.517,26.257 c -4.548,0 -8.24,-3.693 -8.24,-8.24 0,-4.546 3.692,-8.239 8.24,-8.239 4.549,0 8.24,3.693 8.24,8.239 0,4.546 -3.691,8.24 -8.24,8.24 z"
       id="path17"
       inkscape:connector-curvature="0" /></g></svg>