<?xml version="1.0" encoding="UTF-8" standalone="no"?>
<!-- Generator: Adobe Illustrator 18.0.0, SVG Export Plug-In . SVG Version: 6.00 Build 0)  -->

<svg
   xmlns:dc="http://purl.org/dc/elements/1.1/"
   xmlns:cc="http://creativecommons.org/ns#"
   xmlns:rdf="http://www.w3.org/1999/02/22-rdf-syntax-ns#"
   xmlns:svg="http://www.w3.org/2000/svg"
   xmlns="http://www.w3.org/2000/svg"
   xmlns:sodipodi="http://sodipodi.sourceforge.net/DTD/sodipodi-0.dtd"
   xmlns:inkscape="http://www.inkscape.org/namespaces/inkscape"
   version="1.2"
   id="Calque_1"
   x="0px"
   y="0px"
   viewBox="0 0 207.5 65"
   xml:space="preserve"
   inkscape:version="0.91 r13725"
   sodipodi:docname="face.svg"><metadata
     id="metadata4143"><rdf:RDF><cc:Work
         rdf:about=""><dc:format>image/svg+xml</dc:format><dc:type
           rdf:resource="http://purl.org/dc/dcmitype/StillImage" /></cc:Work></rdf:RDF></metadata><defs
     id="defs4141" /><sodipodi:namedview
     pagecolor="#ffffff"
     bordercolor="#666666"
     borderopacity="1"
     objecttolerance="10"
     gridtolerance="10"
     guidetolerance="10"
     inkscape:pageopacity="0"
     inkscape:pageshadow="2"
     inkscape:window-width="1920"
     inkscape:window-height="1027"
     id="namedview4139"
     showgrid="true"
     inkscape:zoom="12.568675"
     inkscape:cx="104.54676"
     inkscape:cy="32.017055"
     inkscape:window-x="-8"
     inkscape:window-y="-8"
     inkscape:window-maximized="1"
     inkscape:current-layer="Calque_1"><inkscape:grid
       type="xygrid"
       id="grid4147" /></sodipodi:namedview><path
     d="m 124.249,29.647 c 4.342,0.637 2.65099,2.779113 2.68599,6.887113 -0.86215,3.743368 -1.0364,4.359358 -3.67262,8.722255 0,0 -0.71637,1.908632 -1.10337,2.876632 -1.258,3.142 -2.931,6.048 -5.205,8.578 -2.639,2.935 -5.756,5.104 -9.684,5.943 -4.638,0.99 -8.782,-0.209 -12.524,-2.949 C 90.861,56.86 88.289,52.987 86.472,48.6 85.942,47.32 85.194219,45.716152 84.192689,44.760901 81.809608,41.490836 80.78439,38.719192 81.86939,34.087192 c 0.770688,-2.110875 0.725381,-1.96159 1.328998,-3.144743 1.317448,-0.607962 -1.559985,1.005189 1.286612,-1.063449 -0.138,-0.701 -0.257,-1.228 -0.342,-1.76 -0.441,-2.742 -1.032,-5.471 -1.271,-8.23 -0.375,-4.329 -0.656,-5.52 -2.748,-8.265 2.265,-2.001 5.258,-1.96 8.687,-2.935 -1.054,-0.693 -1.706,-1.123 -2.507,-1.65 1.17,-1.11 2.451,-1.332 3.685,-1.572 1.266,-0.246 2.56,-0.347 4.224,-0.56 -0.754,-0.822 0.716854,0.7181979 0.112854,0.060198 0.201,-0.134 0.893158,1.004569 -0.0675,-0.08653 5.675113,-0.02222 7.905736,-1.0132413 12.583736,-0.3491815 4.31769,0.9048742 9.60429,0.7872291 12.01829,4.4462291 0.63003,1.2486884 3.08242,1.6881914 -0.20538,1.7260654 4.126,1.429 6.48,4.424219 6.466,8.804219 -0.008,2.365 -0.419,4.729 -0.637,7.094 -0.09,0.964 -0.15,1.932 -0.235,3.045 z m -19.932,31.474 c 1.795,-0.506 3.653,-0.856 5.37,-1.553 2.635,-1.07 4.83,-2.895 6.389,-5.232 1.669,-2.502 3.47838,-4.994311 4.89438,-7.658311 C 122.42112,44.535445 122,43 122.39765,42.874039 125.4276,41.4146 126.23869,35.806557 125.987,32.693611 125,31 125,31 123.654,32.67 c -1.632,1.437 -3.685,2.552 -4.424,4.988 -1.20281,2.136841 -3.30244,2.144365 -5.97244,2.140365 -2.661,-0.004 -5.12356,0.421635 -6.17956,-2.140365 -0.094,-0.227 -0.168,-0.462 -0.253,-0.693 -0.606,-1.645 -0.992,-1.929 -2.622,-1.928 -1.676,10e-4 -1.967,0.239 -2.683,2.194 -1.25369,2.21506 -3.177656,2.800835 -5.940656,2.823835 -2.776,0.023 -4.515934,0.02366 -6.153344,-1.994835 -0.747,-2.472 -2.394186,-3.690126 -3.859186,-5.336126 -1.287,-1.446 -2.169212,-0.579185 -2.420397,0.793471 -1.349749,3.835 -1.152368,9.198999 2.806632,10.752999 0.611589,0.866361 0.82765,2.256083 1.873699,3.536848 C 89.18253,51.43941 91.478,53.873 94.334,56.565 c 2.773,2.615 5.993,4.256 9.983,4.556 z m 15.554,-27.003 c 1.821,-1.393 1.782,-1.393 1.776,-2.915 -0.013,-3.363 -1.024,-6.434 -2.616,-9.352 -2.435,-4.462 -3.946,-5.243 -8.945,-4.034 -4.851,1.173 -9.703,1.463 -14.61,0.619 -2.581,-0.444 -4.412,0.515 -5.883,2.592 -2.352,3.321 -2.772,7.104 -2.787,10.992 -0.004,1.001 0.603,1.648 1.779,1.931 1.085,-3.16 2.953656,-3.309802 6.533656,-3.309802 3.592,0 5.688344,0.169802 6.716344,3.199802 l 4.738,0 c 1.122,-3.074 3.00944,-3.366146 6.62844,-3.318146 3.49,0.045 5.51856,0.239146 6.66956,3.595146 z m -19.204,0.932 c -0.067,-2.932 -2.703,-3.010332 -5.603,-2.899332 -2.841,0.109 -5.258,0.172332 -5.267,2.999332 -0.009,2.928 2.512219,3.553491 5.449219,3.523491 2.958,-0.031 5.488781,-0.681491 5.420781,-3.623491 z m 7.15,-0.006 c -0.056,3.036 2.376,3.392802 5.377,3.390802 2.913,-0.002 5.303,-0.221802 5.354,-3.158802 0.053,-3.042 -2.38,-3.253676 -5.366,-3.247676 -2.884,0.007 -5.311,0.107676 -5.365,3.015676 z"
     id="path4137"
     inkscape:connector-curvature="0"
     style="fill:#000000"
     sodipodi:nodetypes="cccccccccccccscccccccccccccccccccccsccccccsccccccccccsccscccccccccccccc" /></svg>