<?xml version="1.0" encoding="UTF-8" standalone="no"?>
<!-- Created with Inkscape (http://www.inkscape.org/) -->

<svg
   xmlns:dc="http://purl.org/dc/elements/1.1/"
   xmlns:cc="http://creativecommons.org/ns#"
   xmlns:rdf="http://www.w3.org/1999/02/22-rdf-syntax-ns#"
   xmlns:svg="http://www.w3.org/2000/svg"
   xmlns="http://www.w3.org/2000/svg"
   xmlns:sodipodi="http://sodipodi.sourceforge.net/DTD/sodipodi-0.dtd"
   xmlns:inkscape="http://www.inkscape.org/namespaces/inkscape"
   id="svg4136"
   version="1.1"
   inkscape:version="0.91 r13725"
   xml:space="preserve"
   width="346.8241"
   height="589.77875"
   viewBox="0 0 346.82409 589.77875"
   sodipodi:docname="LOGO ORENGO-MICAULT.svg"
   inkscape:export-filename="C:\Users\Eddy\Desktop\LOGO ORENGO-MICAULT.png"
   inkscape:export-xdpi="90"
   inkscape:export-ydpi="90"><metadata
     id="metadata4142"><rdf:RDF><cc:Work
         rdf:about=""><dc:format>image/svg+xml</dc:format><dc:type
           rdf:resource="http://purl.org/dc/dcmitype/StillImage" /><dc:title></dc:title></cc:Work></rdf:RDF></metadata><defs
     id="defs4140"><clipPath
       clipPathUnits="userSpaceOnUse"
       id="clipPath4152"><path
         d="m 0,141.732 141.732,0 L 141.732,0 0,0 0,141.732 Z"
         id="path4154"
         inkscape:connector-curvature="0" /></clipPath></defs><sodipodi:namedview
     pagecolor="#ffffff"
     bordercolor="#666666"
     borderopacity="1"
     objecttolerance="10"
     gridtolerance="10"
     guidetolerance="10"
     inkscape:pageopacity="0"
     inkscape:pageshadow="2"
     inkscape:window-width="1920"
     inkscape:window-height="1028"
     id="namedview4138"
     showgrid="false"
     fit-margin-top="5"
     fit-margin-left="5"
     fit-margin-right="5"
     fit-margin-bottom="5"
     inkscape:zoom="0.60748457"
     inkscape:cx="544.59808"
     inkscape:cy="537.19671"
     inkscape:window-x="-8"
     inkscape:window-y="-8"
     inkscape:window-maximized="1"
     inkscape:current-layer="g4144" /><g
     id="g4144"
     inkscape:groupmode="layer"
     inkscape:label="LOGO ORENGO-MICAULT"
     transform="matrix(1.25,0,0,-1.25,-57.485993,608.53624)"><path
       d="m 310.77452,19.006 -248.464063,0 0,463.82299 248.464063,0 0,-463.82299 z"
       style="fill:#80d6f7;fill-opacity:1;fill-rule:nonzero;stroke:none"
       id="path4146"
       inkscape:connector-curvature="0" /><g
       id="g4148"
       transform="matrix(5.4013926,0,0,5.4013926,-220.02034,-83.652868)"><g
         id="g4150"
         clip-path="url(#clipPath4152)"><g
           id="g4156"
           transform="translate(84.2388,74.9092)"><path
             d="m 0,0 c 0,0.315 -0.045,0.586 -0.135,0.812 -0.091,0.226 -0.271,0.339 -0.541,0.339 -0.316,0 -0.609,-0.091 -0.88,-0.271 -0.271,-0.181 -0.531,-0.406 -0.779,-0.677 -0.248,-0.27 -0.463,-0.553 -0.643,-0.846 -0.181,-0.294 -0.316,-0.531 -0.406,-0.711 1.083,0 2.075,-0.113 2.978,-0.338 0.091,0.271 0.18,0.552 0.271,0.846 C -0.045,-0.553 0,-0.271 0,0 m -0.541,-2.098 c -0.451,0.09 -0.959,0.158 -1.522,0.203 -0.565,0.044 -1.096,0.068 -1.592,0.068 -0.586,-0.993 -1.094,-2.042 -1.523,-3.148 -0.428,-1.106 -0.756,-2.177 -0.981,-3.214 1.083,0.766 2.177,1.725 3.283,2.876 1.105,1.151 1.884,2.222 2.335,3.215 m 8.596,-10.086 c 0,2.482 -0.744,4.648 -2.233,6.498 -1.49,1.85 -3.498,3.023 -6.025,3.52 -0.496,-1.038 -1.319,-2.279 -2.47,-3.723 -1.15,-1.444 -2.471,-2.866 -3.96,-4.264 -0.18,-0.768 -0.27,-1.692 -0.27,-2.775 0,-2.978 0.609,-5.709 1.827,-8.19 1.219,-2.483 2.775,-4.423 4.67,-5.821 2.844,1.985 4.964,4.297 6.363,6.938 1.398,2.64 2.098,5.245 2.098,7.817 M -2.707,-28.226 c -0.857,0.586 -1.591,1.342 -2.2,2.268 -0.61,0.925 -1.116,1.939 -1.523,3.046 -0.406,1.105 -0.7,2.278 -0.88,3.519 -0.181,1.242 -0.271,2.494 -0.271,3.757 0,0.903 0.023,1.748 0.068,2.538 0.045,0.789 0.159,1.636 0.338,2.539 -1.038,-0.948 -2.154,-1.941 -3.349,-2.978 -1.198,-1.039 -2.224,-2.009 -3.08,-2.911 -0.542,-0.541 -1.107,-1.174 -1.693,-1.895 -0.587,-0.722 -1.14,-1.467 -1.658,-2.234 -0.52,-0.768 -0.948,-1.58 -1.286,-2.437 -0.339,-0.857 -0.508,-1.692 -0.508,-2.504 0,-0.993 0.203,-1.805 0.609,-2.437 0.407,-0.632 0.948,-1.128 1.625,-1.488 0.677,-0.363 1.432,-0.61 2.267,-0.745 0.835,-0.136 1.681,-0.204 2.538,-0.204 1.534,0 3.091,0.18 4.671,0.542 1.579,0.361 3.022,0.902 4.332,1.624 m 18.344,9.138 c 0,-1.489 -0.362,-2.899 -1.084,-4.23 -0.722,-1.331 -1.682,-2.494 -2.876,-3.486 -1.197,-0.993 -2.562,-1.783 -4.095,-2.369 -1.535,-0.587 -3.114,-0.88 -4.738,-0.88 -1.896,0 -3.588,0.474 -5.077,1.421 -2.889,-1.489 -6.047,-2.233 -9.477,-2.233 -1.173,0 -2.301,0.124 -3.384,0.372 -1.083,0.248 -2.053,0.654 -2.91,1.219 -0.858,0.563 -1.535,1.296 -2.031,2.199 -0.497,0.902 -0.744,2.008 -0.744,3.317 0,1.579 0.45,3.09 1.353,4.535 0.903,1.444 1.918,2.684 3.046,3.723 1.399,1.263 2.989,2.459 4.772,3.587 1.783,1.128 3.395,2.211 4.839,3.249 0.272,1.083 0.644,2.234 1.118,3.452 0.473,1.219 1.025,2.346 1.658,3.385 -3.791,0 -7.389,-0.633 -10.796,-1.896 -3.408,-1.263 -6.375,-2.99 -8.901,-5.177 -2.528,-2.19 -4.535,-4.75 -6.024,-7.683 -1.489,-2.934 -2.234,-6.048 -2.234,-9.341 0,-2.302 0.44,-4.288 1.32,-5.957 0.88,-1.669 2.098,-3.057 3.655,-4.162 1.557,-1.105 3.385,-1.918 5.483,-2.437 2.098,-0.518 4.388,-0.779 6.87,-0.779 3.023,0 5.899,0.43 8.631,1.286 2.728,0.859 5.245,2.235 7.547,4.129 0.225,0.181 0.393,0.261 0.506,0.238 0.114,-0.023 0.079,-0.169 -0.101,-0.441 -0.405,-0.631 -1.106,-1.274 -2.098,-1.929 -0.993,-0.653 -2.233,-1.262 -3.722,-1.827 -1.49,-0.564 -3.171,-1.026 -5.043,-1.387 -1.873,-0.362 -3.892,-0.542 -6.058,-0.542 -2.437,0 -4.806,0.282 -7.107,0.846 -2.302,0.565 -4.356,1.445 -6.16,2.64 -1.805,1.196 -3.261,2.741 -4.366,4.637 -1.106,1.894 -1.659,4.15 -1.659,6.768 0,3.339 0.869,6.43 2.606,9.274 1.737,2.842 4.028,5.323 6.871,7.445 2.843,2.12 6.092,3.778 9.747,4.975 3.655,1.195 7.4,1.793 11.236,1.793 0.135,0.271 0.338,0.586 0.609,0.948 0.271,0.361 0.553,0.721 0.846,1.083 0.293,0.361 0.609,0.666 0.948,0.914 0.338,0.248 0.665,0.372 0.981,0.372 C 0,1.963 0.293,1.85 0.475,1.625 0.654,1.398 0.745,1.173 0.745,0.948 0.745,0.542 0.666,0.09 0.508,-0.406 0.35,-0.903 0.158,-1.354 -0.066,-1.76 c 2.841,-0.497 5.12,-1.522 6.836,-3.08 1.714,-1.556 2.572,-3.779 2.572,-6.667 0,-1.489 -0.261,-2.989 -0.779,-4.501 -0.519,-1.513 -1.208,-2.968 -2.065,-4.366 -0.857,-1.398 -1.85,-2.685 -2.977,-3.857 C 2.393,-25.406 1.219,-26.397 0,-27.21 c 0.632,-0.452 1.354,-0.847 2.166,-1.185 0.813,-0.338 1.647,-0.507 2.505,-0.507 1.083,0 2.177,0.157 3.282,0.473 1.106,0.316 2.1,0.813 2.979,1.49 0.881,0.676 1.591,1.556 2.132,2.639 0.541,1.083 0.813,2.392 0.813,3.926 0,0.857 -0.125,1.625 -0.373,2.302 -0.248,0.676 -0.575,1.252 -0.981,1.725 -0.406,0.475 -0.858,0.847 -1.354,1.118 -0.497,0.27 -0.971,0.428 -1.421,0.473 -0.092,0 -0.147,0.034 -0.17,0.102 -0.023,0.068 0.034,0.124 0.17,0.17 0.36,0 0.766,0.055 1.218,0.169 0.45,0.112 0.812,0.169 1.083,0.169 1.083,0 1.951,-0.463 2.605,-1.388 0.655,-0.925 0.983,-2.11 0.983,-3.554"
             style="fill:#ffffff;fill-opacity:1;fill-rule:nonzero;stroke:none"
             id="path4158"
             inkscape:connector-curvature="0" /></g><g
           id="g4160"
           transform="translate(67.7222,29.9141)"><path
             d="m 0,0 c 0.048,-0.098 0.114,-0.178 0.198,-0.236 0.084,-0.059 0.183,-0.1 0.298,-0.125 0.115,-0.026 0.237,-0.039 0.368,-0.039 0.075,0 0.156,0.011 0.244,0.033 0.088,0.021 0.17,0.055 0.246,0.101 0.076,0.047 0.14,0.108 0.19,0.18 C 1.595,-0.012 1.62,0.076 1.62,0.18 1.62,0.26 1.602,0.33 1.566,0.389 1.53,0.447 1.483,0.496 1.426,0.537 1.369,0.576 1.306,0.609 1.236,0.635 1.167,0.66 1.099,0.68 1.032,0.695 L 0.396,0.852 C 0.313,0.873 0.233,0.9 0.154,0.932 0.075,0.965 0.007,1.008 -0.052,1.061 -0.11,1.113 -0.158,1.18 -0.194,1.256 -0.23,1.334 -0.248,1.428 -0.248,1.541 c 0,0.068 0.014,0.15 0.04,0.244 0.027,0.092 0.077,0.18 0.15,0.264 0.074,0.082 0.174,0.152 0.302,0.209 0.128,0.058 0.292,0.086 0.492,0.086 0.141,0 0.276,-0.018 0.404,-0.055 C 1.268,2.25 1.38,2.195 1.476,2.121 1.572,2.045 1.649,1.953 1.706,1.842 1.763,1.732 1.792,1.604 1.792,1.457 l -0.272,0 C 1.515,1.566 1.49,1.66 1.446,1.742 1.402,1.824 1.345,1.891 1.274,1.945 1.204,2 1.122,2.043 1.03,2.07 0.938,2.098 0.841,2.111 0.74,2.111 0.647,2.111 0.557,2.102 0.47,2.082 0.383,2.063 0.308,2.029 0.242,1.986 0.177,1.941 0.124,1.885 0.084,1.812 0.044,1.74 0.024,1.65 0.024,1.545 0.024,1.477 0.036,1.42 0.058,1.371 0.081,1.32 0.112,1.279 0.152,1.244 0.192,1.209 0.238,1.182 0.29,1.16 0.342,1.139 0.397,1.121 0.456,1.107 L 1.152,0.936 C 1.253,0.91 1.349,0.877 1.438,0.838 1.527,0.799 1.606,0.752 1.674,0.693 1.742,0.637 1.795,0.566 1.834,0.484 1.873,0.402 1.892,0.301 1.892,0.184 1.892,0.152 1.889,0.109 1.882,0.057 1.875,0.002 1.859,-0.055 1.834,-0.113 1.809,-0.174 1.773,-0.234 1.726,-0.295 1.679,-0.357 1.615,-0.412 1.534,-0.461 1.453,-0.512 1.352,-0.551 1.232,-0.582 1.112,-0.613 0.968,-0.627 0.8,-0.627 c -0.168,0 -0.324,0.018 -0.468,0.057 -0.144,0.039 -0.267,0.097 -0.368,0.177 -0.101,0.081 -0.179,0.184 -0.234,0.309 -0.055,0.125 -0.078,0.275 -0.07,0.453 l 0.272,0 C -0.071,0.221 -0.048,0.1 0,0"
             style="fill:#ffffff;fill-opacity:1;fill-rule:nonzero;stroke:none"
             id="path4162"
             inkscape:connector-curvature="0" /></g><g
           id="g4164"
           transform="translate(72.3784,32.1992)"><path
             d="m 0,0 0,-0.232 -1.7,0 0,-1.034 1.592,0 0,-0.23 -1.592,0 0,-1.129 1.72,0 0,-0.232 -1.992,0 0,2.857 L 0,0 Z"
             style="fill:#ffffff;fill-opacity:1;fill-rule:nonzero;stroke:none"
             id="path4166"
             inkscape:connector-curvature="0" /></g><g
           id="g4168"
           transform="translate(73.4097,32.1992)"><path
             d="m 0,0 0,-2.625 1.601,0 0,-0.232 -1.872,0 0,2.857 L 0,0 Z"
             style="fill:#ffffff;fill-opacity:1;fill-rule:nonzero;stroke:none"
             id="path4170"
             inkscape:connector-curvature="0" /></g><g
           id="g4172"
           transform="translate(77.1733,30.4629)"><path
             d="M 0,0 -0.551,1.463 -1.123,0 0,0 Z m -0.387,1.736 1.119,-2.857 -0.292,0 -0.347,0.889 -1.3,0 -0.344,-0.889 -0.289,0 1.149,2.857 0.304,0 z"
             style="fill:#ffffff;fill-opacity:1;fill-rule:nonzero;stroke:none"
             id="path4174"
             inkscape:connector-curvature="0" /></g><g
           id="g4176"
           transform="translate(79.814,30.8418)"><path
             d="M 0,0 C 0.083,0 0.162,0.014 0.236,0.039 0.311,0.064 0.377,0.1 0.432,0.148 0.488,0.197 0.533,0.254 0.566,0.322 0.6,0.391 0.616,0.469 0.616,0.557 0.616,0.732 0.565,0.871 0.465,0.973 0.363,1.074 0.209,1.125 0,1.125 l -1.016,0 L -1.016,0 0,0 Z M 0.021,1.357 C 0.138,1.357 0.249,1.342 0.354,1.312 0.459,1.283 0.552,1.238 0.631,1.178 0.709,1.119 0.771,1.041 0.818,0.947 0.865,0.852 0.889,0.74 0.889,0.613 0.889,0.432 0.842,0.273 0.748,0.141 0.654,0.008 0.516,-0.078 0.332,-0.115 l 0,-0.008 c 0.094,-0.014 0.171,-0.039 0.232,-0.074 0.061,-0.037 0.112,-0.082 0.151,-0.139 0.038,-0.055 0.066,-0.121 0.084,-0.193 0.016,-0.075 0.028,-0.153 0.033,-0.239 0.003,-0.048 0.006,-0.107 0.008,-0.175 0.003,-0.071 0.008,-0.139 0.016,-0.211 0.008,-0.071 0.021,-0.137 0.039,-0.2 0.017,-0.062 0.041,-0.111 0.07,-0.146 l -0.301,0 c -0.016,0.027 -0.028,0.061 -0.037,0.098 -0.01,0.039 -0.017,0.08 -0.021,0.121 -0.003,0.041 -0.006,0.082 -0.01,0.121 -0.002,0.041 -0.005,0.076 -0.008,0.105 -0.005,0.1 -0.014,0.201 -0.026,0.301 -0.011,0.1 -0.037,0.19 -0.076,0.268 -0.039,0.08 -0.094,0.142 -0.168,0.191 -0.073,0.047 -0.173,0.068 -0.302,0.063 l -1.032,0 0,-1.268 -0.271,0 0,2.857 1.308,0 z"
             style="fill:#ffffff;fill-opacity:1;fill-rule:nonzero;stroke:none"
             id="path4178"
             inkscape:connector-curvature="0" /></g><g
           id="g4180"
           transform="translate(81.8257,32.1992)"><path
             d="m 0,0 0,-2.625 1.601,0 0,-0.232 -1.872,0 0,2.857 L 0,0 Z"
             style="fill:#ffffff;fill-opacity:1;fill-rule:nonzero;stroke:none"
             id="path4182"
             inkscape:connector-curvature="0" /></g><g
           id="g4184"
           transform="translate(56.1924,24.3125)"><path
             d="m 0,0 c 0.041,-0.15 0.105,-0.285 0.192,-0.404 0.086,-0.119 0.198,-0.215 0.334,-0.285 0.136,-0.073 0.298,-0.11 0.488,-0.11 0.189,0 0.351,0.037 0.486,0.11 0.134,0.07 0.245,0.166 0.332,0.285 C 1.918,-0.285 1.982,-0.15 2.024,0 2.065,0.15 2.086,0.303 2.086,0.457 2.086,0.615 2.065,0.768 2.024,0.918 1.982,1.066 1.918,1.201 1.832,1.32 1.745,1.437 1.634,1.533 1.5,1.605 1.365,1.678 1.203,1.713 1.014,1.713 0.824,1.713 0.662,1.678 0.526,1.605 0.39,1.533 0.278,1.437 0.192,1.32 0.105,1.201 0.041,1.066 0,0.918 -0.042,0.768 -0.062,0.615 -0.062,0.457 -0.062,0.303 -0.042,0.15 0,0 m -0.25,1.021 c 0.056,0.18 0.14,0.338 0.252,0.475 0.112,0.137 0.252,0.246 0.422,0.328 0.169,0.08 0.366,0.121 0.59,0.121 0.224,0 0.42,-0.041 0.588,-0.121 C 1.77,1.742 1.91,1.633 2.022,1.496 2.134,1.359 2.218,1.201 2.274,1.021 2.33,0.844 2.358,0.654 2.358,0.457 2.358,0.26 2.33,0.072 2.274,-0.105 2.218,-0.285 2.134,-0.441 2.022,-0.578 1.91,-0.715 1.77,-0.822 1.602,-0.904 1.434,-0.986 1.238,-1.025 1.014,-1.025 c -0.224,0 -0.421,0.039 -0.59,0.121 -0.17,0.082 -0.31,0.189 -0.422,0.326 -0.112,0.137 -0.196,0.293 -0.252,0.473 -0.056,0.177 -0.084,0.365 -0.084,0.562 0,0.197 0.028,0.387 0.084,0.564"
             style="fill:#ffffff;fill-opacity:1;fill-rule:nonzero;stroke:none"
             id="path4186"
             inkscape:connector-curvature="0" /></g><g
           id="g4188"
           transform="translate(60.6226,24.8418)"><path
             d="m 0,0 c 0.083,0 0.161,0.014 0.236,0.039 0.075,0.025 0.14,0.061 0.196,0.109 0.056,0.049 0.1,0.106 0.134,0.174 0.033,0.069 0.05,0.147 0.05,0.235 0,0.175 -0.051,0.314 -0.152,0.416 C 0.362,1.074 0.208,1.125 0,1.125 l -1.016,0 L -1.016,0 0,0 Z M 0.02,1.357 C 0.137,1.357 0.249,1.342 0.354,1.312 0.459,1.283 0.551,1.238 0.63,1.178 0.708,1.119 0.771,1.041 0.818,0.947 0.864,0.852 0.888,0.74 0.888,0.613 0.888,0.432 0.841,0.273 0.748,0.141 0.654,0.008 0.516,-0.078 0.332,-0.115 l 0,-0.008 c 0.093,-0.014 0.17,-0.039 0.232,-0.074 0.061,-0.037 0.111,-0.082 0.15,-0.139 0.038,-0.055 0.066,-0.121 0.084,-0.193 0.017,-0.075 0.029,-0.153 0.034,-0.239 0.002,-0.048 0.005,-0.107 0.008,-0.175 0.002,-0.071 0.008,-0.139 0.016,-0.211 0.008,-0.071 0.02,-0.137 0.038,-0.2 0.017,-0.062 0.041,-0.111 0.07,-0.146 l -0.3,0 c -0.016,0.027 -0.029,0.061 -0.038,0.098 -0.01,0.039 -0.016,0.08 -0.02,0.121 -0.004,0.041 -0.007,0.082 -0.01,0.121 -0.003,0.041 -0.006,0.076 -0.008,0.105 -0.005,0.1 -0.014,0.201 -0.026,0.301 -0.012,0.1 -0.038,0.19 -0.076,0.268 -0.039,0.08 -0.095,0.142 -0.168,0.191 -0.073,0.047 -0.174,0.068 -0.302,0.063 l -1.032,0 0,-1.268 -0.272,0 0,2.857 1.308,0 z"
             style="fill:#ffffff;fill-opacity:1;fill-rule:nonzero;stroke:none"
             id="path4190"
             inkscape:connector-curvature="0" /></g><g
           id="g4192"
           transform="translate(64.334,26.1992)"><path
             d="m 0,0 0,-0.232 -1.7,0 0,-1.034 1.592,0 0,-0.23 -1.592,0 0,-1.129 1.72,0 0,-0.232 -1.992,0 0,2.857 L 0,0 Z"
             style="fill:#ffffff;fill-opacity:1;fill-rule:nonzero;stroke:none"
             id="path4194"
             inkscape:connector-curvature="0" /></g><g
           id="g4196"
           transform="translate(65.394,26.1992)"><path
             d="m 0,0 1.664,-2.416 0.008,0 0,2.416 0.272,0 0,-2.857 -0.304,0 -1.664,2.416 -0.008,0 0,-2.416 -0.272,0 0,2.857 L 0,0 Z"
             style="fill:#ffffff;fill-opacity:1;fill-rule:nonzero;stroke:none"
             id="path4198"
             inkscape:connector-curvature="0" /></g><g
           id="g4200"
           transform="translate(70.5142,23.3418)"><path
             d="m 0,0 -0.036,0.52 -0.008,0 C -0.092,0.42 -0.151,0.332 -0.222,0.258 -0.293,0.186 -0.371,0.125 -0.456,0.078 -0.542,0.031 -0.633,-0.002 -0.73,-0.023 c -0.098,-0.022 -0.198,-0.032 -0.302,-0.032 -0.224,0 -0.421,0.039 -0.59,0.121 -0.17,0.082 -0.31,0.19 -0.422,0.327 -0.112,0.136 -0.196,0.293 -0.252,0.472 -0.056,0.178 -0.084,0.365 -0.084,0.563 0,0.197 0.028,0.386 0.084,0.564 0.056,0.18 0.14,0.338 0.252,0.475 0.112,0.137 0.252,0.246 0.422,0.328 0.169,0.08 0.366,0.121 0.59,0.121 0.149,0 0.29,-0.02 0.424,-0.059 C -0.475,2.816 -0.356,2.756 -0.252,2.676 -0.148,2.596 -0.06,2.498 0.012,2.381 0.084,2.264 0.133,2.125 0.16,1.969 l -0.272,0 c -0.008,0.082 -0.035,0.166 -0.082,0.25 -0.047,0.084 -0.11,0.16 -0.188,0.23 -0.079,0.069 -0.173,0.125 -0.282,0.17 -0.109,0.043 -0.232,0.065 -0.368,0.065 -0.19,0 -0.352,-0.036 -0.488,-0.108 C -1.656,2.504 -1.768,2.408 -1.854,2.291 -1.941,2.172 -2.005,2.037 -2.046,1.889 -2.087,1.738 -2.108,1.586 -2.108,1.428 c 0,-0.155 0.021,-0.307 0.062,-0.457 0.041,-0.151 0.105,-0.285 0.192,-0.405 0.086,-0.119 0.198,-0.214 0.334,-0.285 0.136,-0.072 0.298,-0.109 0.488,-0.109 0.157,0 0.298,0.027 0.422,0.078 0.124,0.053 0.228,0.125 0.314,0.219 0.085,0.093 0.149,0.203 0.192,0.332 0.042,0.127 0.062,0.267 0.06,0.42 l -0.972,0 0,0.232 1.212,0 L 0.196,0 0,0 Z"
             style="fill:#ffffff;fill-opacity:1;fill-rule:nonzero;stroke:none"
             id="path4202"
             inkscape:connector-curvature="0" /></g><g
           id="g4204"
           transform="translate(71.7764,24.3125)"><path
             d="m 0,0 c 0.041,-0.15 0.105,-0.285 0.192,-0.404 0.086,-0.119 0.198,-0.215 0.334,-0.285 0.136,-0.073 0.299,-0.11 0.488,-0.11 0.19,0 0.352,0.037 0.486,0.11 0.134,0.07 0.245,0.166 0.332,0.285 C 1.918,-0.285 1.983,-0.15 2.024,0 2.065,0.15 2.086,0.303 2.086,0.457 2.086,0.615 2.065,0.768 2.024,0.918 1.983,1.066 1.918,1.201 1.832,1.32 1.745,1.437 1.634,1.533 1.5,1.605 1.366,1.678 1.204,1.713 1.014,1.713 0.825,1.713 0.662,1.678 0.526,1.605 0.39,1.533 0.278,1.437 0.192,1.32 0.105,1.201 0.041,1.066 0,0.918 -0.042,0.768 -0.062,0.615 -0.062,0.457 -0.062,0.303 -0.042,0.15 0,0 m -0.25,1.021 c 0.056,0.18 0.14,0.338 0.252,0.475 0.112,0.137 0.252,0.246 0.422,0.328 0.169,0.08 0.366,0.121 0.59,0.121 0.224,0 0.42,-0.041 0.588,-0.121 C 1.77,1.742 1.91,1.633 2.022,1.496 2.133,1.359 2.217,1.201 2.274,1.021 2.33,0.844 2.358,0.654 2.358,0.457 2.358,0.26 2.33,0.072 2.274,-0.105 2.217,-0.285 2.133,-0.441 2.022,-0.578 1.91,-0.715 1.77,-0.822 1.602,-0.904 1.434,-0.986 1.238,-1.025 1.014,-1.025 c -0.224,0 -0.421,0.039 -0.59,0.121 -0.17,0.082 -0.31,0.189 -0.422,0.326 -0.112,0.137 -0.196,0.293 -0.252,0.473 -0.056,0.177 -0.084,0.365 -0.084,0.562 0,0.197 0.028,0.387 0.084,0.564"
             style="fill:#ffffff;fill-opacity:1;fill-rule:nonzero;stroke:none"
             id="path4206"
             inkscape:connector-curvature="0" /></g><g
           id="g4208"
           transform="translate(76.7827,26.1992)"><path
             d="M 0,0 0.987,-2.506 1.971,0 l 0.4,0 0,-2.857 -0.271,0 0,2.468 -0.008,0 -0.977,-2.468 -0.256,0 -0.98,2.468 -0.008,0 0,-2.468 -0.271,0 L -0.4,0 0,0 Z"
             style="fill:#ffffff;fill-opacity:1;fill-rule:nonzero;stroke:none"
             id="path4210"
             inkscape:connector-curvature="0" /></g><path
           d="m 80.375,23.342 -0.272,0 0,2.857 0.272,0 0,-2.857 z"
           style="fill:#ffffff;fill-opacity:1;fill-rule:nonzero;stroke:none"
           id="path4212"
           inkscape:connector-curvature="0" /><g
           id="g4214"
           transform="translate(83.2993,25.6289)"><path
             d="m 0,0 c -0.055,0.086 -0.121,0.158 -0.199,0.217 -0.078,0.058 -0.166,0.103 -0.26,0.135 -0.095,0.031 -0.194,0.044 -0.298,0.044 -0.189,0 -0.352,-0.035 -0.488,-0.107 -0.137,-0.072 -0.248,-0.168 -0.334,-0.285 -0.087,-0.119 -0.15,-0.254 -0.192,-0.402 -0.041,-0.151 -0.062,-0.303 -0.062,-0.461 0,-0.155 0.021,-0.307 0.062,-0.457 0.042,-0.151 0.105,-0.286 0.192,-0.405 0.086,-0.119 0.197,-0.215 0.334,-0.285 0.136,-0.072 0.299,-0.109 0.488,-0.109 0.133,0 0.253,0.025 0.36,0.072 0.106,0.049 0.198,0.113 0.276,0.197 0.077,0.082 0.14,0.178 0.187,0.289 0.049,0.112 0.08,0.231 0.092,0.358 l 0.273,0 C 0.412,-1.375 0.371,-1.533 0.307,-1.674 0.242,-1.816 0.16,-1.936 0.059,-2.035 c -0.102,-0.098 -0.221,-0.174 -0.358,-0.227 -0.138,-0.054 -0.29,-0.08 -0.458,-0.08 -0.224,0 -0.422,0.039 -0.59,0.121 -0.17,0.082 -0.31,0.19 -0.423,0.326 -0.112,0.137 -0.196,0.293 -0.251,0.473 -0.056,0.178 -0.084,0.365 -0.084,0.563 0,0.197 0.028,0.386 0.084,0.564 0.055,0.18 0.139,0.338 0.251,0.475 0.113,0.136 0.253,0.246 0.423,0.328 0.168,0.08 0.366,0.121 0.59,0.121 0.136,0 0.269,-0.02 0.398,-0.059 C -0.23,0.529 -0.113,0.471 -0.008,0.391 0.098,0.312 0.186,0.217 0.257,0.102 0.327,-0.014 0.372,-0.145 0.391,-0.295 l -0.272,0 C 0.095,-0.186 0.055,-0.088 0,0"
             style="fill:#ffffff;fill-opacity:1;fill-rule:nonzero;stroke:none"
             id="path4216"
             inkscape:connector-curvature="0" /></g><g
           id="g4218"
           transform="translate(86.0337,24.4629)"><path
             d="M 0,0 -0.552,1.463 -1.124,0 0,0 Z m -0.388,1.736 1.12,-2.857 -0.293,0 -0.347,0.889 -1.3,0 -0.344,-0.889 -0.288,0 1.149,2.857 0.303,0 z"
             style="fill:#ffffff;fill-opacity:1;fill-rule:nonzero;stroke:none"
             id="path4220"
             inkscape:connector-curvature="0" /></g><g
           id="g4222"
           transform="translate(87.6294,26.1992)"><path
             d="m 0,0 0,-1.77 c 0,-0.164 0.02,-0.304 0.057,-0.421 0.037,-0.116 0.091,-0.211 0.164,-0.284 0.072,-0.074 0.16,-0.127 0.263,-0.16 0.104,-0.033 0.221,-0.051 0.352,-0.051 0.134,0 0.252,0.018 0.356,0.051 0.105,0.033 0.193,0.086 0.264,0.16 0.072,0.073 0.127,0.168 0.164,0.284 0.038,0.117 0.056,0.257 0.056,0.421 l 0,1.77 0.272,0 0,-1.828 c 0,-0.149 -0.02,-0.287 -0.061,-0.418 C 1.845,-2.379 1.779,-2.494 1.69,-2.594 1.602,-2.691 1.486,-2.77 1.346,-2.826 c -0.14,-0.059 -0.31,-0.086 -0.51,-0.086 -0.197,0 -0.365,0.027 -0.506,0.086 -0.14,0.056 -0.254,0.135 -0.344,0.232 -0.09,0.1 -0.154,0.215 -0.196,0.348 -0.041,0.131 -0.061,0.269 -0.061,0.418 L -0.271,0 0,0 Z"
             style="fill:#ffffff;fill-opacity:1;fill-rule:nonzero;stroke:none"
             id="path4224"
             inkscape:connector-curvature="0" /></g><g
           id="g4226"
           transform="translate(90.7583,26.1992)"><path
             d="m 0,0 0,-2.625 1.6,0 0,-0.232 -1.872,0 0,2.857 L 0,0 Z"
             style="fill:#ffffff;fill-opacity:1;fill-rule:nonzero;stroke:none"
             id="path4228"
             inkscape:connector-curvature="0" /></g><g
           id="g4230"
           transform="translate(94.9497,26.1992)"><path
             d="m 0,0 0,-0.232 -0.996,0 0,-2.625 -0.272,0 0,2.625 -0.992,0 L -2.26,0 0,0 Z"
             style="fill:#ffffff;fill-opacity:1;fill-rule:nonzero;stroke:none"
             id="path4232"
             inkscape:connector-curvature="0" /></g></g></g></g></svg>