<?xml version="1.0" encoding="UTF-8" standalone="no"?>
<svg width="108px" height="36px" viewBox="0 0 108 36" version="1.1" xmlns="http://www.w3.org/2000/svg" xmlns:xlink="http://www.w3.org/1999/xlink" xmlns:sketch="sketch/ns">
    <title>cartescredit-logos</title>
    <desc>Created with Sketch.</desc>
    <defs>
        <path id="path-1" d="M0,0.00315987461 L50.2254634,0.00315987461 L50.2254634,15.2698547 L0,15.2698547"/>
    </defs>
    <g id="layout" stroke="none" stroke-width="1" fill="none" fill-rule="evenodd" sketch:type="MSPage">
        <g id="Artboard-26" sketch:type="MSArtboardGroup" transform="translate(-515.000000, -33.000000)">
            <g id="creditcard-logos" sketch:type="MSLayerGroup" transform="translate(515.000000, 33.000000)">
                <g id="Master_Card" transform="translate(59.014286, 4.363636)" sketch:type="MSShapeGroup">
                    <path d="M27.8101995,13.8144451 C27.8101995,21.4222382 21.6321839,27.5892414 14.0108054,27.5892414 C6.38942697,27.5892414 0.21109101,21.4222382 0.21109101,13.8144451 C0.21109101,6.20665204 6.38942697,0.0393291536 14.0108054,0.0393291536 C21.6321839,0.0393291536 27.8101995,6.20665204 27.8101995,13.8144451" id="Fill-1" fill="#D82331"/>
                    <path d="M32.537485,0.0393291536 C28.9713602,0.0393291536 25.7226728,1.38963009 23.2731842,3.60485266 C22.7754067,4.05601881 22.3096611,4.54427586 21.8807523,5.06290909 L24.668499,5.06290909 C25.0493597,5.52558621 25.4004307,6.01224451 25.7207509,6.52192476 L20.8281802,6.52192476 C20.5354075,6.99035737 20.2692214,7.47701567 20.0331454,7.98062069 L26.515145,7.98062069 C26.7368065,8.45289028 26.9318815,8.93954859 27.0997293,9.43899687 L19.4488814,9.43899687 C19.2893619,9.9141442 19.1551478,10.4004828 19.0478405,10.897373 L27.5001296,10.897373 C27.7025719,11.8377555 27.8101995,12.8133103 27.8101995,13.8144451 C27.8101995,15.3438056 27.5606701,16.815931 27.0997293,18.1905329 L19.4488814,18.1905329 C19.6164089,18.6899812 19.8118042,19.1766395 20.0328251,19.6492288 L26.515145,19.6492288 C26.2787486,20.1525141 26.0135235,20.6391724 25.7194696,21.1082445 L20.8281802,21.1082445 C21.1475394,21.616326 21.4989307,22.1036238 21.8807523,22.5656614 L24.6678584,22.5656614 C24.23927,23.0852539 23.7738447,23.5731912 23.2738249,24.0246771 C25.7233134,26.2398997 28.9713602,27.5892414 32.537485,27.5892414 C40.1588634,27.5892414 46.3371994,21.4222382 46.3371994,13.8144451 C46.3371994,6.20729154 40.1588634,0.0393291536 32.537485,0.0393291536" id="Fill-2" fill="#F1AB3D"/>
                    <path d="M44.4979208,21.4929028 C44.4979208,21.2473354 44.6974803,21.0481317 44.9441268,21.0481317 C45.1904531,21.0481317 45.3893719,21.2473354 45.3893719,21.4929028 C45.3893719,21.73879 45.1904531,21.9379937 44.9441268,21.9379937 C44.6974803,21.9379937 44.4979208,21.73879 44.4979208,21.4929028 L44.4979208,21.4929028 Z M44.9441268,21.8311975 C45.1305532,21.8311975 45.282385,21.6796364 45.282385,21.4929028 C45.282385,21.3055298 45.1305532,21.1549279 44.9441268,21.1549279 C44.7564192,21.1549279 44.6049078,21.3055298 44.6049078,21.4929028 C44.6049078,21.6796364 44.7564192,21.8311975 44.9441268,21.8311975 L44.9441268,21.8311975 Z M44.883266,21.6882696 L44.7919748,21.6882696 L44.7919748,21.2978558 L44.9579006,21.2978558 C44.9921749,21.2978558 45.0270898,21.2978558 45.0578405,21.316721 C45.0892319,21.3384639 45.1071698,21.3761944 45.1071698,21.414884 C45.1071698,21.4590094 45.0815442,21.5002571 45.0389416,21.5159248 L45.1116543,21.6882696 L45.0104331,21.6882696 L44.9502129,21.5341505 L44.883266,21.5341505 L44.883266,21.6882696 L44.883266,21.6882696 Z M44.883266,21.4666834 L44.9338766,21.4666834 C44.9527755,21.4666834 44.9726353,21.4679624 44.9896123,21.4590094 C45.0046674,21.4490972 45.0126754,21.431511 45.0126754,21.4142445 C45.0126754,21.3992163 45.0027454,21.3816301 44.990253,21.3742759 C44.9739166,21.3646834 44.9489317,21.3666019 44.9319547,21.3666019 L44.883266,21.3666019 L44.883266,21.4666834 L44.883266,21.4666834 Z" id="Fill-3" fill="#F1AB3D"/>
                    <path d="M10.7883842,15.3227022 C10.6314273,15.3044765 10.5619179,15.2990408 10.4536496,15.2990408 C9.60480111,15.2990408 9.17525172,15.5900125 9.17525172,16.1646019 C9.17525172,16.5179248 9.38474113,16.7427085 9.71210837,16.7427085 C10.3223183,16.7427085 10.7624383,16.1633229 10.7883842,15.3227022 L10.7883842,15.3227022 Z M11.8781135,17.8544765 L10.6365525,17.8544765 L10.665061,17.2654984 C10.2864425,17.7307335 9.78129754,17.9526395 9.09485135,17.9526395 C8.28315998,17.9526395 7.72644347,17.3198558 7.72644347,16.4005768 C7.72644347,15.0167022 8.69445111,14.2096552 10.3565926,14.2096552 C10.5266826,14.2096552 10.74418,14.2253229 10.9671229,14.2534608 C11.0135693,14.0660878 11.0257415,13.9861505 11.0257415,13.8851097 C11.0257415,13.5090846 10.7646805,13.3680752 10.0651012,13.3680752 C9.3318883,13.3604013 8.72776441,13.5426583 8.47919594,13.6238746 C8.49489163,13.5298683 8.68708374,12.3461567 8.68708374,12.3461567 C9.4334298,12.1271285 9.92576195,12.0452727 10.4799159,12.0452727 C11.7663218,12.0452727 12.4479632,12.6217806 12.4463616,13.7114859 C12.4489241,14.0037367 12.4005558,14.3634545 12.3252805,14.8373229 C12.1952305,15.6600376 11.9159113,17.4247335 11.8781135,17.8544765 L11.8781135,17.8544765 Z" id="Fill-4" fill="#0B2D5A"/>
                    <path d="M7.09957685,17.8544765 L5.60111897,17.8544765 L6.45989741,12.4836489 L4.54310135,17.8544765 L3.52256121,17.8544765 L3.39603473,12.5137053 L2.49433337,17.8544765 L1.09197155,17.8544765 L2.26306219,10.8673166 L4.41753584,10.8673166 L4.54790616,14.7781693 L5.86185961,10.8673166 L8.258175,10.8673166 L7.09957685,17.8544765" id="Fill-5" fill="#0B2D5A"/>
                    <path d="M34.3886154,15.3227022 C34.2316585,15.3044765 34.1627897,15.2990408 34.0551621,15.2990408 C33.2056729,15.2990408 32.7764438,15.5900125 32.7764438,16.1646019 C32.7764438,16.5179248 32.9856129,16.7427085 33.3133005,16.7427085 C33.9231901,16.7427085 34.3629898,16.1633229 34.3886154,15.3227022 L34.3886154,15.3227022 Z M35.4793057,17.8544765 L34.2380649,17.8544765 L34.2662531,17.2654984 C33.8876346,17.7307335 33.3821693,17.9526395 32.6963638,17.9526395 C31.8837115,17.9526395 31.3276356,17.3198558 31.3276356,16.4005768 C31.3276356,15.0167022 32.2959635,14.2096552 33.9577847,14.2096552 C34.1278748,14.2096552 34.3450518,14.2253229 34.568315,14.2534608 C34.6147615,14.0660878 34.6266133,13.9861505 34.6266133,13.8851097 C34.6266133,13.5090846 34.3655523,13.3680752 33.6662933,13.3680752 C32.9330804,13.3604013 32.3286362,13.5426583 32.0794271,13.6238746 C32.0957634,13.5298683 32.2885962,12.3461567 32.2885962,12.3461567 C33.0343016,12.1271285 33.5272744,12.0452727 34.0804674,12.0452727 C35.3678342,12.0452727 36.0485147,12.6217806 36.0472334,13.7114859 C36.0497959,14.0037367 36.0017479,14.3634545 35.925832,14.8373229 C35.7964227,15.6600376 35.5167831,17.4247335 35.4793057,17.8544765 L35.4793057,17.8544765 Z" id="Fill-6" fill="#0B2D5A"/>
                    <path d="M18.5359688,17.7681442 C18.125959,17.8970031 17.8062794,17.9526395 17.459693,17.9526395 C16.6938074,17.9526395 16.2761099,17.5136238 16.2761099,16.7040188 C16.265219,16.4530157 16.3859797,15.7924138 16.4811148,15.1896865 C16.5679216,14.6589028 17.1310445,11.3120878 17.1310445,11.3120878 L18.6198927,11.3120878 L18.4462792,12.1718934 L19.3457383,12.1718934 L19.1426553,13.5378621 L18.2396727,13.5378621 C18.0666998,14.6182947 17.8203735,15.9647586 17.8174906,16.1431787 C17.8174906,16.436069 17.9741272,16.5642884 18.3306436,16.5642884 C18.5013743,16.5642884 18.6333462,16.5467022 18.734247,16.5105705 L18.5359688,17.7681442" id="Fill-7" fill="#0B2D5A"/>
                    <path d="M23.1018129,17.7221003 C22.5899413,17.8781379 22.0969685,17.9542382 21.5742059,17.9526395 C19.9069393,17.950721 19.0379106,17.0819624 19.0379106,15.4176677 C19.0379106,13.475511 20.1430153,12.0452727 21.6440357,12.0452727 C22.8715027,12.0452727 23.6562872,12.8459248 23.6562872,14.1012602 C23.6562872,14.5182132 23.6024734,14.9249342 23.4721031,15.498884 L20.506899,15.498884 C20.4066388,16.3231975 20.9345265,16.6666082 21.8019536,16.6666082 C22.3343257,16.6666082 22.8154467,16.5566144 23.3497408,16.3094483 L23.1018129,17.7221003 L23.1018129,17.7221003 Z M22.2648163,14.3535423 C22.2734649,14.2349154 22.4224138,13.3392978 21.5716433,13.3392978 C21.0972491,13.3392978 20.7583504,13.7002947 20.6206127,14.3535423 L22.2648163,14.3535423 L22.2648163,14.3535423 Z" id="Fill-8" fill="#0B2D5A"/>
                    <path d="M12.7766117,13.9685643 C12.7766117,14.6870408 13.1257607,15.182652 13.9172719,15.5548401 C14.5239584,15.8397367 14.6181325,15.9241505 14.6181325,16.1818683 C14.6181325,16.5361505 14.3503448,16.6966646 13.7577525,16.6966646 C13.3105855,16.6966646 12.8948099,16.6266395 12.4152905,16.4718809 C12.4152905,16.4718809 12.2189342,17.7246583 12.2093246,17.7844514 C12.549825,17.8583135 12.8534885,17.9267398 13.768323,17.9526395 C15.3491032,17.9526395 16.0791129,17.3518307 16.0791129,16.0533292 C16.0791129,15.2728213 15.7738478,14.8143009 15.0230172,14.4696113 C14.3951897,14.1824765 14.3227973,14.1172476 14.3227973,13.8524953 C14.3227973,13.5452163 14.5720064,13.3885392 15.0560102,13.3885392 C15.3500642,13.3885392 15.7517457,13.4198746 16.1326064,13.4735925 L16.3456193,12.155906 C15.9577116,12.0938746 15.3696037,12.0452727 15.0271814,12.0452727 C13.3515865,12.0452727 12.7711663,12.9188276 12.7766117,13.9685643" id="Fill-9" fill="#0B2D5A"/>
                    <path d="M30.3878161,12.1952351 C30.8039121,12.1952351 31.1924605,12.3033103 31.7267546,12.5722194 L31.9721198,11.0556489 C31.7517395,10.9696364 30.9797679,10.4647524 30.3253537,10.4647524 C29.3230718,10.4647524 28.4748639,10.9613229 27.8790683,11.7805204 C27.009399,11.4930658 26.6516014,12.0740502 26.2137236,12.6527962 L25.8245346,12.743605 C25.8540041,12.5530345 25.880911,12.3637429 25.8722623,12.1718934 L24.4958464,12.1718934 C24.3081388,13.9311536 23.9753261,15.7124765 23.7142651,17.4723762 L23.6460369,17.8544765 L25.1451355,17.8544765 C25.3953055,16.232069 25.5317619,15.1935235 25.6156858,14.4894357 L26.18009,14.1773605 C26.2643342,13.8636865 26.5276374,13.7581693 27.0571267,13.771279 C26.9882579,14.1418683 26.9507804,14.5319624 26.9507804,14.9361254 C26.9507804,16.7951473 27.9565858,17.9526395 29.5690777,17.9526395 C29.9842127,17.9526395 30.3410494,17.8982821 30.8932814,17.7483197 L31.1562643,16.1556489 C30.6594477,16.3992978 30.252641,16.5140878 29.8836321,16.5140878 C29.0126815,16.5140878 28.4860751,15.8723511 28.4860751,14.8117429 C28.4860751,13.2731097 29.269258,12.1952351 30.3878161,12.1952351" id="Fill-10" fill="#0B2D5A"/>
                    <path d="M43.0718553,10.8669969 L42.7390426,12.8858934 C42.3296734,12.3480752 41.8898738,11.9583009 41.3088129,11.9583009 C40.5531776,11.9583009 39.8648095,12.530652 39.4144393,13.3728715 C38.786932,13.2430533 38.1389243,13.0221066 38.1389243,13.0221066 L38.1382836,13.0275423 C38.1882536,12.5568715 38.2093947,12.2700564 38.2045899,12.1718934 L36.828174,12.1718934 C36.641107,13.9311536 36.3076537,15.7124765 36.0472334,17.4723762 L35.9783645,17.8544765 L37.4774631,17.8544765 C37.6802257,16.5428652 37.8346201,15.4531599 37.9486541,14.5895172 C38.4608461,14.1274796 38.7174225,13.7252351 39.234099,13.7514545 C39.0053904,14.3046207 38.8714966,14.9415611 38.8714966,15.5951285 C38.8714966,17.0151348 39.5909357,17.9526395 40.6800244,17.9526395 C41.2293735,17.9526395 41.6502743,17.763348 42.0615654,17.3256113 L41.9907746,17.853837 L43.4085118,17.853837 L44.549172,10.8669969 L43.0718553,10.8669969 L43.0718553,10.8669969 Z M41.1979821,16.5415862 C40.6880324,16.5415862 40.430495,16.1646019 40.430495,15.421185 C40.430495,14.3046207 40.9128972,13.5129216 41.5922963,13.5129216 C42.1070509,13.5129216 42.3860498,13.9036552 42.3860498,14.6256489 C42.3860498,15.7524451 41.8956395,16.5415862 41.1979821,16.5415862 L41.1979821,16.5415862 Z" id="Fill-11" fill="#0B2D5A"/>
                    <path d="M7.53040751,17.4397618 L6.03226995,17.4397618 L6.89072808,12.0689342 L4.97457266,17.4397618 L3.95339187,17.4397618 L3.82750603,12.1002696 L2.92516404,17.4397618 L1.52280222,17.4397618 L2.6945335,10.4529216 L4.84868682,10.4529216 L4.90890702,14.7781693 L6.36252007,10.4529216 L8.68900567,10.4529216 L7.53040751,17.4397618" id="Fill-12" fill="#FFFFFF"/>
                    <path d="M11.2195352,14.908627 C11.0625783,14.8904013 10.9930688,14.885605 10.8851209,14.885605 C10.0362724,14.885605 9.60640271,15.1759373 9.60640271,15.7498871 C9.60640271,16.10321 9.81621244,16.3292727 10.1435797,16.3292727 C10.7537897,16.3292727 11.1935893,15.7492476 11.2195352,14.908627 L11.2195352,14.908627 Z M12.3092645,17.4397618 L11.0680238,17.4397618 L11.0965323,16.8514232 C10.7179138,17.3160188 10.2124485,17.5385643 9.52632266,17.5385643 C8.71431096,17.5385643 8.15759446,16.9051411 8.15759446,15.9858621 C8.15759446,14.6019875 9.12592241,13.7958997 10.7880639,13.7958997 C10.9578336,13.7958997 11.1756514,13.8112476 11.3985942,13.8400251 C11.4447203,13.6520125 11.4572128,13.5720752 11.4572128,13.470395 C11.4572128,13.0943699 11.1961518,12.9546395 10.4965725,12.9546395 C9.76303929,12.9456865 9.15891539,13.1282633 8.91034692,13.2094796 C8.92636293,13.1151536 9.11823473,11.931442 9.11823473,11.931442 C9.86458079,11.7130533 10.3569129,11.630558 10.9113872,11.630558 C12.1977931,11.630558 12.8791142,12.2077053 12.8778329,13.2967712 C12.8803954,13.5890219 12.8320271,13.9500188 12.7564315,14.4226082 C12.6263815,15.2453229 12.3473826,17.0106583 12.3092645,17.4397618 L12.3092645,17.4397618 Z" id="Fill-13" fill="#FFFFFF"/>
                    <path d="M32.4029505,10.6412539 L32.1579055,12.1575047 C31.6229708,11.8892351 31.2350631,11.7805204 30.8196078,11.7805204 C29.7010496,11.7805204 28.9162651,12.859674 28.9162651,14.3983072 C28.9162651,15.4589154 29.4438325,16.0996928 30.3147831,16.0996928 C30.683792,16.0996928 31.0912393,15.9858621 31.587095,15.7412539 L31.3237917,17.333605 C30.77188,17.4835674 30.4153637,17.5385643 29.9999084,17.5385643 C28.3870962,17.5385643 27.3822517,16.3804326 27.3822517,14.5220502 C27.3822517,12.0241693 28.7711601,10.2783386 30.7565047,10.2783386 C31.4105985,10.2783386 32.1835312,10.5552414 32.4029505,10.6412539" id="Fill-14" fill="#FFFFFF"/>
                    <path d="M34.8197664,14.908627 C34.6634501,14.8904013 34.5939406,14.885605 34.4863131,14.885605 C33.6374645,14.885605 33.2075948,15.1759373 33.2075948,15.7498871 C33.2075948,16.10321 33.4170842,16.3292727 33.7444515,16.3292727 C34.3543411,16.3292727 34.7947814,15.7492476 34.8197664,14.908627 L34.8197664,14.908627 Z M35.9101363,17.4397618 L34.6688956,17.4397618 L34.6970837,16.8514232 C34.3187856,17.3160188 33.813,17.5385643 33.1275148,17.5385643 C32.3148624,17.5385643 31.7591069,16.9051411 31.7591069,15.9858621 C31.7591069,14.6019875 32.7264739,13.7958997 34.3886154,13.7958997 C34.5590257,13.7958997 34.7758825,13.8112476 34.9988254,13.8400251 C35.0449515,13.6520125 35.057444,13.5720752 35.057444,13.470395 C35.057444,13.0943699 34.797344,12.9546395 34.097124,12.9546395 C33.3645517,12.9456865 32.7601075,13.1282633 32.5112187,13.2094796 C32.5269144,13.1151536 32.7191065,11.931442 32.7191065,11.931442 C33.4660932,11.7130533 33.9577847,11.630558 34.5119387,11.630558 C35.7983446,11.630558 36.4803063,12.2077053 36.4783844,13.2967712 C36.4815876,13.5890219 36.4325786,13.9500188 36.3576236,14.4226082 C36.2275736,15.2453229 35.9485748,17.0106583 35.9101363,17.4397618 L35.9101363,17.4397618 Z" id="Fill-15" fill="#FFFFFF"/>
                    <path d="M18.9671198,17.3534295 C18.5574303,17.4822884 18.2374304,17.5385643 17.890844,17.5385643 C17.1252787,17.5385643 16.7069405,17.0989091 16.7069405,16.2905831 C16.69637,16.0383009 16.817451,15.3789781 16.9125861,14.7756113 C16.9987522,14.2441881 17.5621954,10.8976928 17.5621954,10.8976928 L19.051364,10.8976928 L18.8774302,11.7581379 L19.6413938,11.7581379 L19.4383108,13.1231473 L18.671144,13.1231473 C18.4981711,14.2048589 18.2512042,15.5500439 18.2486416,15.7284639 C18.2486416,16.0219937 18.4055985,16.1495737 18.7617946,16.1495737 C18.9325252,16.1495737 19.0648175,16.132627 19.1657183,16.0958558 L18.9671198,17.3534295" id="Fill-16" fill="#FFFFFF"/>
                    <path d="M23.5336046,17.3086646 C23.0217329,17.4647022 22.5274788,17.5392038 22.0050366,17.5385643 C20.33777,17.5372853 19.4690616,16.6678871 19.4690616,15.0035925 C19.4690616,13.0607962 20.5741663,11.630558 22.0745461,11.630558 C23.3032943,11.630558 24.0871179,12.43121 24.0871179,13.6878245 C24.0871179,14.1041379 24.0326634,14.5108589 23.9038947,15.0848088 L20.9383703,15.0848088 C20.8377898,15.9091223 21.3663181,16.2531724 22.2321436,16.2531724 C22.7651564,16.2531724 23.2462773,16.1431787 23.7812121,15.8947335 L23.5336046,17.3086646 L23.5336046,17.3086646 Z M22.6966079,13.9388276 C22.7046159,13.8202006 22.8542054,12.9245831 22.0031147,12.9245831 C21.5290408,12.9245831 21.1898217,13.2862194 21.0517637,13.9388276 L22.6966079,13.9388276 L22.6966079,13.9388276 Z" id="Fill-17" fill="#FFFFFF"/>
                    <path d="M13.2074424,13.5541693 C13.2074424,14.273605 13.5569117,14.7682571 14.3487432,15.1410846 C14.9554297,15.4256614 15.0489632,15.5100752 15.0489632,15.7681129 C15.0489632,16.1220752 14.7818161,16.2819498 14.1889034,16.2819498 C13.7417365,16.2819498 13.3262812,16.2125643 12.8461212,16.0584451 C12.8461212,16.0584451 12.6497649,17.3105831 12.6407959,17.3697367 C12.980976,17.4442382 13.2849599,17.5123448 14.199474,17.5385643 C15.7805745,17.5385643 16.5105842,16.9377555 16.5105842,15.6392539 C16.5105842,14.8581066 16.2049988,14.4002257 15.4544885,14.0561755 C14.8263406,13.7677618 14.7539483,13.7038119 14.7539483,13.4384201 C14.7539483,13.1311411 15.0031574,12.973185 15.4874815,12.973185 C15.7812151,12.973185 16.183217,13.0057994 16.5637574,13.0595172 L16.7770906,11.7418307 C16.3891829,11.6804389 15.801075,11.630558 15.4586527,11.630558 C13.7824171,11.630558 13.2026376,12.5041129 13.2074424,13.5541693" id="Fill-18" fill="#FFFFFF"/>
                    <path d="M43.8393425,17.4397618 L42.4225663,17.4397618 L42.4923961,16.9108966 C42.0814252,17.3492727 41.6605245,17.5385643 41.1111754,17.5385643 C40.022407,17.5385643 39.3023272,16.6016991 39.3023272,15.1804138 C39.3023272,13.2903762 40.4192837,11.6973856 41.7399639,11.6973856 C42.3210248,11.6973856 42.7608244,11.934 43.1705139,12.4724577 L43.5030063,10.4529216 L44.980323,10.4529216 L43.8393425,17.4397618 L43.8393425,17.4397618 Z M41.6291331,16.1268715 C42.3274312,16.1268715 42.8172007,15.3377304 42.8172007,14.2122132 C42.8172007,13.4902194 42.5382018,13.0982069 42.023127,13.0982069 C41.3437278,13.0982069 40.8616459,13.889906 40.8616459,15.0074295 C40.8616459,15.7511661 41.119824,16.1268715 41.6291331,16.1268715 L41.6291331,16.1268715 Z" id="Fill-19" fill="#FFFFFF"/>
                    <path d="M37.2596453,11.7581379 C37.0719377,13.5164389 36.739125,15.2977618 36.4783844,17.0576614 L36.4101562,17.4397618 L37.908614,17.4397618 C38.44483,13.965047 38.5735988,13.2868589 39.4144393,13.3715925 C39.5483331,12.6604702 39.7972219,12.0375987 39.9830076,11.723605 C39.3555004,11.5931473 39.0053904,11.9471097 38.5460512,12.6198621 C38.5822474,12.3288903 38.6485537,12.0465517 38.6360612,11.7581379 L37.2596453,11.7581379" id="Fill-20" fill="#FFFFFF"/>
                    <path d="M24.9273177,11.7581379 C24.7389695,13.5164389 24.4055161,15.2977618 24.1454161,17.0576614 L24.0771879,17.4397618 L25.5762865,17.4397618 C26.1125025,13.965047 26.2412712,13.2868589 27.0808304,13.3715925 C27.2153649,12.6604702 27.4648943,12.0375987 27.6500394,11.723605 C27.0231728,11.5931473 26.6724222,11.9471097 26.2137236,12.6198621 C26.2499198,12.3288903 26.3162261,12.0465517 26.303093,11.7581379 L24.9273177,11.7581379" id="Fill-21" fill="#FFFFFF"/>
                    <path d="M44.4972802,16.9949906 C44.4972802,16.7484639 44.6974803,16.5498997 44.9428456,16.5498997 C45.1891718,16.5498997 45.3880906,16.7484639 45.3880906,16.9949906 C45.3880906,17.2399185 45.1891718,17.4397618 44.9428456,17.4397618 C44.6974803,17.4397618 44.4972802,17.2399185 44.4972802,16.9949906 L44.4972802,16.9949906 Z M44.9428456,17.3329655 C45.1305532,17.3329655 45.2817443,17.1810846 45.2817443,16.9949906 C45.2817443,16.8082571 45.1305532,16.6566959 44.9428456,16.6566959 C44.7557786,16.6566959 44.6042671,16.8082571 44.6042671,16.9949906 C44.6042671,17.1810846 44.7557786,17.3329655 44.9428456,17.3329655 L44.9428456,17.3329655 Z M44.8826254,17.1893981 L44.7913341,17.1893981 L44.7913341,16.7989843 L44.95726,16.7989843 C44.9915342,16.7989843 45.0264491,16.8002633 45.0565592,16.8191285 C45.0892319,16.840232 45.1065292,16.8776426 45.1065292,16.9163323 C45.1065292,16.9607774 45.0809036,17.0020251 45.0389416,17.0176928 L45.1110137,17.1893981 L45.0097925,17.1893981 L44.9495723,17.0349592 L44.8826254,17.0349592 L44.8826254,17.1893981 L44.8826254,17.1893981 Z M44.8826254,16.9681317 L44.933236,16.9681317 C44.9514942,16.9681317 44.9726353,16.9700502 44.9889717,16.9607774 C45.0040267,16.9515047 45.0117144,16.9326395 45.0117144,16.9156928 C45.0117144,16.9006646 45.0027454,16.8840376 44.9896123,16.8750846 C44.9739166,16.8664514 44.948291,16.8690094 44.9316344,16.8690094 L44.8826254,16.8690094 L44.8826254,16.9681317 L44.8826254,16.9681317 Z" id="Fill-22" fill="#FFFFFF"/>
                </g>
                <g id="visa2" transform="translate(0.000000, 10.363636)">
                    <g id="Group-4">
                        <mask id="mask-2" sketch:name="Clip 2" fill="white">
                            <use xlink:href="#path-1"/>
                        </mask>
                        <g id="Clip-2"/>
                        <path d="M17.6938494,15.0528287 L20.2349516,0.261120547 L24.302873,0.261120547 L21.7568356,15.0528287 L17.6938494,15.0528287" id="Fill-1" fill="#185891" sketch:type="MSShapeGroup" mask="url(#mask-2)"/>
                        <path d="M36.506734,0.624937019 C35.7015686,0.325179823 34.4387349,0.00315987461 32.8617893,0.00315987461 C28.8444297,0.00315987461 26.0139886,2.00948874 25.9886835,4.88545341 C25.9661847,7.01061271 28.0093143,8.19757652 29.5516166,8.90467028 C31.1351908,9.62947848 31.6674196,10.0925437 31.6608393,10.7394084 C31.6495657,11.7314654 30.395683,12.1833753 29.2261829,12.1833753 C27.5998852,12.1833753 26.7352553,11.9596945 25.3996998,11.4075304 L24.8761802,11.17279 L24.3052438,14.4848652 C25.2538691,14.8978034 27.010466,15.2551086 28.8350915,15.2727273 C33.1098563,15.2727273 35.8835425,13.2904805 35.9153795,10.2187951 C35.9313463,8.53721516 34.848164,7.25655628 32.5025349,6.20044001 C31.0808067,5.51556113 30.2090159,5.05900712 30.2184509,4.36574979 C30.2184509,3.75139356 30.9555394,3.09346936 32.5480163,3.09346936 C33.8765077,3.07302593 34.8410998,3.36071815 35.5895103,3.66042747 L35.9562159,3.83120433 L36.506734,0.624937019" id="Fill-3" fill="#185891" sketch:type="MSShapeGroup" mask="url(#mask-2)"/>
                    </g>
                    <path d="M41.9191138,9.81045312 C42.2562565,8.95762211 43.5392666,5.67427301 43.5392666,5.67427301 C43.5162356,5.71415446 43.873603,4.81770761 44.0780757,4.26185694 L44.3537702,5.53782388 C44.3537702,5.53782388 45.1322274,9.06893588 45.2953797,9.81045312 L41.9191138,9.81045312 L41.9191138,9.81045312 Z M46.9338218,0.275052722 L43.7920269,0.275052722 C42.8179998,0.275052722 42.0897657,0.53861499 41.662144,1.50189798 L35.6237181,15.0583824 L39.8942735,15.0583824 C39.8942735,15.0583824 40.5906223,13.2357572 40.750049,12.8357937 C41.2161847,12.8357937 45.3638437,12.8422571 45.9575207,12.8422571 C46.0784818,13.3600935 46.4512838,15.0583824 46.4512838,15.0583824 L50.2254634,15.0583824 L46.9338218,0.275052722 L46.9338218,0.275052722 Z" id="Fill-5" fill="#185891" sketch:type="MSShapeGroup"/>
                    <path d="M14.2832789,0.271318324 L10.301385,10.3597925 L9.87632776,8.30984782 C9.13686843,5.94616586 6.82762447,3.38480023 4.24544392,2.10414135 L7.88550177,15.0416734 L12.1877006,15.0360718 L18.5899775,0.271318324 L14.2832789,0.271318324" id="Fill-6" fill="#185891" sketch:type="MSShapeGroup"/>
                    <path d="M6.60907198,0.262078085 L0.0499327375,0.262078085 L0,0.570165859 C5.10078397,1.79514392 8.47704988,4.75364833 9.87632776,8.30984782 L8.45222867,1.51118609 C8.20648412,0.57385238 7.49184601,0.295448276 6.60907198,0.262078085" id="Fill-7" fill="#EE9D3C" sketch:type="MSShapeGroup"/>
                </g>
            </g>
        </g>
    </g>
</svg>