<?xml version="1.0" encoding="iso-8859-1"?>
<!-- Generator: Adobe Illustrator 16.0.0, SVG Export Plug-In . SVG Version: 6.00 Build 0)  -->
<!DOCTYPE svg PUBLIC "-//W3C//DTD SVG 1.1//EN" "http://www.w3.org/Graphics/SVG/1.1/DTD/svg11.dtd">
<svg version="1.1" id="Capa_1" xmlns="http://www.w3.org/2000/svg" xmlns:xlink="http://www.w3.org/1999/xlink" x="0px" y="0px"
	 width="45.958px" height="45.958px" viewBox="0 0 45.958 45.958" style="enable-background:new 0 0 45.958 45.958;"
	 xml:space="preserve">
<g>
	<g>
		<path d="M30.678,28.84l-2.818-0.706c0.932-1.074,1.703-2.387,2.261-3.752c1.019-0.209,1.972-1.042,2.125-2.905
			c0.136-1.646-0.353-2.426-0.981-2.789v-4.566c1.678-0.975,3.285-2.98,3.285-5.258c0-3.465-3.056-6.256-6.562-5.859
			C26.971,1.198,25.07,0,22.972,0c-2.099,0-3.997,1.198-5.012,3.005c-3.508-0.397-6.561,2.394-6.561,5.859
			c0,2.278,1.616,4.284,3.294,5.258v4.566c-0.63,0.363-1.127,1.142-0.99,2.789c0.153,1.863,1.096,2.696,2.114,2.905
			c0.56,1.368,1.333,2.685,2.268,3.759l-2.793,0.699c-4.242,1.062-7.206,4.859-7.206,9.232v5.252c0,1.473,1.205,2.634,2.677,2.634
			h24.465c1.473,0,2.644-1.161,2.644-2.634v-5.252C37.871,33.699,34.92,29.902,30.678,28.84z M14.902,44.385h-4.14
			c-0.593,0-1.104-0.467-1.104-1.061v-5.252c0-3.363,2.098-6.315,5.243-7.443L14.902,44.385L14.902,44.385z M15.818,12.909
			c-1.374-0.625-2.817-2.254-2.817-4.045c0-2.676,2.505-4.8,5.242-4.198l0.645,0.142l0.26-0.606
			c0.662-1.543,2.151-2.607,3.822-2.607c1.67,0,3.16,1.063,3.821,2.607l0.26,0.606l0.645-0.142c2.738-0.602,5.248,1.522,5.248,4.198
			c0,1.791-1.438,3.421-2.813,4.045l-0.438,0.213v4.206H22.97h-6.703v-4.206L15.818,12.909z M16.419,19.005h6.55h6.55
			c0.004,0.171,0.006,0.344,0.006,0.523c0,4.192-2.865,9.609-6.556,9.609c-3.691,0-6.557-5.417-6.557-9.609
			C16.413,19.349,16.416,19.176,16.419,19.005z M36.298,43.324c0,0.594-0.478,1.061-1.071,1.061h-18.75V30.191l2.983-0.748
			c1.053,0.804,2.238,1.293,3.51,1.293c1.277,0,2.468-0.494,3.522-1.303l3.81,0.954c3.532,0.884,5.997,4.045,5.997,7.685V43.324z"/>
		<circle cx="19.538" cy="35.277" r="1.205"/>
		<circle cx="19.538" cy="40.06" r="1.206"/>
		<circle cx="24.32" cy="35.277" r="1.205"/>
		<circle cx="24.32" cy="40.06" r="1.206"/>
		<path d="M21.215,25.088h1.754h1.753c0.453,0,0.82-0.325,0.82-0.778c0-0.868-0.704-1.529-1.572-1.529h-1.002h-1.003
			c-0.868,0-1.572,0.663-1.572,1.529C20.394,24.763,20.762,25.088,21.215,25.088z"/>
	</g>
</g>
<g>
</g>
<g>
</g>
<g>
</g>
<g>
</g>
<g>
</g>
<g>
</g>
<g>
</g>
<g>
</g>
<g>
</g>
<g>
</g>
<g>
</g>
<g>
</g>
<g>
</g>
<g>
</g>
<g>
</g>
</svg>
