<?xml version="1.0" encoding="UTF-8" standalone="no"?>
<!-- Created with Inkscape (http://www.inkscape.org/) -->

<svg
   xmlns:dc="http://purl.org/dc/elements/1.1/"
   xmlns:cc="http://creativecommons.org/ns#"
   xmlns:rdf="http://www.w3.org/1999/02/22-rdf-syntax-ns#"
   xmlns:svg="http://www.w3.org/2000/svg"
   xmlns="http://www.w3.org/2000/svg"
   xmlns:sodipodi="http://sodipodi.sourceforge.net/DTD/sodipodi-0.dtd"
   xmlns:inkscape="http://www.inkscape.org/namespaces/inkscape"
   id="svg3336"
   version="1.1"
   inkscape:version="0.91 r13725"
   xml:space="preserve"
   width="2659.4778"
   height="937.81561"
   viewBox="0 0 2659.4778 937.81558"
   sodipodi:docname="logo-titoeuf.svg"><metadata
     id="metadata3342"><rdf:RDF><cc:Work
         rdf:about=""><dc:format>image/svg+xml</dc:format><dc:type
           rdf:resource="http://purl.org/dc/dcmitype/StillImage" /><dc:title></dc:title></cc:Work></rdf:RDF></metadata><defs
     id="defs3340"><clipPath
       clipPathUnits="userSpaceOnUse"
       id="clipPath3382"><path
         d="m 0,2448 3264,0 L 3264,0 0,0 0,2448 Z"
         id="path3384"
         inkscape:connector-curvature="0" /></clipPath></defs><sodipodi:namedview
     pagecolor="#ffffff"
     bordercolor="#666666"
     borderopacity="1"
     objecttolerance="10"
     gridtolerance="10"
     guidetolerance="10"
     inkscape:pageopacity="0"
     inkscape:pageshadow="2"
     inkscape:window-width="1920"
     inkscape:window-height="1028"
     id="namedview3338"
     showgrid="false"
     inkscape:zoom="0.28137255"
     inkscape:cx="1330.3036"
     inkscape:cy="560.33637"
     inkscape:window-x="-8"
     inkscape:window-y="-8"
     inkscape:window-maximized="1"
     inkscape:current-layer="g3380"
     fit-margin-top="10"
     fit-margin-left="10"
     fit-margin-right="10"
     fit-margin-bottom="10" /><g
     id="g3344"
     inkscape:groupmode="layer"
     inkscape:label="Logo TITOEUF - Copie"
     transform="matrix(1.25,0,0,-1.25,-709.69635,1907.4791)"><g
       id="g3346"
       transform="translate(1103.1984,1269.1449)"><path
         d="m 0,0 -143.967,16.819 7.778,67.43 L 7.778,67.43 0,0 Z"
         style="fill:#c93c40;fill-opacity:1;fill-rule:nonzero;stroke:none"
         id="path3348"
         inkscape:connector-curvature="0" /></g><g
       id="g3350"
       transform="translate(1103.1984,1269.1449)"><path
         d="m 0,0 -143.967,16.819 7.778,67.43 L 7.778,67.43 0,0 Z"
         style="fill:none;stroke:#181210;stroke-width:19;stroke-linecap:butt;stroke-linejoin:miter;stroke-miterlimit:10;stroke-dasharray:none;stroke-opacity:1"
         id="path3352"
         inkscape:connector-curvature="0" /></g><g
       id="g3354"
       transform="translate(586.5,1197)"><path
         d="m 0,0 267,44 20,-163 -67,-7 21,-254 L 133,-402 90,-148 24,-165 0,0 Z"
         style="fill:#c93c40;fill-opacity:1;fill-rule:nonzero;stroke:none"
         id="path3356"
         inkscape:connector-curvature="0" /></g><g
       id="g3358"
       transform="translate(586.5,1197)"><path
         d="m 0,0 267,44 20,-163 -67,-7 21,-254 L 133,-402 90,-148 24,-165 0,0 Z"
         style="fill:none;stroke:#181210;stroke-width:19;stroke-linecap:butt;stroke-linejoin:miter;stroke-miterlimit:10;stroke-dasharray:none;stroke-opacity:1"
         id="path3360"
         inkscape:connector-curvature="0" /></g><g
       id="g3362"
       transform="translate(1395.5,1203)"><path
         d="M 0,0 -255.931,47.419 -280.523,-117 l 61.88,-8.687 L -257,-378 -151.993,-394 -93,-146 -32.377,-157.797 0,0 Z"
         style="fill:#c93c40;fill-opacity:1;fill-rule:nonzero;stroke:none"
         id="path3364"
         inkscape:connector-curvature="0" /></g><g
       id="g3366"
       transform="translate(1395.5,1203)"><path
         d="M 0,0 -255.931,47.419 -280.523,-117 l 61.88,-8.687 L -257,-378 -151.993,-394 -93,-146 -32.377,-157.797 0,0 Z"
         style="fill:none;stroke:#181210;stroke-width:19;stroke-linecap:butt;stroke-linejoin:miter;stroke-miterlimit:10;stroke-dasharray:none;stroke-opacity:1"
         id="path3368"
         inkscape:connector-curvature="0" /></g><g
       id="g3370"
       transform="translate(950.5,1236)"><path
         d="M 0,0 143,-17 71.5,-427 -52,-416 0,0 Z"
         style="fill:#c93c40;fill-opacity:1;fill-rule:nonzero;stroke:none"
         id="path3372"
         inkscape:connector-curvature="0" /></g><g
       id="g3374"
       transform="translate(950.5,1236)"><path
         d="M 0,0 143,-17 71.5,-427 -52,-416 0,0 Z"
         style="fill:none;stroke:#181210;stroke-width:19;stroke-linecap:butt;stroke-linejoin:miter;stroke-miterlimit:10;stroke-dasharray:none;stroke-opacity:1"
         id="path3376"
         inkscape:connector-curvature="0" /></g><g
       id="g3378"><g
         id="g3380"
         clip-path="url(#clipPath3382)"><g
           id="g3386"
           transform="translate(1836.5,1224)"><path
             d="m 0,0 200,41 34,-156 -66,-7 11,-51 69,16 8,-71 c 0,0 -47,-3 -58,-7 l 12,-60 c 0,0 63,15 74,24 l 9,-79 L 119,-388 0,0 Z"
             style="fill:#c93c40;fill-opacity:1;fill-rule:nonzero;stroke:none"
             id="path3388"
             inkscape:connector-curvature="0" /></g><g
           id="g3390"
           transform="translate(1836.5,1224)"><path
             d="m 0,0 200,41 34,-156 -66,-7 11,-51 69,16 8,-71 c 0,0 -47,-3 -58,-7 l 12,-60 c 0,0 63,15 74,24 l 9,-79 L 119,-388 0,0 Z"
             style="fill:none;stroke:#181210;stroke-width:19;stroke-linecap:butt;stroke-linejoin:miter;stroke-miterlimit:10;stroke-dasharray:none;stroke-opacity:1"
             id="path3392"
             inkscape:connector-curvature="0" /></g><g
           id="g3394"
           transform="translate(2176.5,1283)"><path
             d="m 0,0 124,-29 c 0,0 -36,-238 -35,-276 1,-38 8,-57 47,-57 l 34,325 95,-22 -50,-373 c 0,0 -126,-35 -208,58 C -44.928,-315.106 0,0 0,0"
             style="fill:#c93c40;fill-opacity:1;fill-rule:nonzero;stroke:none"
             id="path3396"
             inkscape:connector-curvature="0" /></g><g
           id="g3398"
           transform="translate(2176.5,1283)"><path
             d="m 0,0 124,-29 c 0,0 -36,-238 -35,-276 1,-38 8,-57 47,-57 l 34,325 95,-22 -50,-373 c 0,0 -126,-35 -208,58 C -44.928,-315.106 0,0 0,0 Z"
             style="fill:none;stroke:#181210;stroke-width:19;stroke-linecap:butt;stroke-linejoin:miter;stroke-miterlimit:10;stroke-dasharray:none;stroke-opacity:1"
             id="path3400"
             inkscape:connector-curvature="0" /></g><g
           id="g3402"
           transform="translate(2488.5,876.0001)"><path
             d="m 0,0 -12,389 201,-21 -6,-154 c 0,0 -45,14 -62,11 l -4,-82 63,-4 -10,-75 c 0,0 -41,14 -55,12 L 112,-15 0,0 Z"
             style="fill:#c93c40;fill-opacity:1;fill-rule:nonzero;stroke:none"
             id="path3404"
             inkscape:connector-curvature="0" /></g><g
           id="g3406"
           transform="translate(2488.5,876.0001)"><path
             d="m 0,0 -12,389 201,-21 -6,-154 c 0,0 -45,14 -62,11 l -4,-82 63,-4 -10,-75 c 0,0 -41,14 -55,12 L 112,-15 0,0 Z"
             style="fill:none;stroke:#181210;stroke-width:19;stroke-linecap:butt;stroke-linejoin:miter;stroke-miterlimit:10;stroke-dasharray:none;stroke-opacity:1"
             id="path3408"
             inkscape:connector-curvature="0" /></g><g
           id="g3410"
           transform="translate(1814.9697,1064.674)"><path
             d="m 0,0 c -8.724,144.385 -99.585,256.371 -202.945,250.126 -103.36,-6.245 -180.077,-128.355 -171.354,-272.741 8.724,-144.385 99.585,-256.37 202.945,-250.126 C -67.994,-266.496 8.724,-144.386 0,0"
             style="fill:#ffffff;fill-opacity:1;fill-rule:nonzero;stroke:none"
             id="path3412"
             inkscape:connector-curvature="0" /></g><g
           id="g3414"
           transform="translate(1814.9697,1064.674)"><path
             d="m 0,0 c -8.724,144.385 -99.585,256.371 -202.945,250.126 -103.36,-6.245 -180.077,-128.355 -171.354,-272.741 8.724,-144.385 99.585,-256.37 202.945,-250.126 C -67.994,-266.496 8.724,-144.386 0,0 Z"
             style="fill:none;stroke:#181210;stroke-width:8;stroke-linecap:butt;stroke-linejoin:miter;stroke-miterlimit:10;stroke-dasharray:none;stroke-opacity:1"
             id="path3416"
             inkscape:connector-curvature="0" /></g><g
           id="g3418"
           transform="translate(1683,1187)"><path
             d="M 0,0 C 0,0 30,83.097 74,128.049 118,173 174,208 186,217 c 12,9 17,35 -28,23 0,0 53.59,66 36.295,83 C 177,340 117,332 74,278 c 0,0 -6,46 -35,15 -29,-31 -24,-91 -24,-91 0,0 -20,42 -40,30 -20,-12 -8,-65 8,-99 0,0 -63,54.29 -30,-50.855 C -45,63.419 -41,9 -45,0 L 0,0 Z"
             style="fill:#f36437;fill-opacity:1;fill-rule:nonzero;stroke:none"
             id="path3420"
             inkscape:connector-curvature="0" /></g><g
           id="g3422"
           transform="translate(1731.4338,1114.6671)"><path
             d="m 0,0 c 2.017,-52.978 -34.599,-97.382 -81.782,-99.178 -47.184,-1.796 -87.069,39.696 -89.086,92.674 -2.016,52.978 34.599,97.382 81.783,99.178 C -41.901,94.47 -2.016,52.978 0,0"
             style="fill:#f36437;fill-opacity:1;fill-rule:nonzero;stroke:none"
             id="path3424"
             inkscape:connector-curvature="0" /></g><g
           id="g3434"
           transform="translate(1077.5249,529.3174)" /></g></g></g></svg>