<?xml version="1.0" encoding="UTF-8" standalone="no"?>
<!-- Generator: Adobe Illustrator 13.0.0, SVG Export Plug-In . SVG Version: 6.00 Build 14948)  -->
<!DOCTYPE svg PUBLIC "-//W3C//DTD SVG 1.1//EN" "http://www.w3.org/Graphics/SVG/1.1/DTD/svg11.dtd">
<svg id="Layer_1" style="enable-background:new 0 0 224.853 146.024" xmlns="http://www.w3.org/2000/svg" xml:space="preserve" height="146.02px" viewBox="0 0 224.853 146.024" width="224.85px" version="1.1" y="0px" x="0px" xmlns:xlink="http://www.w3.org/1999/xlink">
<path d="m76.103 12.674c10.109-4.402 22.662-6.777 35.287-6.777 12.642 0 24.099 2.382 34.22 6.802-19 0.582-34.224 16.155-34.229 35.293 0-19.488-15.791-35.291-35.277-35.318" fill="#FFDF9E"/>
<path stroke-miterlimit="10" d="m76.103 12.674c10.109-4.402 22.662-6.777 35.287-6.777 12.642 0 24.099 2.382 34.22 6.802-19 0.582-34.224 16.155-34.229 35.293 0-19.488-15.791-35.291-35.277-35.318z" stroke="#FFDF9E" fill="none"/>
<path d="m75.04 42.151c-3.184 0-5.764 2.58-5.764 5.764 0 3.187 2.58 5.765 5.764 5.765s5.764-2.578 5.764-5.765c0-3.184-2.58-5.764-5.764-5.764" fill="#EC2227"/>
<path d="m146.1 42.071c-3.184 0-5.766 2.578-5.766 5.766 0 3.187 2.582 5.765 5.766 5.765 3.185 0 5.763-2.578 5.763-5.765 0-3.188-2.57-5.766-5.76-5.766" fill="#08A64F"/>
<path d="m75.918 30.764c-9.47 0-17.148 7.68-17.148 17.15 0 9.477 7.678 17.149 17.148 17.149 9.473 0 17.151-7.672 17.151-17.149 0-9.47-7.678-17.15-17.151-17.15m0 29.033c-6.562 0-11.882-5.32-11.882-11.883 0-6.564 5.32-11.884 11.882-11.884 6.565 0 11.885 5.32 11.885 11.884 0 6.563-5.32 11.883-11.885 11.883m106.71-46.631h-23.613c-12.05-8.103-28.49-13.166-47.35-13.166-18.869 0-36.443 5.059-48.486 13.166h-22.494c3.668 4.291 6.383 10.098 7.059 14.086-4.241 5.826-6.752 12.992-6.752 20.748 0 19.516 15.818 35.336 35.332 35.336 11.072 0 20.951-5.102 27.429-13.07 2.643 3.086 7.016 9.297 7.903 11.102 0 0 5.074-7.578 7.925-11.07 6.477 7.953 16.348 13.039 27.407 13.039 19.511 0 35.332-15.82 35.332-35.336 0-7.752-2.517-14.912-6.754-20.736 0.67-3.989 3.39-9.802 7.06-14.099m-106.3 63.28c-15.709 0-28.444-12.735-28.444-28.446 0-15.705 12.735-28.441 28.444-28.441s28.441 12.736 28.441 28.441c0 15.711-12.732 28.446-28.441 28.446m0.054-63.772c10.11-4.402 22.662-6.777 35.285-6.777 12.645 0 24.102 2.383 34.223 6.802-19 0.582-34.226 16.155-34.229 35.293 0-19.488-15.792-35.291-35.277-35.318m70.607 63.772c-15.711 0-28.446-12.734-28.446-28.446 0-15.705 12.735-28.441 28.446-28.441 15.707 0 28.44 12.736 28.44 28.441 0 15.711-12.73 28.446-28.44 28.446m-0.01-45.76c-9.473 0-17.147 7.676-17.147 17.15 0 9.469 7.675 17.148 17.147 17.148 9.47 0 17.148-7.68 17.148-17.148 0-9.474-7.68-17.15-17.15-17.15m0 29.033c-6.562 0-11.883-5.32-11.883-11.883 0-6.566 5.321-11.887 11.883-11.887s11.884 5.321 11.884 11.887c0 6.563-5.32 11.883-11.88 11.883" fill="#010101"/>
<path d="m190.58 18.887h-1.117v-4.695h1.664c0.836 0 1.897 0.101 1.897 1.361 0 0.596-0.261 1.051-0.983 1.248l1.125 2.086h-1.231l-0.976-1.92h-0.379v1.92zm0-2.668c0.641 0 0.737 0 0.897-0.051 0.36-0.115 0.387-0.371 0.387-0.627 0-0.326-0.112-0.486-0.336-0.562-0.176-0.059-0.315-0.059-0.948-0.059v1.299z"/>
<path d="m191.31 12.431c-2.359 0-4.271 1.912-4.271 4.269 0 2.358 1.911 4.268 4.271 4.268 2.358 0 4.27-1.91 4.27-4.268s-1.91-4.269-4.27-4.269m0 7.737c-1.914 0-3.47-1.553-3.47-3.469s1.556-3.468 3.47-3.468c1.913 0 3.469 1.552 3.469 3.468s-1.56 3.469-3.47 3.469"/>
<path d="m219.85 116.7h-1.116v-4.7h1.664c0.836 0 1.897 0.102 1.897 1.367 0 0.594-0.261 1.047-0.983 1.242l1.125 2.086h-1.231l-0.976-1.914h-0.38v1.91zm0-2.67c0.642 0 0.738 0 0.898-0.055 0.36-0.109 0.387-0.367 0.387-0.625 0-0.328-0.112-0.484-0.336-0.562-0.176-0.055-0.315-0.055-0.949-0.055v1.29z" fill="#08A64F"/>
<path d="m220.58 110.24c-2.358 0-4.27 1.906-4.27 4.266s1.911 4.273 4.27 4.273c2.359 0 4.271-1.914 4.271-4.273s-1.91-4.27-4.27-4.27m0 7.74c-1.913 0-3.469-1.555-3.469-3.469s1.556-3.468 3.469-3.468c1.914 0 3.47 1.554 3.47 3.468s-1.55 3.47-3.47 3.47" fill="#08A64F"/>
<path d="m14.887 116v-3.875h-6.312v-5.797l-4.854 1.445v4.352h-3.721v3.89h3.721v12.422c0 5.523 2.256 8.328 6.709 8.328 1.598 0 2.988-0.219 4.131-0.648l0.139-0.055-0.219-3.82-0.242 0.07c-0.649 0.188-1.502 0.281-2.538 0.281-1.099 0-1.876-0.328-2.371-1-0.502-0.688-0.755-1.852-0.755-3.445v-12.12h6.312z"/>
<path d="m31.655 111.69c-0.521-0.07-0.93-0.102-1.25-0.102-1.49 0-2.889 0.484-4.156 1.438-1.057 0.789-1.895 1.853-2.5 3.164l-0.252-4.063h-4.414l0.013 0.212c0.131 1.945 0.196 4.477 0.196 7.523v16.352h4.951v-12.727c0-2.32 0.58-4.125 1.723-5.375 1.136-1.235 2.515-1.867 4.097-1.867 0.584 0 1.098 0.047 1.524 0.141l0.242 0.055v-4.727h-0.174z"/>
<rect y="112.12" x="36.131" height="24.087" width="4.951"/>
<path d="m38.583 108.22c0.934 0 1.697-0.305 2.271-0.891 0.575-0.594 0.866-1.328 0.866-2.195 0-0.853-0.297-1.578-0.879-2.164-0.582-0.578-1.326-0.875-2.209-0.875-0.916 0-1.676 0.297-2.258 0.875-0.584 0.586-0.879 1.312-0.879 2.164 0 0.867 0.291 1.602 0.865 2.195 0.575 0.58 1.323 0.88 2.223 0.88"/>
<path d="m65.196 114.95c-1.932-2.305-4.383-3.477-7.289-3.477-3.52 0-6.272 1.383-8.192 4.109l-0.201-3.57h-4.502l0.022 0.336c0.123 1.992 0.185 4.602 0.185 7.766v25.914h4.963v-12.328c0.688 0.898 1.565 1.625 2.615 2.164 1.319 0.672 2.788 1.008 4.366 1.008 3.103 0 5.73-1.203 7.806-3.57 2.067-2.358 3.114-5.562 3.114-9.523 0-3.57-0.971-6.54-2.887-8.83m-12.17 1.93c1.055-0.758 2.227-1.148 3.486-1.148 1.991 0 3.543 0.75 4.744 2.297 1.206 1.555 1.817 3.555 1.817 5.945 0 2.672-0.619 4.82-1.838 6.375s-2.824 2.312-4.91 2.312c-1.684 0-3.143-0.625-4.338-1.852-1.197-1.227-1.805-2.766-1.805-4.578v-3.82c0-0.68 0.213-1.586 0.631-2.711 0.41-1.12 1.154-2.06 2.213-2.83"/>
<path d="m90.229 135.98c-0.257-1.414-0.388-3.312-0.388-5.641v-8.664c0-3.234-0.813-5.75-2.414-7.477-1.608-1.734-4.008-2.609-7.133-2.609-3.188 0-5.973 0.734-8.279 2.188l-0.135 0.078 1.162 3.375 0.213-0.133c1.851-1.18 3.988-1.781 6.353-1.781 1.748 0 3.078 0.453 3.955 1.352 0.881 0.891 1.327 2.164 1.327 3.781v0.242c-4.713 0.023-8.362 0.797-10.842 2.305-2.547 1.547-3.84 3.82-3.84 6.758 0 1.922 0.703 3.586 2.09 4.945 1.387 1.367 3.254 2.055 5.549 2.055 3.101 0 5.578-1.109 7.369-3.297l0.488 2.758h4.568l-0.043-0.24zm-6.939-4.56c-1.129 1.031-2.551 1.555-4.219 1.555-1.166 0-2.111-0.344-2.812-1.016-0.698-0.664-1.051-1.609-1.051-2.805 0-1.531 0.697-2.711 2.133-3.594 1.418-0.875 3.99-1.327 7.646-1.344v3.719c-0.001 1.28-0.57 2.45-1.697 3.47" fill="#08A64F"/>
<path d="m115.3 136.33l-0.028-0.344c-0.121-1.492-0.183-3.57-0.183-6.188v-28.953h-4.965v13.578c-0.654-0.781-1.475-1.43-2.447-1.938-1.289-0.68-2.768-1.016-4.393-1.016-3.043 0-5.633 1.234-7.693 3.672-2.049 2.422-3.086 5.594-3.086 9.422 0 3.531 0.986 6.5 2.935 8.805 1.959 2.32 4.444 3.5 7.379 3.5 1.819 0 3.469-0.43 4.907-1.289 1.142-0.68 2.082-1.594 2.804-2.711l0.27 3.461h4.5zm-5.18-14.27v3.766c0 2.039-0.619 3.688-1.844 4.906-1.226 1.211-2.64 1.828-4.205 1.828-2.08 0-3.654-0.758-4.81-2.32-1.161-1.57-1.75-3.578-1.75-5.977 0-2.555 0.623-4.656 1.851-6.242 1.225-1.578 2.797-2.344 4.803-2.344 1.625 0 3.037 0.586 4.201 1.75s1.75 2.72 1.75 4.62" fill="#08A64F"/>
<path d="m135.63 112.12s-6.181 12.617-6.621 14.039c-0.56-1.711-6.703-14.039-6.703-14.039h-5.375l12.101 24.086 11.883-24.086h-5.29z" fill="#08A64F"/>
<rect height="24.087" width="4.953" y="112.12" x="143.31" fill="#08A64F"/>
<path d="m145.76 108.22c0.934 0 1.698-0.305 2.272-0.891 0.571-0.594 0.864-1.328 0.864-2.195 0-0.853-0.297-1.578-0.879-2.164-0.582-0.578-1.328-0.875-2.211-0.875-0.914 0-1.677 0.297-2.259 0.875-0.582 0.586-0.875 1.312-0.875 2.164 0 0.867 0.289 1.602 0.863 2.195 0.59 0.58 1.34 0.88 2.24 0.88" fill="#08A64F"/>
<path d="m167.79 125.02c-1.012-1.133-2.694-2.125-5-2.953-1.84-0.656-3.065-1.266-3.637-1.812-0.558-0.539-0.832-1.18-0.832-1.961 0-0.875 0.321-1.578 0.981-2.141 0.664-0.555 1.582-0.844 2.733-0.844 1.703 0 3.379 0.469 4.992 1.391l0.207 0.125 1.258-3.664-0.141-0.086c-1.688-0.993-3.761-1.493-6.167-1.493-2.603 0-4.715 0.704-6.29 2.079-1.578 1.391-2.378 3.125-2.378 5.172 0 3.062 2.234 5.383 6.644 6.891 1.613 0.547 2.754 1.125 3.392 1.727 0.625 0.602 0.925 1.344 0.925 2.297 0 0.984-0.363 1.75-1.121 2.335-0.757 0.587-1.863 0.892-3.277 0.892-2.008 0-3.979-0.586-5.866-1.734l-0.22-0.133-1.203 3.875 0.146 0.078c2.058 1.117 4.429 1.688 7.046 1.688 2.856 0 5.149-0.68 6.817-2.023 1.683-1.359 2.534-3.164 2.534-5.367 0.02-1.75-0.5-3.2-1.53-4.36" fill="#08A64F"/>
<path d="m192.05 115.04c-2.121-2.29-4.918-3.454-8.31-3.454-3.401 0-6.261 1.172-8.5 3.477-2.233 2.305-3.367 5.43-3.367 9.305 0 3.641 1.099 6.641 3.263 8.93 2.168 2.289 4.953 3.453 8.28 3.453 2.134 0 4.146-0.531 5.98-1.57 1.84-1.039 3.29-2.547 4.309-4.484 1.021-1.93 1.535-4.203 1.535-6.773 0-3.63-1.08-6.61-3.19-8.9m-8.64 17.94c-1.909 0-3.522-0.828-4.793-2.461-1.284-1.641-1.934-3.766-1.934-6.297 0-2.539 0.625-4.68 1.856-6.359 1.215-1.656 2.901-2.5 5.012-2.5 2.074 0 3.738 0.852 4.937 2.523 1.22 1.695 1.836 3.781 1.836 6.188 0 2.617-0.672 4.781-1.991 6.43-1.32 1.64-2.98 2.48-4.94 2.48" fill="#08A64F"/>
<path d="m211.86 111.69c-0.52-0.07-0.93-0.102-1.25-0.102-1.487 0-2.887 0.484-4.155 1.438-1.056 0.789-1.896 1.853-2.5 3.164l-0.25-4.063h-4.414l0.011 0.212c0.129 1.945 0.196 4.477 0.196 7.523v16.352h4.953v-12.727c0-2.32 0.577-4.125 1.723-5.375 1.136-1.235 2.515-1.867 4.097-1.867 0.582 0 1.099 0.047 1.524 0.141l0.242 0.055v-4.727h-0.18z" fill="#08A64F"/>
</svg>